<svg width="40" height="32" viewBox="0 0 40 32" fill="none" xmlns="http://www.w3.org/2000/svg">
<path d="M36.2987 2.57087V0.472859H35.631V0.0304871H37.3438V0.472859H36.7876V2.57087H36.2987ZM37.6014 2.579V0.0304871H38.2264L38.7925 1.78046L39.3831 0.0304871H40V2.579H39.5455V0.694047L38.9893 2.45215H38.612L38.064 0.694047V2.579H37.6014Z" fill="#7056CC"/>
<path d="M26.2368 0.287486L39.9737 15.3427V22.9005L22.9949 32L25.3755 24.1268C25.5641 23.5022 25.9874 22.9753 26.5567 22.6516L32.4088 19.3306L19.9877 5.45933L25.0933 0.266342C25.4099 -0.0540521 25.9333 -0.0459195 26.2368 0.287486Z" fill="#7056CC"/>
<path d="M13.7369 0.287486L0 15.3427V22.9005L16.9788 32L14.5983 24.1268C14.4096 23.5022 13.9863 22.9753 13.417 22.6516L7.56491 19.3306L19.9861 5.45933L14.8804 0.266342C14.5638 -0.0540521 14.0404 -0.0459195 13.7369 0.287486Z" fill="#7056CC"/>
<path d="M19.9877 5.45933L25.0933 0.266348C25.0933 0.266348 25.6577 -0.346791 26.2368 0.287491C26.8143 0.921774 39.9737 15.3428 39.9737 15.3428L32.4088 19.3306L19.9877 5.45933Z" fill="#8C6AF9"/>
<path d="M19.9878 5.45933L14.8822 0.266348C14.8822 0.266348 14.3178 -0.346791 13.7386 0.287491C13.1611 0.921774 0.00170898 15.3428 0.00170898 15.3428L7.56662 19.3306L19.9878 5.45933Z" fill="#8C6AF9"/>
<path d="M7.56662 19.3306L0.00170898 22.9021V15.3428L7.56662 19.3306Z" fill="#8C6AF9"/>
<path d="M32.4089 19.3306L39.9722 22.9021V15.3428L32.4089 19.3306Z" fill="#8C6AF9"/>
</svg>
