<svg width="1013" height="1080" viewBox="0 0 1013 1080" fill="none" xmlns="http://www.w3.org/2000/svg">
<circle cx="418" cy="388" r="595" fill="url(#paint0_linear_765_121)"/>
<circle cx="190.5" cy="986.5" r="314.5" fill="url(#paint1_radial_765_121)"/>
<circle cx="779" cy="748" r="203" fill="url(#paint2_radial_765_121)"/>
<path d="M341.055 558.256V563.346H330.998V586.648H324.081V563.346H314.023V558.256H341.058H341.055Z" fill="#EFEDF8"/>
<path d="M366.391 581.277V586.645H346.178V558.256H366.374V563.346H353.095V569.169H365.758V574.259H353.095V581.277H366.388H366.391Z" fill="#EFEDF8"/>
<path d="M396.516 558.256L385.815 571.318L398.665 586.611H390.018L378.425 573.01V586.651H371.508V558.263H378.425V570.767L388.908 558.263H396.519L396.516 558.256Z" fill="#EFEDF8"/>
<path d="M429.784 558.256V586.645H423.939L408.61 568.235V586.645H401.693V558.256H408.038L422.867 575.234V558.256H429.784Z" fill="#EFEDF8"/>
<path d="M450.829 558.256C455.56 558.256 459.391 559.684 462.318 562.54C465.245 565.396 466.71 568.719 466.71 572.509C466.71 576.3 465.225 579.687 462.257 582.509C459.289 585.332 455.479 586.743 450.826 586.743C446.173 586.743 442.291 585.338 439.337 582.53C436.383 579.721 434.904 576.381 434.904 572.509C434.904 568.638 436.372 565.379 439.306 562.53C442.24 559.681 446.081 558.256 450.826 558.256H450.829ZM450.829 580.98C453.452 580.98 455.567 580.201 457.171 578.645C458.775 577.088 459.577 575.044 459.577 572.513C459.577 569.982 458.775 567.921 457.171 566.371C455.567 564.821 453.452 564.046 450.829 564.046C448.206 564.046 446.068 564.821 444.457 566.371C442.846 567.921 442.041 569.968 442.041 572.513C442.041 575.058 442.846 577.088 444.457 578.645C446.068 580.201 448.189 580.98 450.829 580.98Z" fill="#EFEDF8"/>
<path d="M496.375 558.256L483.539 586.645H480.537L467.083 558.256H474.619L481.969 574.124L488.923 558.256H496.375Z" fill="#EFEDF8"/>
<path d="M509.955 558.256L522.875 586.611H515.437L512.564 580.54H500.127L498.053 586.645H490.723L501.941 558.256H509.958H509.955ZM510.54 575.69L506.039 564.895L501.961 575.69H510.543H510.54Z" fill="#EFEDF8"/>
<path d="M311.154 629.239V622.762C311.154 621.035 311.406 619.659 311.91 618.633C312.414 617.608 313.169 616.87 314.177 616.42C315.202 615.97 316.462 615.745 317.955 615.745C319.466 615.745 320.726 615.97 321.733 616.42C322.741 616.87 323.496 617.608 324 618.633C324.504 619.659 324.756 621.035 324.756 622.762V629.239H311.154ZM313.259 628.241L312.153 627.323H323.757L322.678 628.241V622.762C322.678 621.467 322.534 620.45 322.246 619.713C321.958 618.957 321.463 618.426 320.762 618.12C320.078 617.814 319.142 617.662 317.955 617.662C316.768 617.662 315.832 617.814 315.148 618.12C314.465 618.426 313.979 618.957 313.691 619.713C313.403 620.45 313.259 621.467 313.259 622.762V628.241ZM315.067 613.317V610.888H317.172V613.317H315.067ZM318.765 613.317V610.888H320.87V613.317H318.765ZM326.078 635.203C325.844 635.203 325.601 635.185 325.349 635.149C325.079 635.131 324.818 635.113 324.566 635.095L324.809 633.179C325.061 633.197 325.295 633.215 325.511 633.233C325.727 633.269 325.916 633.287 326.078 633.287C326.923 633.287 327.607 632.963 328.129 632.316C328.651 631.686 328.911 630.804 328.911 629.671V615.745H331.016V629.671C331.016 630.768 330.801 631.731 330.369 632.559C329.955 633.404 329.379 634.052 328.642 634.502C327.904 634.969 327.049 635.203 326.078 635.203ZM345.608 629.239V627.323H348.523V629.239H345.608ZM339.212 635.203C338.583 635.203 337.908 635.149 337.188 635.041C336.487 634.951 335.713 634.817 334.867 634.637L335.191 632.936C336.145 633.062 336.936 633.152 337.566 633.206C338.214 633.26 338.763 633.287 339.212 633.287C340.706 633.287 341.794 632.999 342.478 632.424C343.162 631.866 343.503 631.047 343.503 629.968V616.96L344.583 617.662H340.022C338.979 617.662 338.169 617.787 337.593 618.039C337.035 618.291 336.649 618.768 336.433 619.47C336.217 620.153 336.109 621.161 336.109 622.492C336.109 623.824 336.217 624.84 336.433 625.542C336.649 626.226 337.035 626.693 337.593 626.945C338.169 627.197 338.979 627.323 340.022 627.323H343.503V629.239H340.022C338.457 629.239 337.233 629.005 336.352 628.537C335.488 628.052 334.876 627.314 334.517 626.324C334.175 625.317 334.004 624.04 334.004 622.492C334.004 620.945 334.175 619.677 334.517 618.687C334.876 617.68 335.488 616.942 336.352 616.474C337.233 615.988 338.457 615.745 340.022 615.745H345.608V629.941C345.608 631.056 345.348 632.01 344.826 632.801C344.322 633.593 343.593 634.187 342.64 634.583C341.686 634.996 340.544 635.203 339.212 635.203ZM348.523 629.239V627.323C348.631 627.323 348.721 627.35 348.793 627.404C348.865 627.44 348.919 627.503 348.955 627.593C348.991 627.665 349.018 627.764 349.036 627.89C349.054 627.998 349.063 628.124 349.063 628.268C349.063 628.412 349.054 628.546 349.036 628.672C349.018 628.798 348.991 628.906 348.955 628.996C348.919 629.068 348.865 629.131 348.793 629.185C348.721 629.221 348.631 629.239 348.523 629.239ZM365.825 629.239V627.323H368.74V629.239H365.825ZM348.526 629.239V627.323H366.419L364.476 629.077V622.735C364.476 621.602 364.314 620.666 363.99 619.928C363.684 619.173 363.217 618.606 362.587 618.228C361.975 617.85 361.201 617.662 360.266 617.662C359.474 617.662 358.737 617.796 358.053 618.066C357.387 618.318 356.767 618.66 356.191 619.092C355.615 619.506 355.075 619.973 354.572 620.495C354.086 620.999 353.636 621.512 353.222 622.034C352.808 622.555 352.431 623.032 352.089 623.464L351.387 621.548C351.945 620.846 352.512 620.153 353.087 619.47C353.663 618.786 354.293 618.165 354.976 617.608C355.66 617.05 356.434 616.6 357.297 616.258C358.161 615.916 359.15 615.745 360.266 615.745C361.543 615.745 362.587 615.961 363.396 616.393C364.224 616.825 364.863 617.401 365.313 618.12C365.78 618.822 366.104 619.578 366.284 620.387C366.464 621.197 366.554 621.98 366.554 622.735V629.239H348.526ZM350.308 627.323V609.889H352.413V627.323H350.308ZM348.526 629.239C348.418 629.239 348.329 629.221 348.257 629.185C348.185 629.131 348.131 629.068 348.095 628.996C348.059 628.906 348.032 628.798 348.014 628.672C347.996 628.546 347.987 628.412 347.987 628.268C347.987 628.07 348.005 627.908 348.041 627.782C348.059 627.638 348.113 627.53 348.203 627.458C348.275 627.368 348.382 627.323 348.526 627.323V629.239ZM368.74 629.239V627.323C368.848 627.323 368.938 627.35 369.01 627.404C369.082 627.44 369.136 627.503 369.172 627.593C369.208 627.665 369.235 627.764 369.253 627.89C369.271 627.998 369.28 628.124 369.28 628.268C369.28 628.412 369.271 628.546 369.253 628.672C369.235 628.798 369.208 628.906 369.172 628.996C369.136 629.068 369.082 629.131 369.01 629.185C368.938 629.221 368.848 629.239 368.74 629.239ZM373.76 629.239V627.323H376.675V629.239H373.76ZM376.675 629.239V627.323C376.783 627.323 376.873 627.35 376.945 627.404C377.017 627.44 377.071 627.503 377.107 627.593C377.143 627.665 377.17 627.764 377.188 627.89C377.206 627.998 377.215 628.124 377.215 628.268C377.215 628.412 377.206 628.546 377.188 628.672C377.17 628.798 377.143 628.906 377.107 628.996C377.071 629.068 377.017 629.131 376.945 629.185C376.873 629.221 376.783 629.239 376.675 629.239ZM368.741 629.239C368.633 629.239 368.543 629.221 368.471 629.185C368.399 629.131 368.345 629.068 368.309 628.996C368.273 628.906 368.246 628.798 368.228 628.672C368.21 628.546 368.201 628.412 368.201 628.268C368.201 628.07 368.219 627.908 368.255 627.782C368.273 627.638 368.327 627.53 368.417 627.458C368.489 627.368 368.597 627.323 368.741 627.323V629.239ZM368.741 629.239V627.323H372.627L371.655 628.106V615.745H373.76V629.239H368.741ZM369.82 613.317V610.888H371.925V613.317H369.82ZM373.517 613.317V610.888H375.622V613.317H373.517ZM376.673 629.239V627.323H391.436L389.87 628.43V622.627C389.87 621.368 389.726 620.378 389.438 619.659C389.151 618.939 388.656 618.426 387.954 618.12C387.27 617.814 386.335 617.662 385.147 617.662C384.392 617.662 383.636 617.716 382.881 617.823C382.143 617.931 381.567 618.075 381.153 618.255L382.422 616.96C382.314 617.392 382.206 617.94 382.098 618.606C381.99 619.254 381.9 619.955 381.828 620.711C381.756 621.467 381.72 622.222 381.72 622.978C381.72 623.752 381.756 624.507 381.828 625.245C381.9 625.983 381.981 626.621 382.071 627.161C382.161 627.701 382.233 628.079 382.287 628.295L380.29 628.861C380.218 628.627 380.128 628.223 380.02 627.647C379.93 627.071 379.84 626.378 379.75 625.569C379.678 624.759 379.642 623.896 379.642 622.978C379.642 622.096 379.678 621.242 379.75 620.414C379.84 619.569 379.939 618.804 380.047 618.12C380.173 617.437 380.29 616.888 380.398 616.474C380.793 616.312 381.423 616.15 382.287 615.988C383.15 615.826 384.104 615.745 385.147 615.745C386.659 615.745 387.918 615.97 388.926 616.42C389.951 616.87 390.716 617.599 391.22 618.606C391.723 619.596 391.975 620.936 391.975 622.627V629.239H376.673ZM376.673 629.239C376.565 629.239 376.476 629.221 376.404 629.185C376.332 629.131 376.278 629.068 376.242 628.996C376.206 628.906 376.179 628.798 376.161 628.672C376.143 628.546 376.134 628.412 376.134 628.268C376.134 628.07 376.152 627.908 376.188 627.782C376.206 627.638 376.26 627.53 376.35 627.458C376.422 627.368 376.529 627.323 376.673 627.323V629.239ZM407.016 629.239C405.451 629.239 404.227 629.005 403.346 628.537C402.482 628.052 401.87 627.314 401.511 626.324C401.169 625.317 400.998 624.04 400.998 622.492C400.998 620.945 401.169 619.677 401.511 618.687C401.87 617.68 402.482 616.942 403.346 616.474C404.227 615.988 405.451 615.745 407.016 615.745H412.602V628.16H410.497V616.744L411.577 617.662H407.016C405.973 617.662 405.163 617.787 404.587 618.039C404.029 618.291 403.643 618.768 403.427 619.47C403.211 620.153 403.103 621.161 403.103 622.492C403.103 623.824 403.211 624.84 403.427 625.542C403.643 626.226 404.029 626.693 404.587 626.945C405.163 627.197 405.973 627.323 407.016 627.323H415.517V629.239H407.016ZM415.517 629.239V627.323C415.625 627.323 415.715 627.35 415.787 627.404C415.859 627.44 415.913 627.503 415.949 627.593C415.985 627.665 416.012 627.764 416.03 627.89C416.048 627.998 416.057 628.124 416.057 628.268C416.057 628.412 416.048 628.546 416.03 628.672C416.012 628.798 415.985 628.906 415.949 628.996C415.913 629.068 415.859 629.131 415.787 629.185C415.715 629.221 415.625 629.239 415.517 629.239ZM404.398 613.317V610.888H406.503V613.317H404.398ZM408.096 613.317V610.888H410.201V613.317H408.096ZM420.54 629.239V627.323H423.455V629.239H420.54ZM423.455 629.239V627.323C423.563 627.323 423.653 627.35 423.725 627.404C423.797 627.44 423.851 627.503 423.887 627.593C423.923 627.665 423.95 627.764 423.968 627.89C423.986 627.998 423.995 628.124 423.995 628.268C423.995 628.412 423.986 628.546 423.968 628.672C423.95 628.798 423.923 628.906 423.887 628.996C423.851 629.068 423.797 629.131 423.725 629.185C423.653 629.221 423.563 629.239 423.455 629.239ZM415.52 629.239C415.413 629.239 415.323 629.221 415.251 629.185C415.179 629.131 415.125 629.068 415.089 628.996C415.053 628.906 415.026 628.798 415.008 628.672C414.99 628.546 414.981 628.412 414.981 628.268C414.981 628.07 414.999 627.908 415.035 627.782C415.053 627.638 415.107 627.53 415.197 627.458C415.269 627.368 415.377 627.323 415.52 627.323V629.239ZM415.52 629.239V627.323H419.407L418.435 628.106V615.745H420.54V629.239H415.52ZM416.6 634.097V631.668H418.705V634.097H416.6ZM420.297 634.097V631.668H422.402V634.097H420.297ZM438.755 629.239V627.323H441.67V629.239H438.755ZM423.453 629.239C423.345 629.239 423.255 629.221 423.183 629.185C423.111 629.131 423.057 629.068 423.021 628.996C422.986 628.906 422.959 628.798 422.941 628.672C422.923 628.546 422.914 628.412 422.914 628.268C422.914 628.07 422.932 627.908 422.968 627.782C422.986 627.638 423.039 627.53 423.129 627.458C423.201 627.368 423.309 627.323 423.453 627.323V629.239ZM423.453 629.239V627.323H438.215L436.65 628.43V622.627C436.65 621.368 436.506 620.378 436.218 619.659C435.93 618.939 435.436 618.426 434.734 618.12C434.05 617.814 433.115 617.662 431.927 617.662C431.172 617.662 430.416 617.716 429.66 617.823C428.923 617.931 428.347 618.075 427.933 618.255L429.202 616.96C429.094 617.392 428.986 617.94 428.878 618.606C428.77 619.254 428.68 619.955 428.608 620.711C428.536 621.467 428.5 622.222 428.5 622.978C428.5 623.752 428.536 624.507 428.608 625.245C428.68 625.983 428.761 626.621 428.851 627.161C428.941 627.701 429.013 628.079 429.067 628.295L427.07 628.861C426.998 628.627 426.908 628.223 426.8 627.647C426.71 627.071 426.62 626.378 426.53 625.569C426.458 624.759 426.422 623.896 426.422 622.978C426.422 622.096 426.458 621.242 426.53 620.414C426.62 619.569 426.719 618.804 426.827 618.12C426.953 617.437 427.07 616.888 427.178 616.474C427.573 616.312 428.203 616.15 429.067 615.988C429.93 615.826 430.884 615.745 431.927 615.745C433.439 615.745 434.698 615.97 435.706 616.42C436.731 616.87 437.496 617.599 437.999 618.606C438.503 619.596 438.755 620.936 438.755 622.627V629.239H423.453ZM441.67 629.239V627.323C441.778 627.323 441.868 627.35 441.94 627.404C442.012 627.44 442.066 627.503 442.102 627.593C442.138 627.665 442.165 627.764 442.183 627.89C442.201 627.998 442.21 628.124 442.21 628.268C442.21 628.412 442.201 628.546 442.183 628.672C442.165 628.798 442.138 628.906 442.102 628.996C442.066 629.068 442.012 629.131 441.94 629.185C441.868 629.221 441.778 629.239 441.67 629.239ZM441.665 629.239V627.323H455.293L453.89 628.537V616.744L454.996 617.662H450.408C449.365 617.662 448.555 617.787 447.98 618.039C447.422 618.291 447.035 618.768 446.819 619.47C446.603 620.153 446.495 621.161 446.495 622.492C446.495 623.824 446.603 624.84 446.819 625.542C447.035 626.226 447.422 626.693 447.98 626.945C448.555 627.197 449.365 627.323 450.408 627.323V628.699C448.843 628.699 447.62 628.51 446.738 628.133C445.875 627.737 445.263 627.089 444.903 626.19C444.561 625.272 444.39 624.04 444.39 622.492C444.39 620.945 444.561 619.677 444.903 618.687C445.263 617.68 445.875 616.942 446.738 616.474C447.62 615.988 448.843 615.745 450.408 615.745H455.995V629.239H441.665ZM441.665 629.239C441.557 629.239 441.467 629.221 441.395 629.185C441.323 629.131 441.269 629.068 441.233 628.996C441.197 628.906 441.17 628.798 441.152 628.672C441.134 628.546 441.125 628.412 441.125 628.268C441.125 628.07 441.143 627.908 441.179 627.782C441.197 627.638 441.251 627.53 441.341 627.458C441.413 627.368 441.521 627.323 441.665 627.323V629.239ZM447.926 613.317V610.888H450.031V613.317H447.926ZM451.623 613.317V610.888H453.728V613.317H451.623ZM458.3 635.203C458.066 635.203 457.823 635.185 457.571 635.149C457.302 635.131 457.041 635.113 456.789 635.095L457.032 633.179C457.284 633.197 457.517 633.215 457.733 633.233C457.949 633.269 458.138 633.287 458.3 633.287C459.146 633.287 459.829 632.963 460.351 632.316C460.873 631.686 461.134 630.804 461.134 629.671V615.745H463.239V629.671C463.239 630.768 463.023 631.731 462.591 632.559C462.177 633.404 461.602 634.052 460.864 634.502C460.126 634.969 459.272 635.203 458.3 635.203ZM479.739 635.932C478.318 635.932 477.032 635.671 475.88 635.149C474.729 634.628 473.82 633.899 473.155 632.963C472.489 632.028 472.156 630.957 472.156 629.752C472.156 629.374 472.183 628.879 472.237 628.268C472.309 627.638 472.39 626.945 472.48 626.19C472.588 625.416 472.705 624.642 472.831 623.869C472.957 623.077 473.074 622.33 473.182 621.629L475.26 621.953C475.062 623.194 474.882 624.345 474.72 625.407C474.576 626.45 474.459 627.35 474.369 628.106C474.297 628.843 474.261 629.392 474.261 629.752C474.261 630.58 474.486 631.308 474.936 631.938C475.404 632.586 476.051 633.089 476.879 633.449C477.706 633.827 478.66 634.016 479.739 634.016C480.819 634.016 481.746 633.845 482.519 633.503C483.293 633.161 483.887 632.685 484.3 632.073C484.714 631.461 484.921 630.741 484.921 629.914V609.889H487.026V629.914C487.026 631.173 486.693 632.253 486.028 633.152C485.38 634.052 484.507 634.736 483.41 635.203C482.312 635.689 481.089 635.932 479.739 635.932ZM501.735 629.239V627.323H504.649V629.239H501.735ZM495.339 635.203C494.709 635.203 494.034 635.149 493.315 635.041C492.613 634.951 491.839 634.817 490.994 634.637L491.317 632.936C492.271 633.062 493.063 633.152 493.692 633.206C494.34 633.26 494.889 633.287 495.339 633.287C496.832 633.287 497.92 632.999 498.604 632.424C499.288 631.866 499.63 631.047 499.63 629.968V616.96L500.709 617.662H496.148C495.105 617.662 494.295 617.787 493.719 618.039C493.162 618.291 492.775 618.768 492.559 619.47C492.343 620.153 492.235 621.161 492.235 622.492C492.235 623.824 492.343 624.84 492.559 625.542C492.775 626.226 493.162 626.693 493.719 626.945C494.295 627.197 495.105 627.323 496.148 627.323H499.63V629.239H496.148C494.583 629.239 493.36 629.005 492.478 628.537C491.614 628.052 491.003 627.314 490.643 626.324C490.301 625.317 490.13 624.04 490.13 622.492C490.13 620.945 490.301 619.677 490.643 618.687C491.003 617.68 491.614 616.942 492.478 616.474C493.36 615.988 494.583 615.745 496.148 615.745H501.735V629.941C501.735 631.056 501.474 632.01 500.952 632.801C500.448 633.593 499.72 634.187 498.766 634.583C497.812 634.996 496.67 635.203 495.339 635.203ZM504.649 629.239V627.323C504.757 627.323 504.847 627.35 504.919 627.404C504.991 627.44 505.045 627.503 505.081 627.593C505.117 627.665 505.144 627.764 505.162 627.89C505.18 627.998 505.189 628.124 505.189 628.268C505.189 628.412 505.18 628.546 505.162 628.672C505.144 628.798 505.117 628.906 505.081 628.996C505.045 629.068 504.991 629.131 504.919 629.185C504.847 629.221 504.757 629.239 504.649 629.239ZM510.023 629.239V627.323H512.938V629.239H510.023ZM504.653 629.239C504.545 629.239 504.455 629.221 504.383 629.185C504.311 629.131 504.257 629.068 504.221 628.996C504.185 628.906 504.158 628.798 504.14 628.672C504.122 628.546 504.113 628.412 504.113 628.268C504.113 628.07 504.131 627.908 504.167 627.782C504.185 627.638 504.239 627.53 504.329 627.458C504.401 627.368 504.509 627.323 504.653 627.323V629.239ZM507.918 629.239V609.889H510.023V629.239H507.918ZM504.653 629.239V627.323H507.918V629.239H504.653ZM512.938 629.239V627.323C513.046 627.323 513.136 627.35 513.208 627.404C513.28 627.44 513.334 627.503 513.37 627.593C513.406 627.665 513.433 627.764 513.451 627.89C513.469 627.998 513.478 628.124 513.478 628.268C513.478 628.412 513.469 628.546 513.451 628.672C513.433 628.798 513.406 628.906 513.37 628.996C513.334 629.068 513.28 629.131 513.208 629.185C513.136 629.221 513.046 629.239 512.938 629.239ZM512.928 629.239V627.323H524.829L524.182 627.89V621.197C524.182 620.027 523.813 619.155 523.075 618.579C522.356 617.985 521.249 617.689 519.756 617.689C519.288 617.689 518.613 617.734 517.732 617.823C516.85 617.895 515.924 618.003 514.952 618.147L514.709 616.42C515.447 616.24 516.256 616.087 517.138 615.961C518.02 615.817 518.874 615.745 519.702 615.745C521.069 615.745 522.239 615.961 523.21 616.393C524.2 616.807 524.955 617.419 525.477 618.228C526.017 619.038 526.287 620.027 526.287 621.197V629.239H512.928ZM512.928 629.239C512.82 629.239 512.73 629.221 512.658 629.185C512.586 629.131 512.532 629.068 512.496 628.996C512.46 628.906 512.433 628.798 512.415 628.672C512.397 628.546 512.388 628.412 512.388 628.268C512.388 628.07 512.406 627.908 512.442 627.782C512.46 627.638 512.514 627.53 512.604 627.458C512.676 627.368 512.784 627.323 512.928 627.323V629.239Z" fill="white"/>
<path d="M507.36 359.142V347.601H503.719V345.168H513.059V347.601H510.026V359.142H507.36ZM514.463 359.187V345.168H517.872L520.958 354.794L524.179 345.168H527.543V359.187H525.065V348.818L522.032 358.489H519.974L516.986 348.818V359.187H514.463Z" fill="white"/>
<path d="M452.494 346.581L527.399 429.395V470.967L434.817 521.021L447.797 477.713C448.826 474.278 451.134 471.379 454.238 469.599L486.149 451.331L418.418 375.03L446.259 346.465C447.985 344.703 450.839 344.747 452.494 346.581Z" fill="white"/>
<path d="M384.334 346.581L309.429 429.395V470.967L402.012 521.021L389.031 477.713C388.002 474.278 385.694 471.379 382.59 469.599L350.679 451.331L418.41 375.03L390.57 346.465C388.843 344.703 385.989 344.747 384.334 346.581Z" fill="white"/>
<path d="M418.418 375.03L446.259 346.465C446.259 346.465 449.336 343.092 452.494 346.581C455.643 350.07 527.399 429.395 527.399 429.395L486.149 451.331L418.418 375.03Z" fill="#EFEDF8"/>
<path d="M418.419 375.03L390.579 346.465C390.579 346.465 387.502 343.092 384.344 346.581C381.195 350.07 309.438 429.395 309.438 429.395L350.689 451.331L418.419 375.03Z" fill="#EFEDF8"/>
<path d="M350.688 451.331L309.438 470.976V429.395L350.688 451.331Z" fill="#EFEDF8"/>
<path d="M486.15 451.331L527.391 470.976V429.395L486.15 451.331Z" fill="#EFEDF8"/>
<defs>
<linearGradient id="paint0_linear_765_121" x1="576.5" y1="756.5" x2="-561.5" y2="-429" gradientUnits="userSpaceOnUse">
<stop stop-color="#7056CC"/>
<stop offset="1" stop-color="#8C6AF9"/>
</linearGradient>
<radialGradient id="paint1_radial_765_121" cx="0" cy="0" r="1" gradientUnits="userSpaceOnUse" gradientTransform="translate(168.5 1083.5) rotate(-87.4438) scale(504.502 632.466)">
<stop stop-color="#8C6AF9"/>
<stop offset="1" stop-color="#7056CC"/>
</radialGradient>
<radialGradient id="paint2_radial_765_121" cx="0" cy="0" r="1" gradientUnits="userSpaceOnUse" gradientTransform="translate(764.8 810.611) rotate(-86.25) scale(392.952 492.622)">
<stop stop-color="#8C6AF9"/>
<stop offset="1" stop-color="#7056CC"/>
</radialGradient>
</defs>
</svg>
