<svg width="349" height="179" viewBox="0 0 349 179" fill="none" xmlns="http://www.w3.org/2000/svg">
<rect width="349" height="179" rx="8" fill="#8C6AF9"/>
<path d="M81.0365 64.3267V67.346H75.07V81.1702H70.9665V67.346H65V64.3267H81.0385H81.0365Z" fill="white"/>
<path d="M96.0669 77.9841V81.1681H84.0757V64.3267H96.0568V67.346H88.1792V70.8011H95.6915V73.8204H88.1792V77.9841H96.0649H96.0669Z" fill="white"/>
<path d="M113.938 64.3267L107.59 72.0759L115.213 81.1481H110.084L103.206 73.0797V81.1722H99.1023V64.3307H103.206V71.7486L109.425 64.3307H113.94L113.938 64.3267Z" fill="white"/>
<path d="M133.675 64.3267V81.1681H130.208L121.113 70.247V81.1681H117.01V64.3267H120.774L129.571 74.3986V64.3267H133.675Z" fill="white"/>
<path d="M146.16 64.3267C148.966 64.3267 151.239 65.1738 152.975 66.8682C154.712 68.5626 155.581 70.5341 155.581 72.7825C155.581 75.031 154.7 77.0406 152.939 78.7149C151.179 80.3892 148.918 81.2264 146.158 81.2264C143.397 81.2264 141.095 80.3932 139.342 78.7269C137.589 77.0607 136.712 75.0792 136.712 72.7825C136.712 70.4859 137.583 68.5526 139.324 66.8622C141.064 65.1718 143.343 64.3267 146.158 64.3267H146.16ZM146.16 77.8075C147.716 77.8075 148.97 77.3457 149.922 76.4223C150.873 75.4988 151.349 74.2862 151.349 72.7845C151.349 71.2829 150.873 70.0603 149.922 69.1408C148.97 68.2213 147.716 67.7616 146.16 67.7616C144.604 67.7616 143.335 68.2213 142.379 69.1408C141.424 70.0603 140.946 71.2749 140.946 72.7845C140.946 74.2942 141.424 75.4988 142.379 76.4223C143.335 77.3457 144.594 77.8075 146.16 77.8075Z" fill="white"/>
<path d="M173.18 64.3267L165.565 81.1681H163.784L155.802 64.3267H160.273L164.634 73.7401L168.759 64.3267H173.18Z" fill="white"/>
<path d="M181.236 64.3267L188.901 81.1481H184.488L182.784 77.5465H175.406L174.176 81.1681H169.827L176.482 64.3267H181.238H181.236ZM181.583 74.6697L178.913 68.2655L176.494 74.6697H181.585H181.583Z" fill="white"/>
<path d="M60.278 106.674V102.831C60.278 101.807 60.4274 100.99 60.7262 100.382C61.0251 99.7734 61.4734 99.3358 62.0711 99.069C62.6795 98.8021 63.4266 98.6687 64.3125 98.6687C65.2091 98.6687 65.9563 98.8021 66.554 99.069C67.1517 99.3358 67.6 99.7734 67.8988 100.382C68.1977 100.99 68.3471 101.807 68.3471 102.831V106.674H60.278ZM61.5268 106.081L60.8703 105.537H67.7547L67.1143 106.081V102.831C67.1143 102.063 67.0289 101.46 66.8582 101.022C66.6874 100.574 66.3939 100.259 65.9776 100.078C65.572 99.8962 65.017 99.8054 64.3125 99.8054C63.6081 99.8054 63.0531 99.8962 62.6475 100.078C62.2419 100.259 61.9537 100.574 61.7829 101.022C61.6121 101.46 61.5268 102.063 61.5268 102.831V106.081ZM62.5994 97.2278V95.7869H63.8482V97.2278H62.5994ZM64.7928 97.2278V95.7869H66.0416V97.2278H64.7928ZM69.1314 110.212C68.9926 110.212 68.8485 110.201 68.6991 110.18C68.539 110.169 68.3842 110.159 68.2348 110.148L68.3789 109.011C68.5283 109.022 68.6671 109.033 68.7952 109.043C68.9232 109.065 69.0353 109.075 69.1314 109.075C69.633 109.075 70.0386 108.883 70.3481 108.499C70.6577 108.125 70.8124 107.602 70.8124 106.93V98.6687H72.0612V106.93C72.0612 107.581 71.9332 108.152 71.677 108.643C71.4315 109.145 71.09 109.529 70.6523 109.796C70.2147 110.073 69.7077 110.212 69.1314 110.212ZM80.7179 106.674V105.537H82.447V106.674H80.7179ZM76.9235 110.212C76.5499 110.212 76.1497 110.18 75.7227 110.116C75.3064 110.063 74.8475 109.983 74.3458 109.876L74.538 108.867C75.1037 108.942 75.5733 108.995 75.9469 109.027C76.3311 109.059 76.6566 109.075 76.9235 109.075C77.8094 109.075 78.4551 108.905 78.8607 108.563C79.2663 108.232 79.4691 107.747 79.4691 107.106V99.3892L80.1095 99.8054H77.4038C76.7847 99.8054 76.3044 99.8801 75.9629 100.03C75.632 100.179 75.4025 100.462 75.2744 100.878C75.1463 101.284 75.0823 101.881 75.0823 102.671C75.0823 103.461 75.1463 104.064 75.2744 104.48C75.4025 104.886 75.632 105.164 75.9629 105.313C76.3044 105.462 76.7847 105.537 77.4038 105.537H79.4691V106.674H77.4038C76.4752 106.674 75.7494 106.535 75.2264 106.258C74.7141 105.969 74.3512 105.532 74.1377 104.945C73.9349 104.347 73.8335 103.589 73.8335 102.671C73.8335 101.753 73.9349 101.001 74.1377 100.414C74.3512 99.8161 74.7141 99.3785 75.2264 99.101C75.7494 98.8128 76.4752 98.6687 77.4038 98.6687H80.7179V107.09C80.7179 107.752 80.5631 108.318 80.2536 108.787C79.9548 109.257 79.5225 109.609 78.9568 109.844C78.3911 110.089 77.7133 110.212 76.9235 110.212ZM82.447 106.674V105.537C82.5111 105.537 82.5644 105.553 82.6071 105.585C82.6498 105.606 82.6818 105.644 82.7032 105.697C82.7245 105.74 82.7405 105.799 82.7512 105.873C82.7619 105.937 82.7672 106.012 82.7672 106.097C82.7672 106.183 82.7619 106.263 82.7512 106.338C82.7405 106.412 82.7245 106.476 82.7032 106.53C82.6818 106.572 82.6498 106.61 82.6071 106.642C82.5644 106.663 82.5111 106.674 82.447 106.674ZM92.7116 106.674V105.537H94.4407V106.674H92.7116ZM82.449 106.674V105.537H93.0638L91.9111 106.578V102.815C91.9111 102.143 91.815 101.588 91.6229 101.15C91.4414 100.702 91.1639 100.366 90.7904 100.142C90.4275 99.9175 89.9685 99.8054 89.4135 99.8054C88.9438 99.8054 88.5062 99.8855 88.1006 100.046C87.7057 100.195 87.3375 100.398 86.9959 100.654C86.6544 100.899 86.3342 101.177 86.0353 101.487C85.7471 101.785 85.4803 102.09 85.2348 102.399C84.9893 102.709 84.7652 102.991 84.5624 103.248L84.1461 102.111C84.477 101.695 84.8132 101.284 85.1548 100.878C85.4963 100.473 85.8699 100.104 86.2755 99.7734C86.6811 99.4425 87.14 99.1757 87.6524 98.9729C88.1647 98.7701 88.7517 98.6687 89.4135 98.6687C90.1713 98.6687 90.7904 98.7968 91.2707 99.0529C91.7616 99.3091 92.1406 99.6507 92.4074 100.078C92.6849 100.494 92.877 100.942 92.9838 101.422C93.0905 101.903 93.1439 102.367 93.1439 102.815V106.674H82.449ZM83.5057 105.537V95.1945H84.7545V105.537H83.5057ZM82.449 106.674C82.385 106.674 82.3316 106.663 82.2889 106.642C82.2462 106.61 82.2142 106.572 82.1929 106.53C82.1715 106.476 82.1555 106.412 82.1448 106.338C82.1342 106.263 82.1288 106.183 82.1288 106.097C82.1288 105.98 82.1395 105.884 82.1608 105.809C82.1715 105.724 82.2035 105.66 82.2569 105.617C82.2996 105.564 82.3636 105.537 82.449 105.537V106.674ZM94.4407 106.674V105.537C94.5047 105.537 94.5581 105.553 94.6008 105.585C94.6435 105.606 94.6755 105.644 94.6969 105.697C94.7182 105.74 94.7342 105.799 94.7449 105.873C94.7556 105.937 94.7609 106.012 94.7609 106.097C94.7609 106.183 94.7556 106.263 94.7449 106.338C94.7342 106.412 94.7182 106.476 94.6969 106.53C94.6755 106.572 94.6435 106.61 94.6008 106.642C94.5581 106.663 94.5047 106.674 94.4407 106.674ZM97.419 106.674V105.537H99.1481V106.674H97.419ZM99.1481 106.674V105.537C99.2121 105.537 99.2655 105.553 99.3082 105.585C99.3509 105.606 99.3829 105.644 99.4042 105.697C99.4256 105.74 99.4416 105.799 99.4523 105.873C99.463 105.937 99.4683 106.012 99.4683 106.097C99.4683 106.183 99.463 106.263 99.4523 106.338C99.4416 106.412 99.4256 106.476 99.4042 106.53C99.3829 106.572 99.3509 106.61 99.3082 106.642C99.2655 106.663 99.2121 106.674 99.1481 106.674ZM94.4411 106.674C94.377 106.674 94.3237 106.663 94.281 106.642C94.2383 106.61 94.2063 106.572 94.1849 106.53C94.1636 106.476 94.1475 106.412 94.1369 106.338C94.1262 106.263 94.1209 106.183 94.1209 106.097C94.1209 105.98 94.1315 105.884 94.1529 105.809C94.1636 105.724 94.1956 105.66 94.2489 105.617C94.2916 105.564 94.3557 105.537 94.4411 105.537V106.674ZM94.4411 106.674V105.537H96.7465L96.1702 106.001V98.6687H97.419V106.674H94.4411ZM95.0815 97.2278V95.7869H96.3303V97.2278H95.0815ZM97.2749 97.2278V95.7869H98.5237V97.2278H97.2749ZM99.1472 106.674V105.537H107.905L106.976 106.194V102.751C106.976 102.004 106.891 101.417 106.72 100.99C106.549 100.563 106.256 100.259 105.839 100.078C105.434 99.8962 104.879 99.8054 104.174 99.8054C103.726 99.8054 103.278 99.8375 102.83 99.9015C102.392 99.9655 102.05 100.051 101.805 100.158L102.557 99.3892C102.493 99.6453 102.429 99.9709 102.365 100.366C102.301 100.75 102.248 101.166 102.205 101.615C102.162 102.063 102.141 102.511 102.141 102.959C102.141 103.418 102.162 103.867 102.205 104.304C102.248 104.742 102.296 105.121 102.349 105.441C102.403 105.761 102.445 105.985 102.477 106.113L101.293 106.45C101.25 106.311 101.197 106.071 101.132 105.729C101.079 105.388 101.026 104.977 100.972 104.496C100.93 104.016 100.908 103.504 100.908 102.959C100.908 102.436 100.93 101.929 100.972 101.438C101.026 100.937 101.084 100.483 101.148 100.078C101.223 99.672 101.293 99.3465 101.357 99.101C101.591 99.0049 101.965 98.9089 102.477 98.8128C102.99 98.7167 103.555 98.6687 104.174 98.6687C105.071 98.6687 105.818 98.8021 106.416 99.069C107.024 99.3358 107.478 99.7681 107.777 100.366C108.076 100.953 108.225 101.748 108.225 102.751V106.674H99.1472ZM99.1472 106.674C99.0832 106.674 99.0298 106.663 98.9871 106.642C98.9444 106.61 98.9124 106.572 98.891 106.53C98.8697 106.476 98.8537 106.412 98.843 106.338C98.8323 106.263 98.827 106.183 98.827 106.097C98.827 105.98 98.8377 105.884 98.859 105.809C98.8697 105.724 98.9017 105.66 98.9551 105.617C98.9978 105.564 99.0618 105.537 99.1472 105.537V106.674ZM117.148 106.674C116.219 106.674 115.494 106.535 114.971 106.258C114.458 105.969 114.095 105.532 113.882 104.945C113.679 104.347 113.578 103.589 113.578 102.671C113.578 101.753 113.679 101.001 113.882 100.414C114.095 99.8161 114.458 99.3785 114.971 99.101C115.494 98.8128 116.219 98.6687 117.148 98.6687H120.462V106.033H119.213V99.2611L119.854 99.8054H117.148C116.529 99.8054 116.049 99.8801 115.707 100.03C115.376 100.179 115.147 100.462 115.019 100.878C114.891 101.284 114.826 101.881 114.826 102.671C114.826 103.461 114.891 104.064 115.019 104.48C115.147 104.886 115.376 105.164 115.707 105.313C116.049 105.462 116.529 105.537 117.148 105.537H122.191V106.674H117.148ZM122.191 106.674V105.537C122.255 105.537 122.309 105.553 122.351 105.585C122.394 105.606 122.426 105.644 122.447 105.697C122.469 105.74 122.485 105.799 122.495 105.873C122.506 105.937 122.511 106.012 122.511 106.097C122.511 106.183 122.506 106.263 122.495 106.338C122.485 106.412 122.469 106.476 122.447 106.53C122.426 106.572 122.394 106.61 122.351 106.642C122.309 106.663 122.255 106.674 122.191 106.674ZM115.595 97.2278V95.7869H116.844V97.2278H115.595ZM117.788 97.2278V95.7869H119.037V97.2278H117.788ZM125.171 106.674V105.537H126.9V106.674H125.171ZM126.9 106.674V105.537C126.964 105.537 127.018 105.553 127.06 105.585C127.103 105.606 127.135 105.644 127.156 105.697C127.178 105.74 127.194 105.799 127.204 105.873C127.215 105.937 127.22 106.012 127.22 106.097C127.22 106.183 127.215 106.263 127.204 106.338C127.194 106.412 127.178 106.476 127.156 106.53C127.135 106.572 127.103 106.61 127.06 106.642C127.018 106.663 126.964 106.674 126.9 106.674ZM122.193 106.674C122.129 106.674 122.076 106.663 122.033 106.642C121.99 106.61 121.958 106.572 121.937 106.53C121.916 106.476 121.9 106.412 121.889 106.338C121.878 106.263 121.873 106.183 121.873 106.097C121.873 105.98 121.884 105.884 121.905 105.809C121.916 105.724 121.948 105.66 122.001 105.617C122.044 105.564 122.108 105.537 122.193 105.537V106.674ZM122.193 106.674V105.537H124.499L123.922 106.001V98.6687H125.171V106.674H122.193ZM122.834 109.556V108.115H124.082V109.556H122.834ZM125.027 109.556V108.115H126.276V109.556H125.027ZM135.977 106.674V105.537H137.706V106.674H135.977ZM126.899 106.674C126.835 106.674 126.782 106.663 126.739 106.642C126.697 106.61 126.665 106.572 126.643 106.53C126.622 106.476 126.606 106.412 126.595 106.338C126.584 106.263 126.579 106.183 126.579 106.097C126.579 105.98 126.59 105.884 126.611 105.809C126.622 105.724 126.654 105.66 126.707 105.617C126.75 105.564 126.814 105.537 126.899 105.537V106.674ZM126.899 106.674V105.537H135.657L134.728 106.194V102.751C134.728 102.004 134.643 101.417 134.472 100.99C134.301 100.563 134.008 100.259 133.592 100.078C133.186 99.8962 132.631 99.8054 131.927 99.8054C131.478 99.8054 131.03 99.8375 130.582 99.9015C130.144 99.9655 129.803 100.051 129.557 100.158L130.31 99.3892C130.245 99.6453 130.181 99.9709 130.117 100.366C130.053 100.75 130 101.166 129.957 101.615C129.915 102.063 129.893 102.511 129.893 102.959C129.893 103.418 129.915 103.867 129.957 104.304C130 104.742 130.048 105.121 130.101 105.441C130.155 105.761 130.197 105.985 130.229 106.113L129.045 106.45C129.002 106.311 128.949 106.071 128.885 105.729C128.831 105.388 128.778 104.977 128.725 104.496C128.682 104.016 128.66 103.504 128.66 102.959C128.66 102.436 128.682 101.929 128.725 101.438C128.778 100.937 128.837 100.483 128.901 100.078C128.975 99.672 129.045 99.3465 129.109 99.101C129.344 99.0049 129.717 98.9089 130.229 98.8128C130.742 98.7167 131.308 98.6687 131.927 98.6687C132.823 98.6687 133.57 98.8021 134.168 99.069C134.776 99.3358 135.23 99.7681 135.529 100.366C135.828 100.953 135.977 101.748 135.977 102.751V106.674H126.899ZM137.706 106.674V105.537C137.77 105.537 137.824 105.553 137.866 105.585C137.909 105.606 137.941 105.644 137.962 105.697C137.984 105.74 138 105.799 138.01 105.873C138.021 105.937 138.026 106.012 138.026 106.097C138.026 106.183 138.021 106.263 138.01 106.338C138 106.412 137.984 106.476 137.962 106.53C137.941 106.572 137.909 106.61 137.866 106.642C137.824 106.663 137.77 106.674 137.706 106.674ZM137.703 106.674V105.537H145.788L144.956 106.258V99.2611L145.612 99.8054H142.89C142.271 99.8054 141.791 99.8801 141.45 100.03C141.119 100.179 140.889 100.462 140.761 100.878C140.633 101.284 140.569 101.881 140.569 102.671C140.569 103.461 140.633 104.064 140.761 104.48C140.889 104.886 141.119 105.164 141.45 105.313C141.791 105.462 142.271 105.537 142.89 105.537V106.354C141.962 106.354 141.236 106.242 140.713 106.017C140.201 105.783 139.838 105.398 139.624 104.865C139.422 104.32 139.32 103.589 139.32 102.671C139.32 101.753 139.422 101.001 139.624 100.414C139.838 99.8161 140.201 99.3785 140.713 99.101C141.236 98.8128 141.962 98.6687 142.89 98.6687H146.205V106.674H137.703ZM137.703 106.674C137.639 106.674 137.586 106.663 137.543 106.642C137.5 106.61 137.468 106.572 137.447 106.53C137.426 106.476 137.41 106.412 137.399 106.338C137.388 106.263 137.383 106.183 137.383 106.097C137.383 105.98 137.394 105.884 137.415 105.809C137.426 105.724 137.458 105.66 137.511 105.617C137.554 105.564 137.618 105.537 137.703 105.537V106.674ZM141.418 97.2278V95.7869H142.666V97.2278H141.418ZM143.611 97.2278V95.7869H144.86V97.2278H143.611ZM147.572 110.212C147.433 110.212 147.289 110.201 147.14 110.18C146.98 110.169 146.825 110.159 146.676 110.148L146.82 109.011C146.969 109.022 147.108 109.033 147.236 109.043C147.364 109.065 147.476 109.075 147.572 109.075C148.074 109.075 148.479 108.883 148.789 108.499C149.099 108.125 149.253 107.602 149.253 106.93V98.6687H150.502V106.93C150.502 107.581 150.374 108.152 150.118 108.643C149.872 109.145 149.531 109.529 149.093 109.796C148.656 110.073 148.149 110.212 147.572 110.212ZM160.291 110.644C159.448 110.644 158.685 110.49 158.002 110.18C157.319 109.871 156.78 109.438 156.385 108.883C155.99 108.328 155.792 107.693 155.792 106.978C155.792 106.754 155.808 106.46 155.84 106.097C155.883 105.724 155.931 105.313 155.984 104.865C156.048 104.406 156.118 103.947 156.192 103.488C156.267 103.018 156.337 102.575 156.401 102.159L157.633 102.351C157.516 103.088 157.409 103.771 157.313 104.4C157.228 105.019 157.158 105.553 157.105 106.001C157.062 106.439 157.041 106.765 157.041 106.978C157.041 107.469 157.174 107.901 157.441 108.275C157.719 108.659 158.103 108.958 158.594 109.171C159.085 109.396 159.651 109.508 160.291 109.508C160.932 109.508 161.481 109.406 161.94 109.203C162.399 109.001 162.751 108.718 162.997 108.355C163.242 107.992 163.365 107.565 163.365 107.074V95.1945H164.614V107.074C164.614 107.821 164.416 108.462 164.021 108.995C163.637 109.529 163.12 109.935 162.468 110.212C161.817 110.5 161.092 110.644 160.291 110.644ZM173.34 106.674V105.537H175.069V106.674H173.34ZM169.545 110.212C169.172 110.212 168.771 110.18 168.344 110.116C167.928 110.063 167.469 109.983 166.968 109.876L167.16 108.867C167.725 108.942 168.195 108.995 168.569 109.027C168.953 109.059 169.278 109.075 169.545 109.075C170.431 109.075 171.077 108.905 171.483 108.563C171.888 108.232 172.091 107.747 172.091 107.106V99.3892L172.731 99.8054H170.026C169.407 99.8054 168.926 99.8801 168.585 100.03C168.254 100.179 168.024 100.462 167.896 100.878C167.768 101.284 167.704 101.881 167.704 102.671C167.704 103.461 167.768 104.064 167.896 104.48C168.024 104.886 168.254 105.164 168.585 105.313C168.926 105.462 169.407 105.537 170.026 105.537H172.091V106.674H170.026C169.097 106.674 168.371 106.535 167.848 106.258C167.336 105.969 166.973 105.532 166.759 104.945C166.557 104.347 166.455 103.589 166.455 102.671C166.455 101.753 166.557 101.001 166.759 100.414C166.973 99.8161 167.336 99.3785 167.848 99.101C168.371 98.8128 169.097 98.6687 170.026 98.6687H173.34V107.09C173.34 107.752 173.185 108.318 172.875 108.787C172.577 109.257 172.144 109.609 171.579 109.844C171.013 110.089 170.335 110.212 169.545 110.212ZM175.069 106.674V105.537C175.133 105.537 175.186 105.553 175.229 105.585C175.272 105.606 175.304 105.644 175.325 105.697C175.346 105.74 175.362 105.799 175.373 105.873C175.384 105.937 175.389 106.012 175.389 106.097C175.389 106.183 175.384 106.263 175.373 106.338C175.362 106.412 175.346 106.476 175.325 106.53C175.304 106.572 175.272 106.61 175.229 106.642C175.186 106.663 175.133 106.674 175.069 106.674ZM178.257 106.674V105.537H179.986V106.674H178.257ZM175.071 106.674C175.007 106.674 174.953 106.663 174.911 106.642C174.868 106.61 174.836 106.572 174.815 106.53C174.793 106.476 174.777 106.412 174.767 106.338C174.756 106.263 174.751 106.183 174.751 106.097C174.751 105.98 174.761 105.884 174.783 105.809C174.793 105.724 174.825 105.66 174.879 105.617C174.921 105.564 174.985 105.537 175.071 105.537V106.674ZM177.008 106.674V95.1945H178.257V106.674H177.008ZM175.071 106.674V105.537H177.008V106.674H175.071ZM179.986 106.674V105.537C180.05 105.537 180.103 105.553 180.146 105.585C180.189 105.606 180.221 105.644 180.242 105.697C180.263 105.74 180.279 105.799 180.29 105.873C180.301 105.937 180.306 106.012 180.306 106.097C180.306 106.183 180.301 106.263 180.29 106.338C180.279 106.412 180.263 106.476 180.242 106.53C180.221 106.572 180.189 106.61 180.146 106.642C180.103 106.663 180.05 106.674 179.986 106.674ZM179.98 106.674V105.537H187.041L186.656 105.873V101.903C186.656 101.209 186.438 100.691 186 100.35C185.573 99.9976 184.917 99.8214 184.031 99.8214C183.753 99.8214 183.353 99.8481 182.83 99.9015C182.307 99.9442 181.757 100.008 181.181 100.094L181.037 99.069C181.474 98.9622 181.955 98.8715 182.478 98.7968C183.001 98.7114 183.508 98.6687 183.999 98.6687C184.81 98.6687 185.504 98.7968 186.08 99.0529C186.667 99.2984 187.115 99.6613 187.425 100.142C187.745 100.622 187.905 101.209 187.905 101.903V106.674H179.98ZM179.98 106.674C179.916 106.674 179.863 106.663 179.82 106.642C179.777 106.61 179.745 106.572 179.724 106.53C179.703 106.476 179.687 106.412 179.676 106.338C179.665 106.263 179.66 106.183 179.66 106.097C179.66 105.98 179.671 105.884 179.692 105.809C179.703 105.724 179.735 105.66 179.788 105.617C179.831 105.564 179.895 105.537 179.98 105.537V106.674Z" fill="white"/>
<path d="M282.868 63.1418V58.9458H281.544V58.061H284.94V58.9458H283.837V63.1418H282.868ZM285.451 63.1581V58.061H286.69L287.812 61.561L288.983 58.061H290.206V63.1581H289.305V59.3882L288.203 62.9044H287.455L286.368 59.3882V63.1581H285.451Z" fill="white"/>
<path d="M262.919 58.5747L290.154 88.6853V103.801L256.492 122L261.211 106.253C261.585 105.004 262.425 103.95 263.553 103.303L275.156 96.661L250.529 68.9184L260.652 58.5324C261.28 57.8917 262.317 57.9079 262.919 58.5747Z" fill="white"/>
<path d="M238.136 58.5747L210.901 88.6853V103.801L244.564 122L239.844 106.253C239.47 105.004 238.631 103.95 237.502 103.303L225.899 96.661L250.526 68.9184L240.403 58.5324C239.776 57.8917 238.738 57.9079 238.136 58.5747Z" fill="white"/>
<path d="M250.529 68.9187L260.652 58.5327C260.652 58.5327 261.771 57.3064 262.919 58.575C264.064 59.8436 290.154 88.6855 290.154 88.6855L275.156 96.6613L250.529 68.9187Z" fill="#EFEDF8"/>
<path d="M250.53 68.9187L240.408 58.5327C240.408 58.5327 239.289 57.3064 238.14 58.575C236.995 59.8436 210.905 88.6855 210.905 88.6855L225.904 96.6613L250.53 68.9187Z" fill="#EFEDF8"/>
<path d="M225.903 96.6613L210.905 103.804V88.6855L225.903 96.6613Z" fill="#EFEDF8"/>
<path d="M275.156 96.6613L290.151 103.804V88.6855L275.156 96.6613Z" fill="#EFEDF8"/>
</svg>
