<svg width="1190" height="1508" viewBox="0 0 1190 1508" fill="none" xmlns="http://www.w3.org/2000/svg">
<circle cx="595" cy="595" r="595" fill="url(#paint0_linear_2027_1732)"/>
<circle cx="367.5" cy="1193.5" r="314.5" fill="url(#paint1_radial_2027_1732)"/>
<circle cx="956" cy="955" r="203" fill="url(#paint2_radial_2027_1732)"/>
<path d="M518.055 765.256V770.345H507.997V793.648H501.08V770.345H491.023V765.256H518.058H518.055Z" fill="#EFEDF8"/>
<path d="M543.391 788.277V793.644H523.178V765.256H543.374V770.345H530.095V776.169H542.758V781.259H530.095V788.277H543.387H543.391Z" fill="#EFEDF8"/>
<path d="M573.515 765.256L562.815 778.318L575.664 793.611H567.018L555.425 780.01V793.651H548.508V765.263H555.425V777.767L565.908 765.263H573.519L573.515 765.256Z" fill="#EFEDF8"/>
<path d="M606.783 765.256V793.644H600.939L585.61 775.235V793.644H578.693V765.256H585.038L599.866 782.233V765.256H606.783Z" fill="#EFEDF8"/>
<path d="M627.829 765.256C632.56 765.256 636.39 766.684 639.317 769.54C642.245 772.396 643.71 775.719 643.71 779.509C643.71 783.299 642.224 786.687 639.257 789.509C636.289 792.331 632.478 793.743 627.825 793.743C623.172 793.743 619.291 792.338 616.337 789.529C613.382 786.721 611.904 783.381 611.904 779.509C611.904 775.638 613.372 772.379 616.306 769.53C619.24 766.681 623.081 765.256 627.825 765.256H627.829ZM627.829 787.98C630.451 787.98 632.566 787.201 634.17 785.645C635.774 784.088 636.576 782.044 636.576 779.513C636.576 776.981 635.774 774.921 634.17 773.371C632.566 771.821 630.451 771.046 627.829 771.046C625.206 771.046 623.067 771.821 621.457 773.371C619.846 774.921 619.04 776.968 619.04 779.513C619.04 782.058 619.846 784.088 621.457 785.645C623.067 787.201 625.189 787.98 627.829 787.98Z" fill="#EFEDF8"/>
<path d="M673.374 765.256L660.539 793.644H657.537L644.082 765.256H651.618L658.969 781.124L665.923 765.256H673.374Z" fill="#EFEDF8"/>
<path d="M686.955 765.256L699.875 793.611H692.437L689.564 787.54H677.127L675.053 793.644H667.723L678.941 765.256H686.958H686.955ZM687.54 782.69L683.039 771.895L678.961 782.69H687.543H687.54Z" fill="#EFEDF8"/>
<path d="M488.154 836.239V829.762C488.154 828.035 488.406 826.659 488.91 825.633C489.414 824.608 490.169 823.87 491.177 823.42C492.202 822.97 493.462 822.746 494.955 822.746C496.466 822.746 497.726 822.97 498.733 823.42C499.741 823.87 500.496 824.608 501 825.633C501.504 826.659 501.756 828.035 501.756 829.762V836.239H488.154ZM490.259 835.241L489.153 834.323H500.757L499.678 835.241V829.762C499.678 828.467 499.534 827.45 499.246 826.713C498.958 825.957 498.463 825.426 497.762 825.12C497.078 824.815 496.142 824.662 494.955 824.662C493.768 824.662 492.832 824.815 492.148 825.12C491.465 825.426 490.979 825.957 490.691 826.713C490.403 827.45 490.259 828.467 490.259 829.762V835.241ZM492.067 820.317V817.888H494.172V820.317H492.067ZM495.765 820.317V817.888H497.87V820.317H495.765ZM503.078 842.203C502.844 842.203 502.601 842.185 502.349 842.149C502.079 842.132 501.818 842.114 501.566 842.096L501.809 840.179C502.061 840.197 502.295 840.215 502.511 840.233C502.727 840.269 502.916 840.287 503.078 840.287C503.923 840.287 504.607 839.964 505.129 839.316C505.651 838.686 505.911 837.805 505.911 836.671V822.746H508.016V836.671C508.016 837.769 507.801 838.731 507.369 839.559C506.955 840.404 506.379 841.052 505.642 841.502C504.904 841.97 504.049 842.203 503.078 842.203ZM522.608 836.239V834.323H525.523V836.239H522.608ZM516.212 842.203C515.583 842.203 514.908 842.149 514.188 842.042C513.487 841.952 512.713 841.817 511.867 841.637L512.191 839.937C513.145 840.062 513.936 840.152 514.566 840.206C515.214 840.26 515.763 840.287 516.212 840.287C517.706 840.287 518.794 839.999 519.478 839.424C520.162 838.866 520.503 838.047 520.503 836.968V823.96L521.583 824.662H517.022C515.979 824.662 515.169 824.788 514.593 825.039C514.035 825.291 513.649 825.768 513.433 826.47C513.217 827.154 513.109 828.161 513.109 829.492C513.109 830.824 513.217 831.84 513.433 832.542C513.649 833.226 514.035 833.693 514.593 833.945C515.169 834.197 515.979 834.323 517.022 834.323H520.503V836.239H517.022C515.457 836.239 514.233 836.005 513.352 835.538C512.488 835.052 511.876 834.314 511.517 833.325C511.175 832.317 511.004 831.04 511.004 829.492C511.004 827.945 511.175 826.677 511.517 825.687C511.876 824.68 512.488 823.942 513.352 823.474C514.233 822.988 515.457 822.746 517.022 822.746H522.608V836.941C522.608 838.056 522.348 839.01 521.826 839.802C521.322 840.593 520.593 841.187 519.64 841.583C518.686 841.997 517.544 842.203 516.212 842.203ZM525.523 836.239V834.323C525.631 834.323 525.721 834.35 525.793 834.404C525.865 834.44 525.919 834.503 525.955 834.593C525.991 834.665 526.018 834.764 526.036 834.89C526.054 834.998 526.063 835.124 526.063 835.268C526.063 835.412 526.054 835.547 526.036 835.673C526.018 835.798 525.991 835.906 525.955 835.996C525.919 836.068 525.865 836.131 525.793 836.185C525.721 836.221 525.631 836.239 525.523 836.239ZM542.825 836.239V834.323H545.74V836.239H542.825ZM525.526 836.239V834.323H543.419L541.476 836.077V829.735C541.476 828.602 541.314 827.666 540.99 826.929C540.684 826.173 540.217 825.606 539.587 825.228C538.975 824.851 538.201 824.662 537.266 824.662C536.474 824.662 535.737 824.797 535.053 825.066C534.387 825.318 533.767 825.66 533.191 826.092C532.615 826.506 532.075 826.974 531.572 827.495C531.086 827.999 530.636 828.512 530.222 829.034C529.808 829.555 529.431 830.032 529.089 830.464L528.387 828.548C528.945 827.846 529.512 827.154 530.087 826.47C530.663 825.786 531.293 825.165 531.976 824.608C532.66 824.05 533.434 823.6 534.297 823.258C535.161 822.916 536.15 822.746 537.266 822.746C538.543 822.746 539.587 822.961 540.396 823.393C541.224 823.825 541.863 824.401 542.313 825.12C542.78 825.822 543.104 826.578 543.284 827.387C543.464 828.197 543.554 828.98 543.554 829.735V836.239H525.526ZM527.308 834.323V816.889H529.413V834.323H527.308ZM525.526 836.239C525.418 836.239 525.329 836.221 525.257 836.185C525.185 836.131 525.131 836.068 525.095 835.996C525.059 835.906 525.032 835.798 525.014 835.673C524.996 835.547 524.987 835.412 524.987 835.268C524.987 835.07 525.005 834.908 525.041 834.782C525.059 834.638 525.113 834.53 525.203 834.458C525.275 834.368 525.382 834.323 525.526 834.323V836.239ZM545.74 836.239V834.323C545.848 834.323 545.938 834.35 546.01 834.404C546.082 834.44 546.136 834.503 546.172 834.593C546.208 834.665 546.235 834.764 546.253 834.89C546.271 834.998 546.28 835.124 546.28 835.268C546.28 835.412 546.271 835.547 546.253 835.673C546.235 835.798 546.208 835.906 546.172 835.996C546.136 836.068 546.082 836.131 546.01 836.185C545.938 836.221 545.848 836.239 545.74 836.239ZM550.76 836.239V834.323H553.675V836.239H550.76ZM553.675 836.239V834.323C553.783 834.323 553.873 834.35 553.945 834.404C554.017 834.44 554.071 834.503 554.107 834.593C554.143 834.665 554.17 834.764 554.188 834.89C554.206 834.998 554.215 835.124 554.215 835.268C554.215 835.412 554.206 835.547 554.188 835.673C554.17 835.798 554.143 835.906 554.107 835.996C554.071 836.068 554.017 836.131 553.945 836.185C553.873 836.221 553.783 836.239 553.675 836.239ZM545.741 836.239C545.633 836.239 545.543 836.221 545.471 836.185C545.399 836.131 545.345 836.068 545.309 835.996C545.273 835.906 545.246 835.798 545.228 835.673C545.21 835.547 545.201 835.412 545.201 835.268C545.201 835.07 545.219 834.908 545.255 834.782C545.273 834.638 545.327 834.53 545.417 834.458C545.489 834.368 545.597 834.323 545.741 834.323V836.239ZM545.741 836.239V834.323H549.627L548.655 835.106V822.746H550.76V836.239H545.741ZM546.82 820.317V817.888H548.925V820.317H546.82ZM550.517 820.317V817.888H552.622V820.317H550.517ZM553.673 836.239V834.323H568.436L566.87 835.43V829.627C566.87 828.368 566.726 827.378 566.438 826.659C566.151 825.939 565.656 825.426 564.954 825.12C564.27 824.815 563.335 824.662 562.147 824.662C561.392 824.662 560.636 824.716 559.881 824.824C559.143 824.932 558.567 825.075 558.153 825.255L559.422 823.96C559.314 824.392 559.206 824.941 559.098 825.606C558.99 826.254 558.9 826.956 558.828 827.711C558.756 828.467 558.72 829.223 558.72 829.978C558.72 830.752 558.756 831.507 558.828 832.245C558.9 832.983 558.981 833.621 559.071 834.161C559.161 834.701 559.233 835.079 559.287 835.295L557.29 835.861C557.218 835.628 557.128 835.223 557.02 834.647C556.93 834.071 556.84 833.379 556.75 832.569C556.678 831.759 556.642 830.896 556.642 829.978C556.642 829.097 556.678 828.242 556.75 827.414C556.84 826.569 556.939 825.804 557.047 825.12C557.173 824.437 557.29 823.888 557.398 823.474C557.793 823.312 558.423 823.15 559.287 822.988C560.15 822.827 561.104 822.746 562.147 822.746C563.659 822.746 564.918 822.97 565.926 823.42C566.951 823.87 567.716 824.599 568.22 825.606C568.723 826.596 568.975 827.936 568.975 829.627V836.239H553.673ZM553.673 836.239C553.565 836.239 553.476 836.221 553.404 836.185C553.332 836.131 553.278 836.068 553.242 835.996C553.206 835.906 553.179 835.798 553.161 835.673C553.143 835.547 553.134 835.412 553.134 835.268C553.134 835.07 553.152 834.908 553.188 834.782C553.206 834.638 553.26 834.53 553.35 834.458C553.422 834.368 553.529 834.323 553.673 834.323V836.239ZM584.016 836.239C582.451 836.239 581.227 836.005 580.346 835.538C579.482 835.052 578.87 834.314 578.511 833.325C578.169 832.317 577.998 831.04 577.998 829.492C577.998 827.945 578.169 826.677 578.511 825.687C578.87 824.68 579.482 823.942 580.346 823.474C581.227 822.988 582.451 822.746 584.016 822.746H589.602V835.16H587.497V823.744L588.577 824.662H584.016C582.973 824.662 582.163 824.788 581.587 825.039C581.029 825.291 580.643 825.768 580.427 826.47C580.211 827.154 580.103 828.161 580.103 829.492C580.103 830.824 580.211 831.84 580.427 832.542C580.643 833.226 581.029 833.693 581.587 833.945C582.163 834.197 582.973 834.323 584.016 834.323H592.517V836.239H584.016ZM592.517 836.239V834.323C592.625 834.323 592.715 834.35 592.787 834.404C592.859 834.44 592.913 834.503 592.949 834.593C592.985 834.665 593.012 834.764 593.03 834.89C593.048 834.998 593.057 835.124 593.057 835.268C593.057 835.412 593.048 835.547 593.03 835.673C593.012 835.798 592.985 835.906 592.949 835.996C592.913 836.068 592.859 836.131 592.787 836.185C592.715 836.221 592.625 836.239 592.517 836.239ZM581.398 820.317V817.888H583.503V820.317H581.398ZM585.096 820.317V817.888H587.201V820.317H585.096ZM597.54 836.239V834.323H600.455V836.239H597.54ZM600.455 836.239V834.323C600.563 834.323 600.653 834.35 600.725 834.404C600.797 834.44 600.851 834.503 600.887 834.593C600.923 834.665 600.95 834.764 600.968 834.89C600.986 834.998 600.995 835.124 600.995 835.268C600.995 835.412 600.986 835.547 600.968 835.673C600.95 835.798 600.923 835.906 600.887 835.996C600.851 836.068 600.797 836.131 600.725 836.185C600.653 836.221 600.563 836.239 600.455 836.239ZM592.52 836.239C592.413 836.239 592.323 836.221 592.251 836.185C592.179 836.131 592.125 836.068 592.089 835.996C592.053 835.906 592.026 835.798 592.008 835.673C591.99 835.547 591.981 835.412 591.981 835.268C591.981 835.07 591.999 834.908 592.035 834.782C592.053 834.638 592.107 834.53 592.197 834.458C592.269 834.368 592.377 834.323 592.52 834.323V836.239ZM592.52 836.239V834.323H596.407L595.435 835.106V822.746H597.54V836.239H592.52ZM593.6 841.097V838.668H595.705V841.097H593.6ZM597.297 841.097V838.668H599.402V841.097H597.297ZM615.755 836.239V834.323H618.67V836.239H615.755ZM600.453 836.239C600.345 836.239 600.255 836.221 600.183 836.185C600.111 836.131 600.057 836.068 600.021 835.996C599.986 835.906 599.959 835.798 599.941 835.673C599.923 835.547 599.914 835.412 599.914 835.268C599.914 835.07 599.932 834.908 599.968 834.782C599.986 834.638 600.039 834.53 600.129 834.458C600.201 834.368 600.309 834.323 600.453 834.323V836.239ZM600.453 836.239V834.323H615.215L613.65 835.43V829.627C613.65 828.368 613.506 827.378 613.218 826.659C612.93 825.939 612.436 825.426 611.734 825.12C611.05 824.815 610.115 824.662 608.927 824.662C608.172 824.662 607.416 824.716 606.66 824.824C605.923 824.932 605.347 825.075 604.933 825.255L606.202 823.96C606.094 824.392 605.986 824.941 605.878 825.606C605.77 826.254 605.68 826.956 605.608 827.711C605.536 828.467 605.5 829.223 605.5 829.978C605.5 830.752 605.536 831.507 605.608 832.245C605.68 832.983 605.761 833.621 605.851 834.161C605.941 834.701 606.013 835.079 606.067 835.295L604.07 835.861C603.998 835.628 603.908 835.223 603.8 834.647C603.71 834.071 603.62 833.379 603.53 832.569C603.458 831.759 603.422 830.896 603.422 829.978C603.422 829.097 603.458 828.242 603.53 827.414C603.62 826.569 603.719 825.804 603.827 825.12C603.953 824.437 604.07 823.888 604.178 823.474C604.573 823.312 605.203 823.15 606.067 822.988C606.93 822.827 607.884 822.746 608.927 822.746C610.439 822.746 611.698 822.97 612.706 823.42C613.731 823.87 614.496 824.599 614.999 825.606C615.503 826.596 615.755 827.936 615.755 829.627V836.239H600.453ZM618.67 836.239V834.323C618.778 834.323 618.868 834.35 618.94 834.404C619.012 834.44 619.066 834.503 619.102 834.593C619.138 834.665 619.165 834.764 619.183 834.89C619.201 834.998 619.21 835.124 619.21 835.268C619.21 835.412 619.201 835.547 619.183 835.673C619.165 835.798 619.138 835.906 619.102 835.996C619.066 836.068 619.012 836.131 618.94 836.185C618.868 836.221 618.778 836.239 618.67 836.239ZM618.665 836.239V834.323H632.293L630.89 835.538V823.744L631.996 824.662H627.408C626.365 824.662 625.555 824.788 624.98 825.039C624.422 825.291 624.035 825.768 623.819 826.47C623.603 827.154 623.495 828.161 623.495 829.492C623.495 830.824 623.603 831.84 623.819 832.542C624.035 833.226 624.422 833.693 624.98 833.945C625.555 834.197 626.365 834.323 627.408 834.323V835.7C625.843 835.7 624.62 835.511 623.738 835.133C622.875 834.737 622.263 834.089 621.903 833.19C621.561 832.272 621.39 831.04 621.39 829.492C621.39 827.945 621.561 826.677 621.903 825.687C622.263 824.68 622.875 823.942 623.738 823.474C624.62 822.988 625.843 822.746 627.408 822.746H632.995V836.239H618.665ZM618.665 836.239C618.557 836.239 618.467 836.221 618.395 836.185C618.323 836.131 618.269 836.068 618.233 835.996C618.197 835.906 618.17 835.798 618.152 835.673C618.134 835.547 618.125 835.412 618.125 835.268C618.125 835.07 618.143 834.908 618.179 834.782C618.197 834.638 618.251 834.53 618.341 834.458C618.413 834.368 618.521 834.323 618.665 834.323V836.239ZM624.926 820.317V817.888H627.031V820.317H624.926ZM628.623 820.317V817.888H630.728V820.317H628.623ZM635.3 842.203C635.066 842.203 634.823 842.185 634.571 842.149C634.302 842.132 634.041 842.114 633.789 842.096L634.032 840.179C634.284 840.197 634.517 840.215 634.733 840.233C634.949 840.269 635.138 840.287 635.3 840.287C636.146 840.287 636.829 839.964 637.351 839.316C637.873 838.686 638.134 837.805 638.134 836.671V822.746H640.239V836.671C640.239 837.769 640.023 838.731 639.591 839.559C639.177 840.404 638.602 841.052 637.864 841.502C637.126 841.97 636.272 842.203 635.3 842.203ZM656.739 842.932C655.318 842.932 654.032 842.671 652.88 842.149C651.729 841.628 650.82 840.899 650.155 839.964C649.489 839.028 649.156 837.957 649.156 836.752C649.156 836.374 649.183 835.879 649.237 835.268C649.309 834.638 649.39 833.945 649.48 833.19C649.588 832.416 649.705 831.642 649.831 830.869C649.957 830.077 650.074 829.33 650.182 828.629L652.26 828.953C652.062 830.194 651.882 831.346 651.72 832.407C651.576 833.451 651.459 834.35 651.369 835.106C651.297 835.843 651.261 836.392 651.261 836.752C651.261 837.58 651.486 838.308 651.936 838.938C652.404 839.586 653.051 840.089 653.879 840.449C654.706 840.827 655.66 841.016 656.739 841.016C657.819 841.016 658.746 840.845 659.519 840.503C660.293 840.161 660.887 839.685 661.3 839.073C661.714 838.461 661.921 837.742 661.921 836.914V816.889H664.026V836.914C664.026 838.173 663.693 839.253 663.028 840.152C662.38 841.052 661.507 841.736 660.41 842.203C659.312 842.689 658.089 842.932 656.739 842.932ZM678.735 836.239V834.323H681.649V836.239H678.735ZM672.339 842.203C671.709 842.203 671.034 842.149 670.315 842.042C669.613 841.952 668.839 841.817 667.994 841.637L668.317 839.937C669.271 840.062 670.063 840.152 670.692 840.206C671.34 840.26 671.889 840.287 672.339 840.287C673.832 840.287 674.92 839.999 675.604 839.424C676.288 838.866 676.63 838.047 676.63 836.968V823.96L677.709 824.662H673.148C672.105 824.662 671.295 824.788 670.719 825.039C670.162 825.291 669.775 825.768 669.559 826.47C669.343 827.154 669.235 828.161 669.235 829.492C669.235 830.824 669.343 831.84 669.559 832.542C669.775 833.226 670.162 833.693 670.719 833.945C671.295 834.197 672.105 834.323 673.148 834.323H676.63V836.239H673.148C671.583 836.239 670.36 836.005 669.478 835.538C668.614 835.052 668.003 834.314 667.643 833.325C667.301 832.317 667.13 831.04 667.13 829.492C667.13 827.945 667.301 826.677 667.643 825.687C668.003 824.68 668.614 823.942 669.478 823.474C670.36 822.988 671.583 822.746 673.148 822.746H678.735V836.941C678.735 838.056 678.474 839.01 677.952 839.802C677.448 840.593 676.72 841.187 675.766 841.583C674.812 841.997 673.67 842.203 672.339 842.203ZM681.649 836.239V834.323C681.757 834.323 681.847 834.35 681.919 834.404C681.991 834.44 682.045 834.503 682.081 834.593C682.117 834.665 682.144 834.764 682.162 834.89C682.18 834.998 682.189 835.124 682.189 835.268C682.189 835.412 682.18 835.547 682.162 835.673C682.144 835.798 682.117 835.906 682.081 835.996C682.045 836.068 681.991 836.131 681.919 836.185C681.847 836.221 681.757 836.239 681.649 836.239ZM687.023 836.239V834.323H689.938V836.239H687.023ZM681.653 836.239C681.545 836.239 681.455 836.221 681.383 836.185C681.311 836.131 681.257 836.068 681.221 835.996C681.185 835.906 681.158 835.798 681.14 835.673C681.122 835.547 681.113 835.412 681.113 835.268C681.113 835.07 681.131 834.908 681.167 834.782C681.185 834.638 681.239 834.53 681.329 834.458C681.401 834.368 681.509 834.323 681.653 834.323V836.239ZM684.918 836.239V816.889H687.023V836.239H684.918ZM681.653 836.239V834.323H684.918V836.239H681.653ZM689.938 836.239V834.323C690.046 834.323 690.136 834.35 690.208 834.404C690.28 834.44 690.334 834.503 690.37 834.593C690.406 834.665 690.433 834.764 690.451 834.89C690.469 834.998 690.478 835.124 690.478 835.268C690.478 835.412 690.469 835.547 690.451 835.673C690.433 835.798 690.406 835.906 690.37 835.996C690.334 836.068 690.28 836.131 690.208 836.185C690.136 836.221 690.046 836.239 689.938 836.239ZM689.928 836.239V834.323H701.829L701.182 834.89V828.197C701.182 827.028 700.813 826.155 700.075 825.579C699.356 824.986 698.249 824.689 696.756 824.689C696.288 824.689 695.613 824.734 694.732 824.824C693.85 824.896 692.924 825.004 691.952 825.147L691.709 823.42C692.447 823.24 693.256 823.087 694.138 822.961C695.02 822.818 695.874 822.746 696.702 822.746C698.069 822.746 699.239 822.961 700.21 823.393C701.2 823.807 701.955 824.419 702.477 825.228C703.017 826.038 703.287 827.028 703.287 828.197V836.239H689.928ZM689.928 836.239C689.82 836.239 689.73 836.221 689.658 836.185C689.586 836.131 689.532 836.068 689.496 835.996C689.46 835.906 689.433 835.798 689.415 835.673C689.397 835.547 689.388 835.412 689.388 835.268C689.388 835.07 689.406 834.908 689.442 834.782C689.46 834.638 689.514 834.53 689.604 834.458C689.676 834.368 689.784 834.323 689.928 834.323V836.239Z" fill="white"/>
<path d="M684.36 566.142V554.601H680.719V552.168H690.059V554.601H687.026V566.142H684.36ZM691.463 566.186V552.168H694.872L697.958 561.794L701.179 552.168H704.543V566.186H702.065V555.818L699.032 565.489H696.974L693.986 555.818V566.186H691.463Z" fill="white"/>
<path d="M629.494 553.582L704.399 636.395V677.968L611.817 728.021L624.797 684.713C625.826 681.278 628.134 678.379 631.238 676.599L663.149 658.331L595.418 582.03L623.259 553.465C624.985 551.703 627.839 551.748 629.494 553.582Z" fill="white"/>
<path d="M561.334 553.582L486.429 636.395V677.968L579.012 728.021L566.031 684.713C565.002 681.278 562.694 678.379 559.59 676.599L527.679 658.331L595.41 582.03L567.57 553.465C565.843 551.703 562.989 551.748 561.334 553.582Z" fill="white"/>
<path d="M595.418 582.03L623.259 553.465C623.259 553.465 626.336 550.092 629.494 553.581C632.643 557.07 704.399 636.395 704.399 636.395L663.149 658.331L595.418 582.03Z" fill="#EFEDF8"/>
<path d="M595.42 582.03L567.58 553.465C567.58 553.465 564.502 550.092 561.344 553.581C558.195 557.07 486.439 636.395 486.439 636.395L527.689 658.331L595.42 582.03Z" fill="#EFEDF8"/>
<path d="M527.688 658.331L486.438 677.977V636.395L527.688 658.331Z" fill="#EFEDF8"/>
<path d="M663.15 658.331L704.391 677.977V636.395L663.15 658.331Z" fill="#EFEDF8"/>
<defs>
<linearGradient id="paint0_linear_2027_1732" x1="753.5" y1="963.5" x2="-384.5" y2="-222" gradientUnits="userSpaceOnUse">
<stop stop-color="#7056CC"/>
<stop offset="1" stop-color="#8C6AF9"/>
</linearGradient>
<radialGradient id="paint1_radial_2027_1732" cx="0" cy="0" r="1" gradientUnits="userSpaceOnUse" gradientTransform="translate(345.5 1290.5) rotate(-87.4438) scale(504.502 632.466)">
<stop stop-color="#8C6AF9"/>
<stop offset="1" stop-color="#7056CC"/>
</radialGradient>
<radialGradient id="paint2_radial_2027_1732" cx="0" cy="0" r="1" gradientUnits="userSpaceOnUse" gradientTransform="translate(941.8 1017.61) rotate(-86.25) scale(392.952 492.622)">
<stop stop-color="#8C6AF9"/>
<stop offset="1" stop-color="#7056CC"/>
</radialGradient>
</defs>
</svg>
