<svg width="22" height="16" viewBox="0 0 22 16" fill="none" xmlns="http://www.w3.org/2000/svg">
<path d="M8.525 8C8.525 7.40326 8.78576 6.83097 9.24991 6.40901C9.71406 5.98705 10.3436 5.75 11 5.75C11.6564 5.75 12.2859 5.98705 12.7501 6.40901C13.2142 6.83097 13.475 7.40326 13.475 8C13.475 8.59674 13.2142 9.16903 12.7501 9.59099C12.2859 10.0129 11.6564 10.25 11 10.25C10.3436 10.25 9.71406 10.0129 9.24991 9.59099C8.78576 9.16903 8.525 8.59674 8.525 8Z" fill="#7B7790"/>
<path fill-rule="evenodd" clip-rule="evenodd" d="M0 8C0 9.64 0.4675 10.191 1.4025 11.296C3.2692 13.5 6.3998 16 11 16C15.6002 16 18.7308 13.5 20.5975 11.296C21.5325 10.192 22 9.639 22 8C22 6.36 21.5325 5.809 20.5975 4.704C18.7308 2.5 15.6002 0 11 0C6.3998 0 3.2692 2.5 1.4025 4.704C0.4675 5.81 0 6.361 0 8ZM11 4.25C9.90598 4.25 8.85677 4.64509 8.08318 5.34835C7.3096 6.05161 6.875 7.00544 6.875 8C6.875 8.99456 7.3096 9.94839 8.08318 10.6517C8.85677 11.3549 9.90598 11.75 11 11.75C12.094 11.75 13.1432 11.3549 13.9168 10.6517C14.6904 9.94839 15.125 8.99456 15.125 8C15.125 7.00544 14.6904 6.05161 13.9168 5.34835C13.1432 4.64509 12.094 4.25 11 4.25Z" fill="#7B7790"/>
</svg>
