<svg width="203" height="82" viewBox="0 0 203 82" fill="none" xmlns="http://www.w3.org/2000/svg">
<path d="M193.46 12.1062V7.12339H191.888V6.07275H195.921V7.12339H194.611V12.1062H193.46ZM196.527 12.1255V6.07275H197.999L199.332 10.2289L200.722 6.07275H202.174V12.1255H201.105V7.64871L199.795 11.8242H198.907L197.617 7.64871V12.1255H196.527Z" fill="white"/>
<path d="M169.771 6.68289L202.113 42.4392V60.3888L162.139 82.0001L167.743 63.3012C168.187 61.8179 169.184 60.5664 170.524 59.7978L184.302 51.9103L155.058 18.966L167.079 6.63267C167.824 5.87173 169.056 5.89105 169.771 6.68289Z" fill="white"/>
<path d="M140.342 6.68289L108 42.4392V60.3888L147.974 82.0001L142.37 63.3012C141.925 61.8179 140.929 60.5664 139.589 59.7978L125.811 51.9103L155.054 18.966L143.034 6.63267C142.288 5.87173 141.056 5.89105 140.342 6.68289Z" fill="white"/>
<path d="M155.058 18.9659L167.079 6.63258C167.079 6.63258 168.408 5.17637 169.771 6.68279C171.131 8.18921 202.113 42.4391 202.113 42.4391L184.302 51.9102L155.058 18.9659Z" fill="#8C6AF9"/>
<path d="M155.058 18.9659L143.038 6.63258C143.038 6.63258 141.709 5.17637 140.346 6.68279C138.986 8.18921 108.004 42.4391 108.004 42.4391L125.814 51.9102L155.058 18.9659Z" fill="#8C6AF9"/>
<path d="M125.814 51.9101L108.004 60.3924V42.439L125.814 51.9101Z" fill="#8C6AF9"/>
<path d="M184.302 51.9101L202.109 60.3924V42.439L184.302 51.9101Z" fill="#8C6AF9"/>
<path d="M12.4654 61V63.347H7.82753V74.0927H4.63784V63.347H0V61H12.4669H12.4654Z" fill="white"/>
<path d="M24.1491 71.6162V74.0911H14.8281V61H24.1413V63.347H18.0178V66.0327H23.8573V68.3797H18.0178V71.6162H24.1475H24.1491Z" fill="white"/>
<path d="M38.0407 61L33.1064 67.0236L39.0317 74.0755H35.0446L29.6982 67.8038V74.0943H26.5085V61.0031H29.6982V66.7692L34.5327 61.0031H38.0423L38.0407 61Z" fill="white"/>
<path d="M53.3822 61V74.0911H50.6872L43.618 65.602V74.0911H40.4283V61H43.3543L50.1925 68.8291V61H53.3822Z" fill="white"/>
<path d="M63.0868 61C65.2684 61 67.0349 61.6585 68.3847 62.9756C69.7346 64.2927 70.4103 65.8251 70.4103 67.5729C70.4103 69.3207 69.7252 70.8827 68.3567 72.1842C66.9881 73.4857 65.231 74.1364 63.0853 74.1364C60.9395 74.1364 59.1496 73.4888 57.7873 72.1936C56.425 70.8983 55.743 69.3581 55.743 67.5729C55.743 65.7877 56.4203 64.2849 57.7733 62.9709C59.1262 61.657 60.8974 61 63.0853 61H63.0868ZM63.0868 71.4788C64.2962 71.4788 65.2715 71.1199 66.0112 70.4021C66.7509 69.6843 67.1207 68.7417 67.1207 67.5744C67.1207 66.4072 66.7509 65.4568 66.0112 64.7421C65.2715 64.0274 64.2962 63.67 63.0868 63.67C61.8774 63.67 60.8912 64.0274 60.1484 64.7421C59.4056 65.4568 59.0342 66.4009 59.0342 67.5744C59.0342 68.7479 59.4056 69.6843 60.1484 70.4021C60.8912 71.1199 61.8696 71.4788 63.0868 71.4788Z" fill="white"/>
<path d="M84.09 61L78.1709 74.0911H76.7868L70.5822 61H74.0574L77.4468 68.3172L80.6537 61H84.09Z" fill="white"/>
<path d="M90.3522 61L96.3102 74.0755H92.8802L91.5553 71.276H85.8204L84.8638 74.0911H81.4838L86.6569 61H90.3537H90.3522ZM90.6221 69.0398L88.5466 64.0617L86.6662 69.0398H90.6237H90.6221Z" fill="white"/>
<path d="M7.386 42V38.288H11.034V42H7.386ZM3.13 42V19.376H7.386V42H3.13ZM11.034 42V38.288C11.162 38.288 11.258 38.3307 11.322 38.416C11.4073 38.5013 11.4713 38.6293 11.514 38.8C11.578 38.9707 11.6207 39.1733 11.642 39.408C11.6633 39.6213 11.674 39.8667 11.674 40.144C11.674 40.4213 11.6633 40.6773 11.642 40.912C11.6207 41.1467 11.578 41.3493 11.514 41.52C11.4713 41.6693 11.4073 41.7867 11.322 41.872C11.258 41.9573 11.162 42 11.034 42ZM11.0312 42V38.288H25.9753L24.6633 39.408V28.72L25.7513 29.648H21.7193C20.7806 29.648 20.0446 29.7653 19.5113 30C18.9779 30.2347 18.6046 30.672 18.3913 31.312C18.1779 31.9307 18.0713 32.816 18.0713 33.968C18.0713 35.2267 18.1779 36.1653 18.3913 36.784C18.6046 37.3813 18.9779 37.7867 19.5113 38C20.0446 38.192 20.7806 38.288 21.7193 38.288V41.616C19.9059 41.616 18.4126 41.36 17.2393 40.848C16.0659 40.336 15.1913 39.5253 14.6153 38.416C14.0606 37.2853 13.7833 35.8027 13.7833 33.968C13.7833 32.2187 14.0606 30.7467 14.6153 29.552C15.1913 28.3573 16.0659 27.4613 17.2393 26.864C18.4126 26.2453 19.9059 25.936 21.7193 25.936H28.9513V42H11.0312ZM11.0312 42C10.9032 42 10.8072 41.9573 10.7432 41.872C10.6579 41.7867 10.5939 41.6693 10.5512 41.52C10.4872 41.3493 10.4446 41.1467 10.4232 40.912C10.4019 40.6773 10.3912 40.4213 10.3912 40.144C10.3912 39.76 10.4126 39.44 10.4552 39.184C10.4979 38.9067 10.5726 38.6933 10.6792 38.544C10.7646 38.3733 10.8819 38.288 11.0312 38.288V42ZM20.0233 22.992V19.344H24.3113V22.992H20.0233ZM47.6355 42V38.288H50.9955V42H47.6355ZM38.9955 49.936C38.2062 49.936 37.3742 49.872 36.4995 49.744C35.6462 49.6373 34.7288 49.488 33.7475 49.296L34.3875 45.872C35.4542 46 36.3608 46.096 37.1075 46.16C37.8542 46.224 38.4835 46.256 38.9955 46.256C40.5315 46.256 41.6408 45.9787 42.3235 45.424C43.0062 44.8693 43.3475 44.0373 43.3475 42.928V28.88L44.4035 29.648H40.4035C39.5288 29.648 38.8248 29.7547 38.2915 29.968C37.7582 30.16 37.3635 30.576 37.1075 31.216C36.8728 31.8347 36.7555 32.784 36.7555 34.064C36.7555 35.28 36.8622 36.1973 37.0755 36.816C37.3102 37.4133 37.6942 37.808 38.2275 38C38.7608 38.192 39.4862 38.288 40.4035 38.288H43.3475V42H40.4035C38.5902 42 37.0968 41.712 35.9235 41.136C34.7502 40.56 33.8755 39.6853 33.2995 38.512C32.7448 37.3387 32.4675 35.856 32.4675 34.064C32.4675 32.272 32.7448 30.7787 33.2995 29.584C33.8755 28.368 34.7502 27.4613 35.9235 26.864C37.0968 26.2453 38.5902 25.936 40.4035 25.936H47.6355V42.928C47.6355 44.3787 47.2728 45.6267 46.5475 46.672C45.8435 47.7387 44.8408 48.5493 43.5395 49.104C42.2595 49.6587 40.7448 49.936 38.9955 49.936ZM50.9955 42V38.288C51.1235 38.288 51.2195 38.3307 51.2835 38.416C51.3688 38.5013 51.4328 38.6293 51.4755 38.8C51.5395 38.9707 51.5822 39.1733 51.6035 39.408C51.6248 39.6213 51.6355 39.8667 51.6355 40.144C51.6355 40.4213 51.6248 40.6773 51.6035 40.912C51.5822 41.1467 51.5395 41.3493 51.4755 41.52C51.4328 41.6693 51.3688 41.7867 51.2835 41.872C51.2195 41.9573 51.1235 42 50.9955 42ZM58.648 42V38.288H62.008V42H58.648ZM51 42C50.872 42 50.776 41.9573 50.712 41.872C50.6267 41.7867 50.5627 41.6693 50.52 41.52C50.456 41.3493 50.4133 41.1467 50.392 40.912C50.3707 40.6773 50.36 40.4213 50.36 40.144C50.36 39.76 50.3813 39.44 50.424 39.184C50.4667 38.9067 50.5413 38.6933 50.648 38.544C50.7333 38.3733 50.8507 38.288 51 38.288V42ZM51 42V38.288H56.856L54.36 40.368V25.936H58.648V42H51ZM62.008 42V38.288C62.136 38.288 62.2427 38.3307 62.328 38.416C62.4133 38.5013 62.4773 38.6293 62.52 38.8C62.5627 38.9707 62.5947 39.1733 62.616 39.408C62.6373 39.6213 62.648 39.8667 62.648 40.144C62.648 40.4213 62.6373 40.6773 62.616 40.912C62.5947 41.1467 62.5627 41.3493 62.52 41.52C62.4773 41.6693 62.4133 41.7867 62.328 41.872C62.2427 41.9573 62.136 42 62.008 42ZM54.36 22.992V19.344H58.648V22.992H54.36ZM80.944 42V38.288H84.304V42H80.944ZM62 42C61.872 42 61.776 41.9573 61.712 41.872C61.6267 41.7867 61.5627 41.6693 61.52 41.52C61.456 41.3493 61.4133 41.1467 61.392 40.912C61.3707 40.6773 61.36 40.4213 61.36 40.144C61.36 39.76 61.3813 39.44 61.424 39.184C61.4667 38.9067 61.5413 38.6933 61.648 38.544C61.7333 38.3733 61.8507 38.288 62 38.288V42ZM62 42V38.288H78.064L76.656 39.44V35.088C76.656 33.9787 76.5387 33.0933 76.304 32.432C76.0693 31.7707 75.7067 31.2907 75.216 30.992C74.7467 30.6933 74.1493 30.544 73.424 30.544H66.416L63.76 26.704L65.392 23.632C65.584 23.2693 65.7973 22.8747 66.032 22.448C66.2667 22.0213 66.576 21.5093 66.96 20.912C67.344 20.3147 67.8347 19.568 68.432 18.672L72.016 20.688C71.4613 21.52 71.0133 22.2133 70.672 22.768C70.3307 23.3013 70.0427 23.7707 69.808 24.176C69.5733 24.5813 69.36 24.9867 69.168 25.392L67.888 27.792L67.248 26.832H73.424C74.7893 26.832 75.952 27.056 76.912 27.504C77.872 27.952 78.64 28.5707 79.216 29.36C79.8133 30.1493 80.2507 31.0347 80.528 32.016C80.8053 32.9973 80.944 34.0213 80.944 35.088V42H62ZM84.304 42V38.288C84.432 38.288 84.5387 38.3307 84.624 38.416C84.7093 38.5013 84.7733 38.6293 84.816 38.8C84.8587 38.9707 84.8907 39.1733 84.912 39.408C84.9333 39.6213 84.944 39.8667 84.944 40.144C84.944 40.4213 84.9333 40.6773 84.912 40.912C84.8907 41.1467 84.8587 41.3493 84.816 41.52C84.7733 41.6693 84.7093 41.7867 84.624 41.872C84.5387 41.9573 84.432 42 84.304 42ZM84.3125 42V38.288H91.8965L89.4005 40.368V25.936H93.6565V42H84.3125ZM84.3125 42C84.1845 42 84.0885 41.9573 84.0245 41.872C83.9392 41.7867 83.8752 41.6693 83.8325 41.52C83.7685 41.3493 83.7258 41.1467 83.7045 40.912C83.6832 40.6773 83.6725 40.4213 83.6725 40.144C83.6725 39.76 83.6938 39.44 83.7365 39.184C83.7792 38.9067 83.8538 38.6933 83.9605 38.544C84.0458 38.3733 84.1632 38.288 84.3125 38.288V42ZM86.5845 22.992V19.344H90.7125V22.992H86.5845ZM92.4085 22.992V19.344H96.5365V22.992H92.4085Z" fill="white"/>
</svg>
