<svg width="18" height="31" viewBox="0 0 18 31" fill="none" xmlns="http://www.w3.org/2000/svg">
<path d="M2.39941 0.125H14.8213C16.0722 0.125 17.0957 1.14907 17.0957 2.39941V28.6006C17.0963 29.8509 16.0726 30.875 14.8223 30.875H2.39941C1.14849 30.875 0.125 29.8509 0.125 28.6006V2.39941C0.125 1.22662 1.02513 0.253664 2.16797 0.136719L2.39941 0.125Z" fill="#F8F6FD" stroke="#080416" stroke-width="0.25"/>
<path d="M10.8531 2.46512H7.79338C7.65574 2.46512 7.54352 2.36067 7.54352 2.23256C7.54352 2.10446 7.65574 2.00001 7.79338 2.00001H10.8531C10.9907 2.00001 11.1029 2.10446 11.1029 2.23256C11.1029 2.36067 10.9901 2.46512 10.8531 2.46512Z" fill="#080416"/>
<path d="M6.36863 2.46511C6.50663 2.46511 6.61849 2.36099 6.61849 2.23256C6.61849 2.10412 6.50663 2 6.36863 2C6.23064 2 6.11877 2.10412 6.11877 2.23256C6.11877 2.36099 6.23064 2.46511 6.36863 2.46511Z" fill="#080416"/>
<path d="M8.50038 29C7.67295 29 7 28.327 7 27.5004C7 26.673 7.67295 26 8.50038 26C9.32704 26 10 26.673 10 27.5004C10 28.327 9.32704 29 8.50038 29ZM8.50038 26.3824C7.88402 26.3824 7.38236 26.884 7.38236 27.5004C7.38236 28.1167 7.88402 28.6176 8.50038 28.6176C9.11675 28.6176 9.61764 28.1167 9.61764 27.5004C9.61764 26.884 9.11598 26.3824 8.50038 26.3824Z" fill="#080416"/>
</svg>
