<svg width="80" height="64" viewBox="0 0 80 64" fill="none" xmlns="http://www.w3.org/2000/svg">
<path d="M71.9667 5.14181V0.94579H70.6428V0.0610466H74.0387V0.94579H72.936V5.14181H71.9667ZM74.5494 5.15808V0.0610466H75.7886L76.9108 3.56099L78.0818 0.0610466H79.3048V5.15808H78.4039V1.38817L77.3012 4.90437H76.5531L75.4666 1.38817V5.15808H74.5494Z" fill="#7056CC"/>
<path d="M52.0177 0.57499L79.2528 30.6855V45.801L45.5903 64L50.31 48.2535C50.6841 47.0045 51.5233 45.9506 52.652 45.3033L64.2545 38.6612L39.6281 10.9187L49.7506 0.532703C50.3783 -0.108085 51.4159 -0.0918199 52.0177 0.57499Z" fill="#7056CC"/>
<path d="M27.2351 0.57499L0 30.6855V45.801L33.6625 64L28.9428 48.2535C28.5687 47.0045 27.7295 45.9506 26.6008 45.3033L14.9984 38.6612L39.6248 10.9187L29.5023 0.532703C28.8745 -0.108085 27.8369 -0.0918199 27.2351 0.57499Z" fill="#7056CC"/>
<path d="M39.6281 10.9187L49.7506 0.532696C49.7506 0.532696 50.8695 -0.693582 52.0177 0.574983C53.1627 1.84355 79.2528 30.6855 79.2528 30.6855L64.2545 38.6612L39.6281 10.9187Z" fill="#8C6AF9"/>
<path d="M39.6281 10.9187L29.5056 0.532696C29.5056 0.532696 28.3866 -0.693582 27.2384 0.574983C26.0935 1.84355 0.0032959 30.6855 0.0032959 30.6855L15.0016 38.6612L39.6281 10.9187Z" fill="#8C6AF9"/>
<path d="M15.0016 38.6612L0.0032959 45.8042V30.6855L15.0016 38.6612Z" fill="#8C6AF9"/>
<path d="M64.2545 38.6612L79.2496 45.8042V30.6855L64.2545 38.6612Z" fill="#8C6AF9"/>
</svg>
