<svg width="95" height="76" viewBox="0 0 95 76" fill="none" xmlns="http://www.w3.org/2000/svg">
<path d="M85.4604 6.10617V1.12339H83.8883V0.0727539H87.9209V1.12339H86.6114V6.10617H85.4604ZM88.5273 6.12549V0.0727539H89.999L91.3316 4.22894L92.7221 0.0727539H94.1745V6.12549H93.1045V1.64871L91.7951 5.8242H90.9067L89.6166 1.64871V6.12549H88.5273Z" fill="white"/>
<path d="M61.7711 0.682885L94.1128 36.4392V54.3888L54.1385 76.0001L59.7432 57.3012C60.1874 55.8179 61.1839 54.5664 62.5243 53.7978L76.3023 45.9103L47.0583 12.966L59.0788 0.632669C59.8243 -0.128267 61.0565 -0.108952 61.7711 0.682885Z" fill="white"/>
<path d="M32.3417 0.682885L0 36.4392V54.3888L39.9743 76.0001L34.3696 57.3012C33.9254 55.8179 32.9288 54.5664 31.5885 53.7978L17.8106 45.9103L47.0545 12.966L35.034 0.632669C34.2885 -0.128267 33.0563 -0.108952 32.3417 0.682885Z" fill="white"/>
<path d="M47.0583 12.9659L59.0788 0.632577C59.0788 0.632577 60.4076 -0.82363 61.7711 0.682793C63.1307 2.18921 94.1128 36.4391 94.1128 36.4391L76.3023 45.9102L47.0583 12.9659Z" fill="#8C6AF9"/>
<path d="M47.0582 12.9659L35.0378 0.632577C35.0378 0.632577 33.709 -0.82363 32.3455 0.682793C30.9859 2.18921 0.00378418 36.4391 0.00378418 36.4391L17.8143 45.9102L47.0582 12.9659Z" fill="#8C6AF9"/>
<path d="M17.8143 45.9101L0.00378418 54.3924V36.439L17.8143 45.9101Z" fill="#8C6AF9"/>
<path d="M76.3022 45.9101L94.1089 54.3924V36.439L76.3022 45.9101Z" fill="#8C6AF9"/>
</svg>
