<svg width="119" height="119" viewBox="0 0 119 119" fill="none" xmlns="http://www.w3.org/2000/svg">
<g filter="url(#filter0_d_229_301)">
<path d="M83 18H36C27.1634 18 20 25.1634 20 34V81C20 89.8366 27.1634 97 36 97H83C91.8366 97 99 89.8366 99 81V34C99 25.1634 91.8366 18 83 18Z" fill="#6161FF"/>
<path d="M65.8528 50.0276C65.3566 50.0279 64.8759 50.2002 64.4925 50.5151C64.1091 50.8301 63.8468 51.2683 63.7502 51.755C63.6537 52.2417 63.7289 52.7468 63.963 53.1843C64.1971 53.6218 64.5756 53.9645 65.0341 54.1542C65.4926 54.3439 66.0027 54.3687 66.4775 54.2244C66.9522 54.0802 67.3623 53.7758 67.6378 53.3631C67.9133 52.9504 68.0371 52.455 67.9883 51.9612C67.9395 51.4675 67.7209 51.0059 67.3699 50.6552C67.1709 50.4557 66.9344 50.2976 66.674 50.1899C66.4137 50.0822 66.1346 50.027 65.8528 50.0276Z" fill="white"/>
<path d="M77.7931 41.4511C77.7927 41.4487 77.7927 41.4462 77.7931 41.4438C77.7252 41.146 77.5753 40.873 77.3605 40.6558C77.1457 40.4385 76.8744 40.2856 76.5773 40.2144C74.1827 39.6302 70.4155 40.2529 66.2409 41.9244C62.0334 43.6119 58.0911 46.103 55.4264 48.7725C54.5723 49.622 53.7788 50.5304 53.0518 51.4909C51.2575 51.4106 49.6768 51.6661 48.3453 52.2471C43.7055 54.289 42.3804 59.5146 42.0276 61.6602C41.9765 61.965 41.9965 62.2776 42.086 62.5734C42.1755 62.8693 42.332 63.1405 42.5434 63.366C42.7548 63.5915 43.0154 63.7652 43.3049 63.8735C43.5944 63.9818 43.905 64.0219 44.2125 63.9906H44.223L49.3916 63.4265C49.398 63.4923 49.4052 63.5526 49.4108 63.6081C49.4772 64.2379 49.7581 64.8257 50.2064 65.2731L52.7288 67.7971C53.1755 68.246 53.7632 68.5272 54.393 68.5934L54.5658 68.6119L54.0033 73.7741C54.0033 73.7741 54.0033 73.7805 54.0033 73.7845C53.9745 74.0626 54.0041 74.3435 54.0901 74.6095C54.1762 74.8754 54.3167 75.1205 54.5028 75.329C54.689 75.5375 54.9166 75.7049 55.1711 75.8204C55.4256 75.936 55.7014 75.9971 55.9809 76C56.0926 76.0001 56.2041 75.991 56.3144 75.9727C58.472 75.6255 63.6952 74.3165 65.7315 69.6518C66.3076 68.3291 66.5624 66.7549 66.4908 64.9637C67.4557 64.2383 68.3674 63.4447 69.219 62.5891C71.9053 59.9164 74.4044 56.0062 76.0743 51.8598C77.7369 47.7326 78.3629 43.9373 77.7931 41.4511ZM69.19 55.504C68.5298 56.165 67.6883 56.6152 66.7721 56.7979C65.8558 56.9805 64.906 56.8872 64.0428 56.53C63.1796 56.1727 62.4417 55.5673 61.9225 54.7906C61.4034 54.0139 61.1263 53.1006 61.1263 52.1664C61.1263 51.2321 61.4034 50.3188 61.9225 49.5421C62.4417 48.7654 63.1796 48.1601 64.0428 47.8028C64.906 47.4455 65.8558 47.3522 66.7721 47.5348C67.6883 47.7175 68.5298 48.1677 69.19 48.8287C69.6326 49.2646 69.984 49.7842 70.2239 50.3572C70.4638 50.9302 70.5874 51.5452 70.5874 52.1664C70.5874 52.7875 70.4638 53.4025 70.2239 53.9755C69.984 54.5485 69.6326 55.0681 69.19 55.504Z" fill="white"/>
<path d="M52.4396 68.4818C52.1286 68.4432 51.8143 68.5195 51.5556 68.6964C51.0421 69.0475 50.5262 69.3947 50.0055 69.733C48.952 70.4176 47.692 69.2155 48.318 68.1258L49.2944 66.4383C49.4339 66.2341 49.5117 65.994 49.5182 65.7467C49.5248 65.4995 49.4598 65.2556 49.3313 65.0443C49.2027 64.833 49.0159 64.6633 48.7932 64.5555C48.5706 64.4477 48.3216 64.4064 48.0761 64.4366C46.9925 64.5736 45.9853 65.0672 45.213 65.8396C44.9189 66.1346 44.0245 67.0297 43.5432 70.4409C43.4062 71.4207 43.3198 72.407 43.2844 73.3957C43.28 73.5673 43.31 73.738 43.3727 73.8978C43.4353 74.0576 43.5293 74.2033 43.6491 74.3262C43.769 74.4491 43.9122 74.5467 44.0704 74.6134C44.2286 74.6801 44.3985 74.7144 44.5701 74.7143H44.6023C45.5918 74.6793 46.5788 74.5935 47.5594 74.4572C50.9722 73.975 51.8674 73.0799 52.1615 72.7857C52.9375 72.0132 53.4299 71.0012 53.5589 69.9138C53.6002 69.5755 53.5056 69.2346 53.2957 68.9661C53.0858 68.6976 52.7778 68.5234 52.4396 68.4818Z" fill="white"/>
</g>
<defs>
<filter id="filter0_d_229_301" x="0" y="0" width="119" height="119" filterUnits="userSpaceOnUse" color-interpolation-filters="sRGB">
<feFlood flood-opacity="0" result="BackgroundImageFix"/>
<feColorMatrix in="SourceAlpha" type="matrix" values="0 0 0 0 0 0 0 0 0 0 0 0 0 0 0 0 0 0 127 0" result="hardAlpha"/>
<feOffset dy="2"/>
<feGaussianBlur stdDeviation="10"/>
<feComposite in2="hardAlpha" operator="out"/>
<feColorMatrix type="matrix" values="0 0 0 0 0.54902 0 0 0 0 0.415686 0 0 0 0 0.976471 0 0 0 0.5 0"/>
<feBlend mode="normal" in2="BackgroundImageFix" result="effect1_dropShadow_229_301"/>
<feBlend mode="normal" in="SourceGraphic" in2="effect1_dropShadow_229_301" result="shape"/>
</filter>
</defs>
</svg>
