<svg width="106" height="105" viewBox="0 0 106 105" fill="none" xmlns="http://www.w3.org/2000/svg">
<path d="M86.4091 0H19.5909C9.04729 0 0.5 8.54729 0.5 19.0909V85.9091C0.5 96.4527 9.04729 105 19.5909 105H86.4091C96.9527 105 105.5 96.4527 105.5 85.9091V19.0909C105.5 8.54729 96.9527 0 86.4091 0Z" fill="#8C6AF9"/>
<path d="M74.9066 34.5203V31.6661H74.0061V31.0643H76.316V31.6661H75.5659V34.5203H74.9066ZM76.6634 34.5313V31.0643H77.5063L78.2696 33.445L79.0661 31.0643H79.8981V34.5313H79.2852V31.967L78.5352 34.3587H78.0263L77.2873 31.967V34.5313H76.6634Z" fill="white"/>
<path d="M61.3372 31.4138L79.8627 51.8951V62.1767L56.9653 74.5558L60.1756 63.845C60.4301 62.9954 61.0009 62.2785 61.7687 61.8382L69.6607 57.3202L52.9097 38.4496L59.7951 31.3851C60.2221 30.9492 60.9279 30.9603 61.3372 31.4138Z" fill="white"/>
<path d="M44.48 31.4138L25.9545 51.8951V62.1767L48.8519 74.5558L45.6416 63.845C45.3871 62.9954 44.8163 62.2785 44.0486 61.8382L36.1565 57.3202L52.9075 38.4496L46.0221 31.3851C45.5951 30.9492 44.8893 30.9603 44.48 31.4138Z" fill="white"/>
<path d="M52.9097 38.4497L59.7951 31.3851C59.7951 31.3851 60.5562 30.551 61.3372 31.4138C62.116 32.2767 79.8627 51.8952 79.8627 51.8952L69.6607 57.3203L52.9097 38.4497Z" fill="#EFEDF8"/>
<path d="M52.9099 38.4497L46.0245 31.3851C46.0245 31.3851 45.2634 30.551 44.4824 31.4138C43.7036 32.2767 25.9569 51.8952 25.9569 51.8952L36.1589 57.3203L52.9099 38.4497Z" fill="#EFEDF8"/>
<path d="M36.1587 57.3203L25.9568 62.1789V51.8951L36.1587 57.3203Z" fill="#EFEDF8"/>
<path d="M69.6607 57.3203L79.8605 62.1789V51.8951L69.6607 57.3203Z" fill="#EFEDF8"/>
</svg>
