<svg width="890" height="868" viewBox="0 0 890 868" fill="none" xmlns="http://www.w3.org/2000/svg">
<path d="M94.1235 450.787C95.9971 571.559 197.718 647.326 318.016 681.183C378.145 698.106 442.864 704.537 501.952 700.88C561.048 697.222 614.469 683.476 652.032 660.082C727.129 613.312 754.833 525.984 748.226 425.347C741.619 324.717 700.701 210.889 638.697 111.33C607.69 61.5415 581.208 37.6338 556.645 31.0836C532.129 24.5461 509.35 35.2625 485.607 55.2403C461.857 75.2232 437.288 104.343 409.181 134.401C381.093 164.436 349.507 195.364 311.791 218.853C274.113 242.318 241.499 259.016 213.825 273.247C186.139 287.484 163.429 299.237 145.499 312.827C127.586 326.405 114.461 341.806 105.952 363.331C97.4368 384.871 93.5308 412.577 94.1235 450.787Z" stroke="#7E60E2"/>
<path d="M138.942 457.043C137.395 559.554 224.459 621.522 328.921 647.432C381.129 660.382 437.624 664.303 489.433 659.774C541.248 655.244 588.337 642.266 621.758 621.452C688.573 579.84 714.921 504.884 711.589 419.446C708.257 334.008 675.241 238.173 623.434 154.987C597.526 113.388 574.962 93.7198 553.67 88.7521C532.41 83.7921 512.236 93.4507 490.98 111.027C469.722 128.604 447.526 153.976 422.207 180.234C396.908 206.472 368.525 233.556 334.96 254.46C301.431 275.341 272.517 290.364 247.988 303.174C223.449 315.99 203.329 326.576 187.336 338.597C171.359 350.606 159.518 364.036 151.541 382.53C143.559 401.036 139.431 424.648 138.942 457.043Z" stroke="#7E60E2"/>
<path d="M189.497 460.361C187.908 502.375 205.053 535.649 233.461 560.847C261.884 586.056 301.588 603.183 345.086 612.839C388.579 622.494 435.831 624.671 479.313 620.008C522.802 615.344 562.482 603.842 590.856 586.171C647.578 550.846 671.019 488.94 669.796 418.989C668.574 349.033 642.679 271.097 600.81 203.87C579.874 170.252 561.353 154.574 543.645 150.901C525.959 147.232 508.897 155.503 490.766 170.301C472.636 185.099 453.579 206.3 431.881 228.293C410.202 250.268 385.923 272.996 357.412 290.752C328.936 308.486 304.434 321.333 283.648 332.285C262.853 343.241 245.807 352.287 232.191 362.432C218.59 372.566 208.431 383.786 201.414 399.08C194.392 414.384 190.501 433.803 189.497 460.361Z" stroke="#7E60E2"/>
<path d="M240.051 463.687C237.651 496.436 250.555 521.872 272.741 540.727C294.946 559.598 326.46 571.883 361.245 578.245C430.831 590.973 513.275 579.962 559.955 550.891C606.588 521.848 627.118 472.99 628.003 418.527C628.889 364.055 610.116 304.019 578.188 252.752C562.224 227.118 547.746 215.432 533.625 213.051C519.509 210.67 505.558 217.557 490.552 229.577C475.55 241.595 459.63 258.627 441.555 276.355C423.497 294.066 403.319 312.435 379.864 327.043C356.441 341.63 336.352 352.302 319.31 361.395C302.258 370.493 288.283 377.998 277.044 386.268C265.818 394.528 257.339 403.539 251.283 415.635C245.223 427.739 241.57 442.967 240.051 463.687Z" stroke="#7E60E2"/>
</svg>
