<svg width="79" height="79" viewBox="0 0 79 79" fill="none" xmlns="http://www.w3.org/2000/svg">
<path d="M67 0H12C5.37258 0 0 5.37258 0 12V67C0 73.6274 5.37258 79 12 79H67C73.6274 79 79 73.6274 79 67V12C79 5.37258 73.6274 0 67 0Z" fill="#8C6AF9"/>
<path d="M31.0957 20.1611H47.125C48.7389 20.1612 50.0594 21.4826 50.0596 23.0957V56.9043C50.0602 58.5173 48.7391 59.8387 47.126 59.8389H31.0957C29.4818 59.8387 28.1613 58.5174 28.1611 56.9043V23.0957C28.1613 21.4818 29.4826 20.1613 31.0957 20.1611Z" fill="#F8F6FD" stroke="#8C6AF9" stroke-width="0.322581"/>
<mask id="path-3-inside-1_2010_29" fill="white">
<path d="M42.004 23.1808H38.056C37.8784 23.1808 37.7336 23.046 37.7336 22.8807C37.7336 22.7154 37.8784 22.5806 38.056 22.5806H42.004C42.1816 22.5806 42.3264 22.7154 42.3264 22.8807C42.3264 23.046 42.1808 23.1808 42.004 23.1808Z"/>
</mask>
<path d="M42.004 23.1808H38.056C37.8784 23.1808 37.7336 23.046 37.7336 22.8807C37.7336 22.7154 37.8784 22.5806 38.056 22.5806H42.004C42.1816 22.5806 42.3264 22.7154 42.3264 22.8807C42.3264 23.046 42.1808 23.1808 42.004 23.1808Z" fill="#8C6AF9"/>
<path d="M42.3264 22.8807H41.0361H42.3264ZM42.004 23.1808V21.8904H38.056V23.1808V24.4711H42.004V23.1808ZM38.056 23.1808V21.8904C38.5022 21.8904 39.0239 22.2477 39.0239 22.8807H37.7336H36.4433C36.4433 23.8443 37.2545 24.4711 38.056 24.4711V23.1808ZM37.7336 22.8807H39.0239C39.0239 23.5137 38.5022 23.8709 38.056 23.8709V22.5806V21.2903C37.2545 21.2903 36.4433 21.9171 36.4433 22.8807H37.7336ZM38.056 22.5806V23.8709H42.004V22.5806V21.2903H38.056V22.5806ZM42.004 22.5806V23.8709C41.5577 23.8709 41.0361 23.5137 41.0361 22.8807H42.3264H43.6167C43.6167 21.9171 42.8054 21.2903 42.004 21.2903V22.5806ZM42.3264 22.8807H41.0361C41.0361 22.2457 41.5591 21.8904 42.004 21.8904V23.1808V24.4711C42.8025 24.4711 43.6167 23.8463 43.6167 22.8807H42.3264Z" fill="#8C6AF9" mask="url(#path-3-inside-1_2010_29)"/>
<path d="M36.2175 23.1812C36.3955 23.1812 36.5397 23.0462 36.5397 22.8804C36.5396 22.7148 36.3954 22.5806 36.2175 22.5806M36.2175 23.1812V22.5806M36.2175 23.1812L36.153 23.1744C36.0059 23.1465 35.8952 23.0256 35.8952 22.8804C35.8954 22.7149 36.0396 22.5807 36.2175 22.5806M36.2175 23.1812V22.5806" fill="#8C6AF9" stroke="#8C6AF9" stroke-width="1.29032"/>
<mask id="path-6-inside-2_2010_29" fill="white">
<path d="M38.9682 57.4193C37.9006 57.4193 37.0323 56.551 37.0323 55.4843C37.0323 54.4167 37.9006 53.5484 38.9682 53.5484C40.0349 53.5484 40.9032 54.4167 40.9032 55.4843C40.9032 56.551 40.0349 57.4193 38.9682 57.4193ZM38.9682 54.0417C38.1729 54.0417 37.5256 54.689 37.5256 55.4843C37.5256 56.2797 38.1729 56.926 38.9682 56.926C39.7635 56.926 40.4099 56.2797 40.4099 55.4843C40.4099 54.689 39.7626 54.0417 38.9682 54.0417Z"/>
</mask>
<path d="M38.9682 57.4193C37.9006 57.4193 37.0323 56.551 37.0323 55.4843C37.0323 54.4167 37.9006 53.5484 38.9682 53.5484C40.0349 53.5484 40.9032 54.4167 40.9032 55.4843C40.9032 56.551 40.0349 57.4193 38.9682 57.4193ZM38.9682 54.0417C38.1729 54.0417 37.5256 54.689 37.5256 55.4843C37.5256 56.2797 38.1729 56.926 38.9682 56.926C39.7635 56.926 40.4099 56.2797 40.4099 55.4843C40.4099 54.689 39.7626 54.0417 38.9682 54.0417Z" fill="#8C6AF9"/>
<path d="M40.9032 55.4843H39.6129H40.9032ZM38.9682 57.4193V56.129C38.6128 56.129 38.3226 55.838 38.3226 55.4843H37.0323H35.7419C35.7419 57.2641 37.1884 58.7097 38.9682 58.7097V57.4193ZM37.0323 55.4843H38.3226C38.3226 55.1293 38.6132 54.8387 38.9682 54.8387V53.5484V52.258C37.188 52.258 35.7419 53.7041 35.7419 55.4843H37.0323ZM38.9682 53.5484V54.8387C39.3218 54.8387 39.6129 55.1289 39.6129 55.4843H40.9032H42.1935C42.1935 53.7045 40.7479 52.258 38.9682 52.258V53.5484ZM40.9032 55.4843H39.6129C39.6129 55.8384 39.3223 56.129 38.9682 56.129V57.4193V58.7097C40.7475 58.7097 42.1935 57.2636 42.1935 55.4843H40.9032ZM38.9682 54.0417V52.7514C37.4603 52.7514 36.2353 53.9764 36.2353 55.4843H37.5256H38.8159C38.8159 55.4017 38.8855 55.3321 38.9682 55.3321V54.0417ZM37.5256 55.4843H36.2353C36.2353 56.9934 37.4614 58.2163 38.9682 58.2163V56.926V55.6356C38.8844 55.6356 38.8159 55.5659 38.8159 55.4843H37.5256ZM38.9682 56.926V58.2163C40.4762 58.2163 41.7002 56.9923 41.7002 55.4843H40.4099H39.1195C39.1195 55.567 39.0509 55.6356 38.9682 55.6356V56.926ZM40.4099 55.4843H41.7002C41.7002 53.977 40.4758 52.7514 38.9682 52.7514V54.0417V55.3321C39.0494 55.3321 39.1195 55.4011 39.1195 55.4843H40.4099Z" fill="#8C6AF9" mask="url(#path-6-inside-2_2010_29)"/>
</svg>
