<svg width="79" height="79" viewBox="0 0 79 79" fill="none" xmlns="http://www.w3.org/2000/svg">
<path d="M67 0H12C5.37258 0 0 5.37258 0 12V67C0 73.6274 5.37258 79 12 79H67C73.6274 79 79 73.6274 79 67V12C79 5.37258 73.6274 0 67 0Z" fill="#8C6AF9"/>
<path d="M17 49.2307C17.0013 50.4544 17.4879 51.6276 18.3532 52.4929C19.2185 53.3582 20.3917 53.8449 21.6154 53.8461H34.4885L34.1038 56.923H29.3077C28.8997 56.923 28.5083 57.0851 28.2198 57.3737C27.9313 57.6622 27.7692 58.0535 27.7692 58.4615C27.7692 58.8695 27.9313 59.2608 28.2198 59.5494C28.5083 59.8379 28.8997 60 29.3077 60H50.8461C51.2542 60 51.6455 59.8379 51.934 59.5494C52.2225 59.2608 52.3846 58.8695 52.3846 58.4615C52.3846 58.0535 52.2225 57.6622 51.934 57.3737C51.6455 57.0851 51.2542 56.923 50.8461 56.923H46.05L45.6654 53.8461H58.5385C59.7621 53.8449 60.9353 53.3582 61.8006 52.4929C62.6659 51.6276 63.1526 50.4544 63.1538 49.2307V44.6154H17V49.2307ZM40.0769 47.6923C40.3812 47.6923 40.6786 47.7825 40.9316 47.9516C41.1846 48.1206 41.3818 48.3609 41.4983 48.642C41.6147 48.9231 41.6452 49.2324 41.5858 49.5309C41.5265 49.8293 41.3799 50.1034 41.1648 50.3186C40.9496 50.5338 40.6755 50.6803 40.3771 50.7396C40.0786 50.799 39.7693 50.7685 39.4882 50.6521C39.2071 50.5357 38.9668 50.3385 38.7977 50.0855C38.6287 49.8325 38.5385 49.535 38.5385 49.2307C38.5385 48.8227 38.7005 48.4314 38.9891 48.1429C39.2776 47.8544 39.6689 47.6923 40.0769 47.6923Z" fill="white"/>
<path d="M63.1538 24.6154C63.1526 23.3917 62.6659 22.2185 61.8006 21.3532C60.9353 20.4879 59.7621 20.0013 58.5385 20H21.6154C20.3917 20.0013 19.2185 20.4879 18.3532 21.3532C17.4879 22.2185 17.0013 23.3917 17 24.6154V43.0769H63.1538V24.6154Z" fill="white"/>
</svg>
