<svg width="254" height="265" viewBox="0 0 254 265" fill="none" xmlns="http://www.w3.org/2000/svg">
<g filter="url(#filter0_f_2015_3)">
<rect x="84" y="84" width="86" height="86" fill="#8C6AF9"/>
</g>
<path d="M160.409 74H93.5909C83.0473 74 74.5 82.5473 74.5 93.0909V159.909C74.5 170.453 83.0473 179 93.5909 179H160.409C170.953 179 179.5 170.453 179.5 159.909V93.0909C179.5 82.5473 170.953 74 160.409 74Z" fill="#8C6AF9"/>
<path d="M148.907 108.52V105.666H148.006V105.064H150.316V105.666H149.566V108.52H148.907ZM150.663 108.531V105.064H151.506L152.27 107.445L153.066 105.064H153.898V108.531H153.285V105.967L152.535 108.359H152.026L151.287 105.967V108.531H150.663Z" fill="white"/>
<path d="M135.337 105.414L153.863 125.895V136.177L130.965 148.556L134.176 137.845C134.43 136.995 135.001 136.279 135.769 135.838L143.661 131.32L126.91 112.45L133.795 105.385C134.222 104.949 134.928 104.96 135.337 105.414Z" fill="white"/>
<path d="M118.48 105.414L99.9545 125.895V136.177L122.852 148.556L119.642 137.845C119.387 136.995 118.816 136.279 118.049 135.838L110.156 131.32L126.907 112.45L120.022 105.385C119.595 104.949 118.889 104.96 118.48 105.414Z" fill="white"/>
<path d="M126.91 112.45L133.795 105.385C133.795 105.385 134.556 104.551 135.337 105.414C136.116 106.277 153.863 125.895 153.863 125.895L143.661 131.32L126.91 112.45Z" fill="#EFEDF8"/>
<path d="M126.91 112.45L120.025 105.385C120.025 105.385 119.263 104.551 118.482 105.414C117.704 106.277 99.9569 125.895 99.9569 125.895L110.159 131.32L126.91 112.45Z" fill="#EFEDF8"/>
<path d="M110.159 131.32L99.9568 136.179V125.895L110.159 131.32Z" fill="#EFEDF8"/>
<path d="M143.661 131.32L153.86 136.179V125.895L143.661 131.32Z" fill="#EFEDF8"/>
<path d="M75.3797 207V210.395H68.6717V225.937H64.0583V210.395H57.3503V207H75.382H75.3797Z" fill="#8C6AF9"/>
<path d="M92.2784 222.355V225.935H78.7969V207H92.2671V210.395H83.4104V214.279H91.8563V217.674H83.4104V222.355H92.2761H92.2784Z" fill="#8C6AF9"/>
<path d="M112.371 207L105.234 215.712L113.804 225.912H108.037L100.305 216.841V225.939H95.6911V207.005H100.305V215.344L107.297 207.005H112.373L112.371 207Z" fill="#8C6AF9"/>
<path d="M134.56 207V225.935H130.662L120.438 213.656V225.935H115.824V207H120.056L129.947 218.324V207H134.56Z" fill="#8C6AF9"/>
<path d="M148.597 207C151.752 207 154.307 207.952 156.259 209.857C158.212 211.762 159.189 213.979 159.189 216.507C159.189 219.035 158.198 221.294 156.219 223.176C154.239 225.059 151.698 226 148.594 226C145.491 226 142.902 225.063 140.932 223.19C138.961 221.317 137.975 219.089 137.975 216.507C137.975 213.925 138.955 211.751 140.911 209.851C142.868 207.95 145.43 207 148.594 207H148.597ZM148.597 222.156C150.346 222.156 151.757 221.637 152.826 220.599C153.896 219.561 154.431 218.197 154.431 216.509C154.431 214.821 153.896 213.446 152.826 212.412C151.757 211.379 150.346 210.862 148.597 210.862C146.848 210.862 145.421 211.379 144.347 212.412C143.272 213.446 142.735 214.812 142.735 216.509C142.735 218.206 143.272 219.561 144.347 220.599C145.421 221.637 146.836 222.156 148.597 222.156Z" fill="#8C6AF9"/>
<path d="M178.975 207L170.414 225.935H168.412L159.437 207H164.464L169.366 217.583L174.005 207H178.975Z" fill="#8C6AF9"/>
<path d="M188.032 207L196.65 225.912H191.689L189.772 221.863H181.478L180.094 225.935H175.205L182.688 207H188.035H188.032ZM188.423 218.628L185.421 211.428L182.701 218.628H188.425H188.423Z" fill="#8C6AF9"/>
<path d="M55.4368 255V250.68C55.4368 249.528 55.6048 248.61 55.9408 247.926C56.2768 247.242 56.7808 246.75 57.4528 246.45C58.1368 246.15 58.9768 246 59.9728 246C60.9808 246 61.8208 246.15 62.4928 246.45C63.1648 246.75 63.6688 247.242 64.0048 247.926C64.3408 248.61 64.5088 249.528 64.5088 250.68V255H55.4368ZM56.8408 254.334L56.1028 253.722H63.8428L63.1228 254.334V250.68C63.1228 249.816 63.0268 249.138 62.8348 248.646C62.6428 248.142 62.3128 247.788 61.8448 247.584C61.3888 247.38 60.7648 247.278 59.9728 247.278C59.1808 247.278 58.5568 247.38 58.1008 247.584C57.6448 247.788 57.3208 248.142 57.1288 248.646C56.9368 249.138 56.8408 249.816 56.8408 250.68V254.334ZM58.0468 244.38V242.76H59.4508V244.38H58.0468ZM60.5128 244.38V242.76H61.9168V244.38H60.5128ZM65.3905 258.978C65.2345 258.978 65.0725 258.966 64.9045 258.942C64.7245 258.93 64.5505 258.918 64.3825 258.906L64.5445 257.628C64.7125 257.64 64.8685 257.652 65.0125 257.664C65.1565 257.688 65.2825 257.7 65.3905 257.7C65.9545 257.7 66.4105 257.484 66.7585 257.052C67.1065 256.632 67.2805 256.044 67.2805 255.288V246H68.6845V255.288C68.6845 256.02 68.5405 256.662 68.2525 257.214C67.9765 257.778 67.5925 258.21 67.1005 258.51C66.6085 258.822 66.0385 258.978 65.3905 258.978ZM78.417 255V253.722H80.361V255H78.417ZM74.151 258.978C73.731 258.978 73.281 258.942 72.801 258.87C72.333 258.81 71.817 258.72 71.253 258.6L71.469 257.466C72.105 257.55 72.633 257.61 73.053 257.646C73.485 257.682 73.851 257.7 74.151 257.7C75.147 257.7 75.873 257.508 76.329 257.124C76.785 256.752 77.013 256.206 77.013 255.486V246.81L77.733 247.278H74.691C73.995 247.278 73.455 247.362 73.071 247.53C72.699 247.698 72.441 248.016 72.297 248.484C72.153 248.94 72.081 249.612 72.081 250.5C72.081 251.388 72.153 252.066 72.297 252.534C72.441 252.99 72.699 253.302 73.071 253.47C73.455 253.638 73.995 253.722 74.691 253.722H77.013V255H74.691C73.647 255 72.831 254.844 72.243 254.532C71.667 254.208 71.259 253.716 71.019 253.056C70.791 252.384 70.677 251.532 70.677 250.5C70.677 249.468 70.791 248.622 71.019 247.962C71.259 247.29 71.667 246.798 72.243 246.486C72.831 246.162 73.647 246 74.691 246H78.417V255.468C78.417 256.212 78.243 256.848 77.895 257.376C77.559 257.904 77.073 258.3 76.437 258.564C75.801 258.84 75.039 258.978 74.151 258.978ZM80.361 255V253.722C80.433 253.722 80.493 253.74 80.541 253.776C80.589 253.8 80.625 253.842 80.649 253.902C80.673 253.95 80.691 254.016 80.703 254.1C80.715 254.172 80.721 254.256 80.721 254.352C80.721 254.448 80.715 254.538 80.703 254.622C80.691 254.706 80.673 254.778 80.649 254.838C80.625 254.886 80.589 254.928 80.541 254.964C80.493 254.988 80.433 255 80.361 255ZM91.9013 255V253.722H93.8453V255H91.9013ZM80.3633 255V253.722H92.2973L91.0013 254.892V250.662C91.0013 249.906 90.8933 249.282 90.6773 248.79C90.4733 248.286 90.1613 247.908 89.7413 247.656C89.3333 247.404 88.8173 247.278 88.1933 247.278C87.6653 247.278 87.1733 247.368 86.7173 247.548C86.2733 247.716 85.8593 247.944 85.4753 248.232C85.0913 248.508 84.7313 248.82 84.3953 249.168C84.0713 249.504 83.7713 249.846 83.4953 250.194C83.2193 250.542 82.9673 250.86 82.7393 251.148L82.2713 249.87C82.6433 249.402 83.0213 248.94 83.4053 248.484C83.7893 248.028 84.2093 247.614 84.6653 247.242C85.1213 246.87 85.6373 246.57 86.2133 246.342C86.7893 246.114 87.4493 246 88.1933 246C89.0453 246 89.7413 246.144 90.2813 246.432C90.8333 246.72 91.2593 247.104 91.5593 247.584C91.8713 248.052 92.0873 248.556 92.2073 249.096C92.3273 249.636 92.3873 250.158 92.3873 250.662V255H80.3633ZM81.5513 253.722V242.094H82.9553V253.722H81.5513ZM80.3633 255C80.2913 255 80.2313 254.988 80.1833 254.964C80.1353 254.928 80.0993 254.886 80.0753 254.838C80.0513 254.778 80.0333 254.706 80.0213 254.622C80.0093 254.538 80.0033 254.448 80.0033 254.352C80.0033 254.22 80.0153 254.112 80.0393 254.028C80.0513 253.932 80.0873 253.86 80.1473 253.812C80.1953 253.752 80.2673 253.722 80.3633 253.722V255ZM93.8453 255V253.722C93.9173 253.722 93.9773 253.74 94.0253 253.776C94.0733 253.8 94.1093 253.842 94.1333 253.902C94.1573 253.95 94.1753 254.016 94.1873 254.1C94.1993 254.172 94.2053 254.256 94.2053 254.352C94.2053 254.448 94.1993 254.538 94.1873 254.622C94.1753 254.706 94.1573 254.778 94.1333 254.838C94.1093 254.886 94.0733 254.928 94.0253 254.964C93.9773 254.988 93.9173 255 93.8453 255ZM97.1937 255V253.722H99.1377V255H97.1937ZM99.1377 255V253.722C99.2097 253.722 99.2697 253.74 99.3177 253.776C99.3657 253.8 99.4017 253.842 99.4257 253.902C99.4497 253.95 99.4677 254.016 99.4797 254.1C99.4917 254.172 99.4977 254.256 99.4977 254.352C99.4977 254.448 99.4917 254.538 99.4797 254.622C99.4677 254.706 99.4497 254.778 99.4257 254.838C99.4017 254.886 99.3657 254.928 99.3177 254.964C99.2697 254.988 99.2097 255 99.1377 255ZM93.8457 255C93.7737 255 93.7137 254.988 93.6657 254.964C93.6177 254.928 93.5817 254.886 93.5577 254.838C93.5337 254.778 93.5157 254.706 93.5037 254.622C93.4917 254.538 93.4857 254.448 93.4857 254.352C93.4857 254.22 93.4977 254.112 93.5217 254.028C93.5337 253.932 93.5697 253.86 93.6297 253.812C93.6777 253.752 93.7497 253.722 93.8457 253.722V255ZM93.8457 255V253.722H96.4377L95.7897 254.244V246H97.1937V255H93.8457ZM94.5657 244.38V242.76H95.9697V244.38H94.5657ZM97.0317 244.38V242.76H98.4357V244.38H97.0317ZM99.1367 255V253.722H108.983L107.939 254.46V250.59C107.939 249.75 107.843 249.09 107.651 248.61C107.459 248.13 107.129 247.788 106.661 247.584C106.205 247.38 105.581 247.278 104.789 247.278C104.285 247.278 103.781 247.314 103.277 247.386C102.785 247.458 102.401 247.554 102.125 247.674L102.971 246.81C102.899 247.098 102.827 247.464 102.755 247.908C102.683 248.34 102.623 248.808 102.575 249.312C102.527 249.816 102.503 250.32 102.503 250.824C102.503 251.34 102.527 251.844 102.575 252.336C102.623 252.828 102.677 253.254 102.737 253.614C102.797 253.974 102.845 254.226 102.881 254.37L101.549 254.748C101.501 254.592 101.441 254.322 101.369 253.938C101.309 253.554 101.249 253.092 101.189 252.552C101.141 252.012 101.117 251.436 101.117 250.824C101.117 250.236 101.141 249.666 101.189 249.114C101.249 248.55 101.315 248.04 101.387 247.584C101.471 247.128 101.549 246.762 101.621 246.486C101.885 246.378 102.305 246.27 102.881 246.162C103.457 246.054 104.093 246 104.789 246C105.797 246 106.637 246.15 107.309 246.45C107.993 246.75 108.503 247.236 108.839 247.908C109.175 248.568 109.343 249.462 109.343 250.59V255H99.1367ZM99.1367 255C99.0647 255 99.0047 254.988 98.9567 254.964C98.9087 254.928 98.8727 254.886 98.8487 254.838C98.8247 254.778 98.8067 254.706 98.7947 254.622C98.7827 254.538 98.7767 254.448 98.7767 254.352C98.7767 254.22 98.7887 254.112 98.8127 254.028C98.8247 253.932 98.8607 253.86 98.9207 253.812C98.9687 253.752 99.0407 253.722 99.1367 253.722V255ZM119.375 255C118.331 255 117.515 254.844 116.927 254.532C116.351 254.208 115.943 253.716 115.703 253.056C115.475 252.384 115.361 251.532 115.361 250.5C115.361 249.468 115.475 248.622 115.703 247.962C115.943 247.29 116.351 246.798 116.927 246.486C117.515 246.162 118.331 246 119.375 246H123.101V254.28H121.697V246.666L122.417 247.278H119.375C118.679 247.278 118.139 247.362 117.755 247.53C117.383 247.698 117.125 248.016 116.981 248.484C116.837 248.94 116.765 249.612 116.765 250.5C116.765 251.388 116.837 252.066 116.981 252.534C117.125 252.99 117.383 253.302 117.755 253.47C118.139 253.638 118.679 253.722 119.375 253.722H125.045V255H119.375ZM125.045 255V253.722C125.117 253.722 125.177 253.74 125.225 253.776C125.273 253.8 125.309 253.842 125.333 253.902C125.357 253.95 125.375 254.016 125.387 254.1C125.399 254.172 125.405 254.256 125.405 254.352C125.405 254.448 125.399 254.538 125.387 254.622C125.375 254.706 125.357 254.778 125.333 254.838C125.309 254.886 125.273 254.928 125.225 254.964C125.177 254.988 125.117 255 125.045 255ZM117.629 244.38V242.76H119.033V244.38H117.629ZM120.095 244.38V242.76H121.499V244.38H120.095ZM128.395 255V253.722H130.339V255H128.395ZM130.339 255V253.722C130.411 253.722 130.471 253.74 130.519 253.776C130.567 253.8 130.603 253.842 130.627 253.902C130.651 253.95 130.669 254.016 130.681 254.1C130.693 254.172 130.699 254.256 130.699 254.352C130.699 254.448 130.693 254.538 130.681 254.622C130.669 254.706 130.651 254.778 130.627 254.838C130.603 254.886 130.567 254.928 130.519 254.964C130.471 254.988 130.411 255 130.339 255ZM125.047 255C124.975 255 124.915 254.988 124.867 254.964C124.819 254.928 124.783 254.886 124.759 254.838C124.735 254.778 124.717 254.706 124.705 254.622C124.693 254.538 124.687 254.448 124.687 254.352C124.687 254.22 124.699 254.112 124.723 254.028C124.735 253.932 124.771 253.86 124.831 253.812C124.879 253.752 124.951 253.722 125.047 253.722V255ZM125.047 255V253.722H127.639L126.991 254.244V246H128.395V255H125.047ZM125.767 258.24V256.62H127.171V258.24H125.767ZM128.233 258.24V256.62H129.637V258.24H128.233ZM140.544 255V253.722H142.488V255H140.544ZM130.338 255C130.266 255 130.206 254.988 130.158 254.964C130.11 254.928 130.074 254.886 130.05 254.838C130.026 254.778 130.008 254.706 129.996 254.622C129.984 254.538 129.978 254.448 129.978 254.352C129.978 254.22 129.99 254.112 130.014 254.028C130.026 253.932 130.062 253.86 130.122 253.812C130.17 253.752 130.242 253.722 130.338 253.722V255ZM130.338 255V253.722H140.184L139.14 254.46V250.59C139.14 249.75 139.044 249.09 138.852 248.61C138.66 248.13 138.33 247.788 137.862 247.584C137.406 247.38 136.782 247.278 135.99 247.278C135.486 247.278 134.982 247.314 134.478 247.386C133.986 247.458 133.602 247.554 133.326 247.674L134.172 246.81C134.1 247.098 134.028 247.464 133.956 247.908C133.884 248.34 133.824 248.808 133.776 249.312C133.728 249.816 133.704 250.32 133.704 250.824C133.704 251.34 133.728 251.844 133.776 252.336C133.824 252.828 133.878 253.254 133.938 253.614C133.998 253.974 134.046 254.226 134.082 254.37L132.75 254.748C132.702 254.592 132.642 254.322 132.57 253.938C132.51 253.554 132.45 253.092 132.39 252.552C132.342 252.012 132.318 251.436 132.318 250.824C132.318 250.236 132.342 249.666 132.39 249.114C132.45 248.55 132.516 248.04 132.588 247.584C132.672 247.128 132.75 246.762 132.822 246.486C133.086 246.378 133.506 246.27 134.082 246.162C134.658 246.054 135.294 246 135.99 246C136.998 246 137.838 246.15 138.51 246.45C139.194 246.75 139.704 247.236 140.04 247.908C140.376 248.568 140.544 249.462 140.544 250.59V255H130.338ZM142.488 255V253.722C142.56 253.722 142.62 253.74 142.668 253.776C142.716 253.8 142.752 253.842 142.776 253.902C142.8 253.95 142.818 254.016 142.83 254.1C142.842 254.172 142.848 254.256 142.848 254.352C142.848 254.448 142.842 254.538 142.83 254.622C142.818 254.706 142.8 254.778 142.776 254.838C142.752 254.886 142.716 254.928 142.668 254.964C142.62 254.988 142.56 255 142.488 255ZM142.484 255V253.722H151.574L150.638 254.532V246.666L151.376 247.278H148.316C147.62 247.278 147.08 247.362 146.696 247.53C146.324 247.698 146.066 248.016 145.922 248.484C145.778 248.94 145.706 249.612 145.706 250.5C145.706 251.388 145.778 252.066 145.922 252.534C146.066 252.99 146.324 253.302 146.696 253.47C147.08 253.638 147.62 253.722 148.316 253.722V254.64C147.272 254.64 146.456 254.514 145.868 254.262C145.292 253.998 144.884 253.566 144.644 252.966C144.416 252.354 144.302 251.532 144.302 250.5C144.302 249.468 144.416 248.622 144.644 247.962C144.884 247.29 145.292 246.798 145.868 246.486C146.456 246.162 147.272 246 148.316 246H152.042V255H142.484ZM142.484 255C142.412 255 142.352 254.988 142.304 254.964C142.256 254.928 142.22 254.886 142.196 254.838C142.172 254.778 142.154 254.706 142.142 254.622C142.13 254.538 142.124 254.448 142.124 254.352C142.124 254.22 142.136 254.112 142.16 254.028C142.172 253.932 142.208 253.86 142.268 253.812C142.316 253.752 142.388 253.722 142.484 253.722V255ZM146.66 244.38V242.76H148.064V244.38H146.66ZM149.126 244.38V242.76H150.53V244.38H149.126ZM153.58 258.978C153.424 258.978 153.262 258.966 153.094 258.942C152.914 258.93 152.74 258.918 152.572 258.906L152.734 257.628C152.902 257.64 153.058 257.652 153.202 257.664C153.346 257.688 153.472 257.7 153.58 257.7C154.144 257.7 154.6 257.484 154.948 257.052C155.296 256.632 155.47 256.044 155.47 255.288V246H156.874V255.288C156.874 256.02 156.73 256.662 156.442 257.214C156.166 257.778 155.782 258.21 155.29 258.51C154.798 258.822 154.228 258.978 153.58 258.978ZM167.88 259.464C166.932 259.464 166.074 259.29 165.306 258.942C164.538 258.594 163.932 258.108 163.488 257.484C163.044 256.86 162.822 256.146 162.822 255.342C162.822 255.09 162.84 254.76 162.876 254.352C162.924 253.932 162.978 253.47 163.038 252.966C163.11 252.45 163.188 251.934 163.272 251.418C163.356 250.89 163.434 250.392 163.506 249.924L164.892 250.14C164.76 250.968 164.64 251.736 164.532 252.444C164.436 253.14 164.358 253.74 164.298 254.244C164.25 254.736 164.226 255.102 164.226 255.342C164.226 255.894 164.376 256.38 164.676 256.8C164.988 257.232 165.42 257.568 165.972 257.808C166.524 258.06 167.16 258.186 167.88 258.186C168.6 258.186 169.218 258.072 169.734 257.844C170.25 257.616 170.646 257.298 170.922 256.89C171.198 256.482 171.336 256.002 171.336 255.45V242.094H172.74V255.45C172.74 256.29 172.518 257.01 172.074 257.61C171.642 258.21 171.06 258.666 170.328 258.978C169.596 259.302 168.78 259.464 167.88 259.464ZM182.55 255V253.722H184.494V255H182.55ZM178.284 258.978C177.864 258.978 177.414 258.942 176.934 258.87C176.466 258.81 175.95 258.72 175.386 258.6L175.602 257.466C176.238 257.55 176.766 257.61 177.186 257.646C177.618 257.682 177.984 257.7 178.284 257.7C179.28 257.7 180.006 257.508 180.462 257.124C180.918 256.752 181.146 256.206 181.146 255.486V246.81L181.866 247.278H178.824C178.128 247.278 177.588 247.362 177.204 247.53C176.832 247.698 176.574 248.016 176.43 248.484C176.286 248.94 176.214 249.612 176.214 250.5C176.214 251.388 176.286 252.066 176.43 252.534C176.574 252.99 176.832 253.302 177.204 253.47C177.588 253.638 178.128 253.722 178.824 253.722H181.146V255H178.824C177.78 255 176.964 254.844 176.376 254.532C175.8 254.208 175.392 253.716 175.152 253.056C174.924 252.384 174.81 251.532 174.81 250.5C174.81 249.468 174.924 248.622 175.152 247.962C175.392 247.29 175.8 246.798 176.376 246.486C176.964 246.162 177.78 246 178.824 246H182.55V255.468C182.55 256.212 182.376 256.848 182.028 257.376C181.692 257.904 181.206 258.3 180.57 258.564C179.934 258.84 179.172 258.978 178.284 258.978ZM184.494 255V253.722C184.566 253.722 184.626 253.74 184.674 253.776C184.722 253.8 184.758 253.842 184.782 253.902C184.806 253.95 184.824 254.016 184.836 254.1C184.848 254.172 184.854 254.256 184.854 254.352C184.854 254.448 184.848 254.538 184.836 254.622C184.824 254.706 184.806 254.778 184.782 254.838C184.758 254.886 184.722 254.928 184.674 254.964C184.626 254.988 184.566 255 184.494 255ZM188.078 255V253.722H190.022V255H188.078ZM184.496 255C184.424 255 184.364 254.988 184.316 254.964C184.268 254.928 184.232 254.886 184.208 254.838C184.184 254.778 184.166 254.706 184.154 254.622C184.142 254.538 184.136 254.448 184.136 254.352C184.136 254.22 184.148 254.112 184.172 254.028C184.184 253.932 184.22 253.86 184.28 253.812C184.328 253.752 184.4 253.722 184.496 253.722V255ZM186.674 255V242.094H188.078V255H186.674ZM184.496 255V253.722H186.674V255H184.496ZM190.022 255V253.722C190.094 253.722 190.154 253.74 190.202 253.776C190.25 253.8 190.286 253.842 190.31 253.902C190.334 253.95 190.352 254.016 190.364 254.1C190.376 254.172 190.382 254.256 190.382 254.352C190.382 254.448 190.376 254.538 190.364 254.622C190.352 254.706 190.334 254.778 190.31 254.838C190.286 254.886 190.25 254.928 190.202 254.964C190.154 254.988 190.094 255 190.022 255ZM190.016 255V253.722H197.954L197.522 254.1V249.636C197.522 248.856 197.276 248.274 196.784 247.89C196.304 247.494 195.566 247.296 194.57 247.296C194.258 247.296 193.808 247.326 193.22 247.386C192.632 247.434 192.014 247.506 191.366 247.602L191.204 246.45C191.696 246.33 192.236 246.228 192.824 246.144C193.412 246.048 193.982 246 194.534 246C195.446 246 196.226 246.144 196.874 246.432C197.534 246.708 198.038 247.116 198.386 247.656C198.746 248.196 198.926 248.856 198.926 249.636V255H190.016ZM190.016 255C189.944 255 189.884 254.988 189.836 254.964C189.788 254.928 189.752 254.886 189.728 254.838C189.704 254.778 189.686 254.706 189.674 254.622C189.662 254.538 189.656 254.448 189.656 254.352C189.656 254.22 189.668 254.112 189.692 254.028C189.704 253.932 189.74 253.86 189.8 253.812C189.848 253.752 189.92 253.722 190.016 253.722V255Z" fill="#7B7790"/>
<defs>
<filter id="filter0_f_2015_3" x="0.599998" y="0.599998" width="252.8" height="252.8" filterUnits="userSpaceOnUse" color-interpolation-filters="sRGB">
<feFlood flood-opacity="0" result="BackgroundImageFix"/>
<feBlend mode="normal" in="SourceGraphic" in2="BackgroundImageFix" result="shape"/>
<feGaussianBlur stdDeviation="41.7" result="effect1_foregroundBlur_2015_3"/>
</filter>
</defs>
</svg>
