<svg width="26" height="27" viewBox="0 0 26 27" fill="none" xmlns="http://www.w3.org/2000/svg">
<path d="M5.07324 5.17059H20.2949C21.5086 5.17059 22.3554 5.17261 22.9941 5.25848C23.6143 5.3419 23.9428 5.49428 24.1768 5.72821C24.4108 5.96224 24.5631 6.29132 24.6465 6.9118C24.7323 7.55042 24.7344 8.39669 24.7344 9.61005C24.7344 9.92694 24.733 10.1017 24.7168 10.2224C24.7167 10.2234 24.716 10.2243 24.7158 10.2253C24.7143 10.2255 24.7125 10.227 24.7109 10.2272C24.5903 10.2434 24.4161 10.2448 24.0996 10.2448H1.26855C0.951841 10.2448 0.77784 10.2434 0.657227 10.2272C0.655239 10.227 0.653253 10.2255 0.651367 10.2253V10.2224C0.63515 10.1017 0.633789 9.92694 0.633789 9.61005C0.633789 8.39671 0.635864 7.55042 0.72168 6.9118C0.805103 6.29131 0.957373 5.96224 1.19141 5.72821C1.42544 5.49418 1.75451 5.34191 2.375 5.25848C3.01361 5.17267 3.85991 5.17059 5.07324 5.17059Z" fill="#7E60E2" stroke="#7E60E2" stroke-width="1.26842"/>
<path d="M1.26855 14.0495H24.0996C24.4161 14.0495 24.5903 14.0509 24.7109 14.0671C24.7121 14.0672 24.7137 14.0679 24.7148 14.0681C24.7151 14.0696 24.7166 14.0713 24.7168 14.0729C24.733 14.1936 24.7344 14.3676 24.7344 14.6843V21.0261C24.7344 22.2399 24.7324 23.0866 24.6465 23.7253C24.5631 24.3457 24.4108 24.6748 24.1768 24.9089C23.9428 25.1427 23.6141 25.2952 22.9941 25.3786C22.3554 25.4645 21.5086 25.4655 20.2949 25.4655H5.07324C3.85994 25.4655 3.01361 25.4644 2.375 25.3786C1.75468 25.2952 1.42542 25.1428 1.19141 24.9089C0.957366 24.6748 0.805103 24.3458 0.72168 23.7253C0.635804 23.0866 0.633789 22.2399 0.633789 21.0261V14.6843C0.633789 14.3676 0.635181 14.1936 0.651367 14.0729C0.651581 14.0713 0.652131 14.0696 0.652344 14.0681C0.653861 14.0678 0.655644 14.0673 0.657227 14.0671C0.777854 14.0509 0.951906 14.0495 1.26855 14.0495ZM7.61035 20.3923C7.32937 20.3923 7.0548 20.3904 6.83008 20.4206C6.58709 20.4533 6.30946 20.5331 6.0791 20.7634C5.84884 20.9937 5.769 21.2713 5.73633 21.5143C5.70613 21.7391 5.70801 22.0137 5.70801 22.2946C5.70801 22.5756 5.70614 22.8501 5.73633 23.0749C5.76491 23.2875 5.83011 23.5263 6 23.737L6.0791 23.8259C6.30946 24.0562 6.58709 24.136 6.83008 24.1686C7.0548 24.1988 7.32937 24.197 7.61035 24.197H10.1475C10.4285 24.197 10.703 24.1988 10.9277 24.1686C11.1404 24.1401 11.3791 24.075 11.5898 23.905L11.6787 23.8259C11.9089 23.5955 11.9888 23.3179 12.0215 23.0749C12.0517 22.8501 12.0498 22.5756 12.0498 22.2946C12.0498 22.0136 12.0517 21.7391 12.0215 21.5143C11.9929 21.3017 11.9277 21.063 11.7578 20.8522L11.6787 20.7634L11.5898 20.6843C11.3791 20.5143 11.1404 20.4492 10.9277 20.4206C10.703 20.3904 10.4285 20.3923 10.1475 20.3923H7.61035ZM15.2207 20.3923C14.9398 20.3923 14.6651 20.3904 14.4404 20.4206C14.1975 20.4533 13.9207 20.5334 13.6904 20.7634H13.6895C13.4592 20.9937 13.3803 21.2713 13.3477 21.5143C13.3175 21.7391 13.3184 22.0136 13.3184 22.2946C13.3184 22.5756 13.3175 22.8501 13.3477 23.0749C13.3803 23.3179 13.4593 23.5955 13.6895 23.8259H13.6904C13.9207 24.0559 14.1975 24.136 14.4404 24.1686C14.6651 24.1988 14.9398 24.197 15.2207 24.197H17.7578C18.0388 24.197 18.3133 24.1988 18.5381 24.1686C18.7507 24.1401 18.9895 24.0749 19.2002 23.905L19.2891 23.8259C19.5193 23.5955 19.5992 23.3179 19.6318 23.0749C19.662 22.8501 19.6602 22.5756 19.6602 22.2946C19.6602 22.0136 19.662 21.7391 19.6318 21.5143C19.5992 21.2713 19.5193 20.9937 19.2891 20.7634L19.2002 20.6843C18.9895 20.5143 18.7507 20.4492 18.5381 20.4206C18.3133 20.3904 18.0388 20.3923 17.7578 20.3923H15.2207ZM7.61035 15.3181C7.32937 15.3181 7.0548 15.3171 6.83008 15.3474C6.61753 15.3759 6.37864 15.4402 6.16797 15.61L6.0791 15.6901C5.84912 15.9203 5.76902 16.1972 5.73633 16.4401C5.70611 16.6649 5.70801 16.9403 5.70801 17.2214C5.70801 17.5023 5.70612 17.777 5.73633 18.0016C5.76901 18.2445 5.84913 18.5214 6.0791 18.7516V18.7526C6.30943 18.9829 6.58712 19.0618 6.83008 19.0944C7.0548 19.1246 7.32937 19.1237 7.61035 19.1237H10.1475C10.4285 19.1237 10.703 19.1246 10.9277 19.0944C11.1707 19.0618 11.4484 18.9828 11.6787 18.7526V18.7516C11.9087 18.5214 11.9888 18.2445 12.0215 18.0016C12.0517 17.777 12.0498 17.5023 12.0498 17.2214C12.0498 16.9403 12.0517 16.6649 12.0215 16.4401C11.9929 16.2275 11.9278 15.9887 11.7578 15.778L11.6787 15.6901L11.5898 15.61C11.3792 15.4402 11.1403 15.3759 10.9277 15.3474C10.703 15.3171 10.4285 15.3181 10.1475 15.3181H7.61035ZM15.2207 15.3181C14.9398 15.3181 14.6651 15.3172 14.4404 15.3474C14.1975 15.38 13.9207 15.46 13.6904 15.6901H13.6895C13.4596 15.9203 13.3803 16.1973 13.3477 16.4401C13.3174 16.6649 13.3184 16.9403 13.3184 17.2214C13.3184 17.5023 13.3175 17.777 13.3477 18.0016C13.3803 18.2445 13.4596 18.5214 13.6895 18.7516L13.6904 18.7526C13.9206 18.9825 14.1976 19.0618 14.4404 19.0944C14.6651 19.1246 14.9398 19.1237 15.2207 19.1237H17.7578C18.0388 19.1237 18.3133 19.1246 18.5381 19.0944C18.7811 19.0618 19.0587 18.9828 19.2891 18.7526V18.7516C19.5191 18.5214 19.5992 18.2446 19.6318 18.0016C19.662 17.777 19.6602 17.5023 19.6602 17.2214C19.6602 16.9403 19.662 16.6649 19.6318 16.4401C19.6032 16.2276 19.5389 15.9886 19.3691 15.778L19.2891 15.6901L19.2002 15.61C18.9895 15.4403 18.7506 15.3759 18.5381 15.3474C18.3133 15.3172 18.0388 15.3181 17.7578 15.3181H15.2207Z" fill="#7E60E2" stroke="#7E60E2" stroke-width="1.26842"/>
<path d="M6.34216 2V5.80526V2Z" fill="#7E60E2"/>
<path d="M6.34216 2V5.80526" stroke="#7E60E2" stroke-width="2.53684" stroke-linecap="round"/>
<path d="M19.0262 2V5.80526V2Z" fill="#7E60E2"/>
<path d="M19.0262 2V5.80526" stroke="#7E60E2" stroke-width="2.53684" stroke-linecap="round"/>
</svg>
