<svg width="79" height="79" viewBox="0 0 79 79" fill="none" xmlns="http://www.w3.org/2000/svg">
<path d="M67 0H12C5.37258 0 0 5.37258 0 12V67C0 73.6274 5.37258 79 12 79H67C73.6274 79 79 73.6274 79 67V12C79 5.37258 73.6274 0 67 0Z" fill="#8C6AF9"/>
<path d="M41.957 36.8206H36.5984V42.1792H41.957V36.8206Z" fill="white"/>
<path d="M37.8105 33.8859V18.8524C36.4143 17.6963 34.6246 17 32.6744 17C28.2241 17 24.6036 20.6206 24.6036 25.0708C24.6036 25.3164 24.6163 25.5599 24.6385 25.8015C23.0249 26.224 21.5557 27.0951 20.3956 28.3369C18.8507 29.9909 18 32.1487 18 34.413C18 36.3014 18.5916 38.054 19.5983 39.4963C18.5608 40.9812 18 42.7483 18 44.5868C18 48.7133 20.8222 52.1927 24.6377 53.1972C24.6158 53.4399 24.6034 53.6839 24.6034 53.9291C24.6034 58.3794 28.224 61.9999 32.6742 61.9999C34.6245 61.9999 36.4142 61.3036 37.8103 60.1475V47.1542L37.8104 45.1142H36.5984V47.1542H33.6636V45.1142H31.6236V42.1794H33.6636V40.9675H31.6236V38.0328H33.6636V36.8207H31.6236V33.886H33.6636V31.846H36.5984V33.886H37.8105V33.8859Z" fill="white"/>
<path d="M60.5558 34.4131C60.5558 32.1487 59.705 29.991 58.1601 28.3371C57.0002 27.0953 55.5309 26.2243 53.9173 25.8016C53.9395 25.56 53.9522 25.3164 53.9522 25.071C53.9523 20.6206 50.3317 17 45.8814 17C43.9312 17 42.1414 17.6963 40.7453 18.8524V33.8859H41.9572V31.8459H44.892V33.8859H46.932V36.8207H44.892V38.0327H46.932V40.9674H44.892V42.1793H46.932V45.1141H44.892V47.1541H41.9572V45.1141H40.7453V60.1476C42.1414 61.3037 43.9312 62 45.8814 62C50.3317 62 53.9522 58.3794 53.9522 53.9292C53.9522 53.6841 53.9399 53.4401 53.9179 53.1973C57.7334 52.1928 60.5556 48.7135 60.5556 44.5869C60.5556 42.7483 59.9947 40.9812 58.9573 39.4964C59.9643 38.0541 60.5558 36.3015 60.5558 34.4131Z" fill="white"/>
</svg>
