<svg width="119" height="119" viewBox="0 0 119 119" fill="none" xmlns="http://www.w3.org/2000/svg">
<g filter="url(#filter0_d_229_295)">
<path d="M83 18H36C27.1634 18 20 25.1634 20 34V81C20 89.8366 27.1634 97 36 97H83C91.8366 97 99 89.8366 99 81V34C99 25.1634 91.8366 18 83 18Z" fill="#6161FF"/>
<path d="M62.4 56.2H55.2C54.2452 56.2 53.3295 55.8207 52.6544 55.1456C51.9793 54.4705 51.6 53.5548 51.6 52.6C51.6 51.6452 51.9793 50.7295 52.6544 50.0544C53.3295 49.3793 54.2452 49 55.2 49H64.2C64.6774 49 65.1352 49.1896 65.4728 49.5272C65.8104 49.8648 66 50.3226 66 50.8C66 51.2774 66.1896 51.7352 66.5272 52.0728C66.8648 52.4104 67.3226 52.6 67.8 52.6C68.2774 52.6 68.7352 52.4104 69.0728 52.0728C69.4104 51.7352 69.6 51.2774 69.6 50.8C69.6 49.3678 69.0311 47.9943 68.0184 46.9816C67.0057 45.9689 65.6322 45.4 64.2 45.4H60.6V41.8C60.6 41.3226 60.4104 40.8648 60.0728 40.5272C59.7352 40.1896 59.2774 40 58.8 40C58.3226 40 57.8648 40.1896 57.5272 40.5272C57.1896 40.8648 57 41.3226 57 41.8V45.4H55.2C53.2904 45.4 51.4591 46.1586 50.1088 47.5088C48.7586 48.8591 48 50.6904 48 52.6C48 54.5096 48.7586 56.3409 50.1088 57.6912C51.4591 59.0414 53.2904 59.8 55.2 59.8H62.4C63.3548 59.8 64.2705 60.1793 64.9456 60.8544C65.6207 61.5295 66 62.4452 66 63.4C66 64.3548 65.6207 65.2705 64.9456 65.9456C64.2705 66.6207 63.3548 67 62.4 67H53.4C52.9226 67 52.4648 66.8104 52.1272 66.4728C51.7896 66.1352 51.6 65.6774 51.6 65.2C51.6 64.7226 51.4104 64.2648 51.0728 63.9272C50.7352 63.5896 50.2774 63.4 49.8 63.4C49.3226 63.4 48.8648 63.5896 48.5272 63.9272C48.1896 64.2648 48 64.7226 48 65.2C48 66.6322 48.5689 68.0057 49.5816 69.0184C50.5943 70.0311 51.9678 70.6 53.4 70.6H57V74.2C57 74.6774 57.1896 75.1352 57.5272 75.4728C57.8648 75.8104 58.3226 76 58.8 76C59.2774 76 59.7352 75.8104 60.0728 75.4728C60.4104 75.1352 60.6 74.6774 60.6 74.2V70.6H62.4C64.3096 70.6 66.1409 69.8414 67.4912 68.4912C68.8414 67.1409 69.6 65.3096 69.6 63.4C69.6 61.4904 68.8414 59.6591 67.4912 58.3088C66.1409 56.9586 64.3096 56.2 62.4 56.2Z" fill="white"/>
</g>
<defs>
<filter id="filter0_d_229_295" x="0" y="0" width="119" height="119" filterUnits="userSpaceOnUse" color-interpolation-filters="sRGB">
<feFlood flood-opacity="0" result="BackgroundImageFix"/>
<feColorMatrix in="SourceAlpha" type="matrix" values="0 0 0 0 0 0 0 0 0 0 0 0 0 0 0 0 0 0 127 0" result="hardAlpha"/>
<feOffset dy="2"/>
<feGaussianBlur stdDeviation="10"/>
<feComposite in2="hardAlpha" operator="out"/>
<feColorMatrix type="matrix" values="0 0 0 0 0.54902 0 0 0 0 0.415686 0 0 0 0 0.976471 0 0 0 0.5 0"/>
<feBlend mode="normal" in2="BackgroundImageFix" result="effect1_dropShadow_229_295"/>
<feBlend mode="normal" in="SourceGraphic" in2="effect1_dropShadow_229_295" result="shape"/>
</filter>
</defs>
</svg>
