<svg width="79" height="79" viewBox="0 0 79 79" fill="none" xmlns="http://www.w3.org/2000/svg">
<path d="M67 0H12C5.37258 0 0 5.37258 0 12V67C0 73.6274 5.37258 79 12 79H67C73.6274 79 79 73.6274 79 67V12C79 5.37258 73.6274 0 67 0Z" fill="#8C6AF9"/>
<path d="M55.5334 27.4345V27.3801H55.4946C53.623 25.0747 51.2606 23.2159 48.5796 21.9392C45.8986 20.6625 42.9666 20 39.9971 20C37.0276 20 34.0956 20.6625 31.4146 21.9392C28.7336 23.2159 26.3712 25.0747 24.4996 27.3801H24.4627V27.4345C21.5759 30.9867 20 35.4245 20 40.0018C20 44.5791 21.5759 49.0169 24.4627 52.5691V52.6235H24.5015C26.3731 54.9289 28.7355 56.7877 31.4165 58.0644C34.0975 59.3411 37.0296 60.0036 39.999 60.0036C42.9685 60.0036 45.9006 59.3411 48.5816 58.0644C51.2625 56.7877 53.6249 54.9289 55.4965 52.6235H55.5373V52.5691C58.4241 49.0169 60 44.5791 60 40.0018C60 35.4245 58.4241 30.9867 55.5373 27.4345H55.5334ZM40.968 27.3801V22.0829C42.1186 22.5658 43.1534 23.2878 44.0037 24.2011C44.8541 25.1143 45.5005 26.198 45.9002 27.3801H40.968ZM46.6672 29.3219C47.7067 32.456 48.2652 35.7295 48.3235 39.0309H40.968V29.3219H46.6672ZM39.0262 22.0829V27.3801H34.094C34.4937 26.198 35.1401 25.1143 35.9904 24.2011C36.8408 23.2878 37.8756 22.5658 39.0262 22.0829ZM39.0262 29.3219V39.0309H31.6706C31.729 35.7295 32.2875 32.456 33.327 29.3219H39.0262ZM29.7308 39.0309H21.9888C22.1728 35.5236 23.3828 32.1476 25.4685 29.3219H31.2629C30.2955 32.4695 29.781 35.7384 29.7308 39.0309ZM29.7308 40.9727C29.7804 44.2652 30.2962 47.534 31.2629 50.6817H25.4685C23.3828 47.856 22.1728 44.48 21.9888 40.9727H29.7308ZM31.6726 40.9727H39.0262V50.6817H33.327C32.2875 47.5477 31.729 44.2741 31.6706 40.9727H31.6726ZM39.0262 52.6235V57.9207C37.8756 57.4378 36.8408 56.7158 35.9904 55.8025C35.1401 54.8893 34.4937 53.8056 34.094 52.6235H39.0262ZM40.968 57.9207V52.6235H45.9002C45.5005 53.8056 44.8541 54.8893 44.0037 55.8025C43.1534 56.7158 42.1186 57.4378 40.968 57.9207ZM40.968 50.6817V40.9727H48.3235C48.2652 44.2741 47.7067 47.5477 46.6672 50.6817H40.968ZM50.2634 40.9727H58.0053C57.8213 44.48 56.6114 47.856 54.5256 50.6817H48.7313C49.6987 47.5341 50.2132 44.2653 50.2634 40.9727ZM50.2634 39.0309C50.2138 35.7385 49.698 32.4696 48.7313 29.3219H54.5256C56.6114 32.1476 57.8213 35.5236 58.0053 39.0309H50.2634ZM52.8887 27.3801H48.0323C47.3624 25.6844 46.4169 24.1111 45.2341 22.7237C48.1361 23.6086 50.7685 25.21 52.8887 27.3801ZM34.76 22.7237C33.5779 24.1112 32.6332 25.6846 31.9639 27.3801H27.1035C29.2237 25.21 31.8561 23.6086 34.7581 22.7237H34.76ZM27.1055 52.6235H31.9619C32.6318 54.3192 33.5773 55.8925 34.76 57.28C31.8581 56.395 29.2256 54.7936 27.1055 52.6235ZM45.2341 57.28C46.4162 55.8924 47.361 54.319 48.0303 52.6235H52.8887C50.7685 54.7936 48.1361 56.395 45.2341 57.28Z" fill="white"/>
</svg>
