<svg width="32" height="31" viewBox="0 0 32 31" fill="none" xmlns="http://www.w3.org/2000/svg">
<path d="M16.3454 7.53426C14.7728 7.53426 13.2355 8.0006 11.928 8.87429C10.6204 9.74797 9.60128 10.9898 8.99947 12.4427C8.39766 13.8956 8.24021 15.4944 8.54701 17.0367C8.85379 18.579 9.61107 19.9959 10.7231 21.1079C11.8351 22.2197 13.2518 22.977 14.7941 23.2838C16.3367 23.5906 17.9353 23.4332 19.3882 22.8314C20.8411 22.2296 22.0829 21.2105 22.9565 19.903C23.8304 18.5953 24.2966 17.058 24.2966 15.4854C24.2991 14.4405 24.0953 13.4055 23.6966 12.4397C23.2979 11.4738 22.7124 10.5963 21.9735 9.85742C21.2346 9.11856 20.3571 8.53299 19.3913 8.1343C18.4253 7.73563 17.3903 7.53172 16.3454 7.53426ZM16.3454 20.6634C15.3212 20.6634 14.3202 20.3597 13.4686 19.7907C12.6173 19.2219 11.9535 18.4132 11.5616 17.467C11.1697 16.5208 11.0672 15.4798 11.2669 14.4753C11.4667 13.4709 11.9599 12.5482 12.684 11.824C13.4081 11.0999 14.3308 10.6068 15.3352 10.407C16.3398 10.2072 17.3808 10.3097 18.327 10.7016C19.2732 11.0935 20.0819 11.7573 20.6507 12.6087C21.2197 13.4602 21.5234 14.4613 21.5234 15.4854C21.5234 16.8587 20.9779 18.1759 20.0068 19.1469C19.0358 20.1179 17.7186 20.6634 16.3454 20.6634ZM26.488 7.20457C26.488 7.58815 26.3744 7.9631 26.1613 8.282C25.9481 8.60092 25.6452 8.8495 25.2909 8.99627C24.9366 9.14306 24.5466 9.18146 24.1704 9.10664C23.7941 9.0318 23.4487 8.8471 23.1774 8.57588C22.9063 8.30467 22.7215 7.95912 22.6466 7.58293C22.5718 7.20672 22.6102 6.8168 22.757 6.46243C22.9038 6.10808 23.1524 5.8052 23.4712 5.5921C23.7903 5.37899 24.1651 5.26525 24.5487 5.26525C25.063 5.26525 25.5564 5.46958 25.92 5.83328C26.2838 6.19696 26.488 6.69024 26.488 7.20457ZM31.7436 9.14389C31.8 6.73299 30.9008 4.3976 29.2419 2.64717C27.5008 0.967119 25.1643 0.0464661 22.7452 0.0872694C20.224 -0.0290898 12.4668 -0.0290898 9.94567 0.0872694C7.5355 0.0350823 5.20166 0.933801 3.44895 2.58899C1.79013 4.33942 0.890829 6.67481 0.947224 9.08571C0.830865 11.6068 0.830865 19.3641 0.947224 21.8852C0.890829 24.2962 1.79013 26.6315 3.44895 28.3819C5.20166 30.0371 7.5355 30.9358 9.94567 30.8836C12.5055 31.0388 20.1853 31.0388 22.7452 30.8836C25.1561 30.9401 27.4914 30.0408 29.2419 28.3819C30.9008 26.6315 31.8 24.2962 31.7436 21.8852C31.86 19.3641 31.86 11.6068 31.7436 9.08571V9.14389ZM28.4468 24.6584C28.1834 25.3256 27.786 25.9312 27.2789 26.4383C26.7718 26.9455 26.1661 27.3428 25.499 27.6062C22.4884 28.2149 19.4107 28.4236 16.3454 28.2268C13.2867 28.4238 10.2153 28.2151 7.21123 27.6062C6.54424 27.3428 5.93841 26.9455 5.43136 26.4383C4.92428 25.9312 4.52678 25.3256 4.26346 24.6584C3.44895 22.6027 3.62349 17.7544 3.62349 15.5048C3.62349 13.2552 3.44895 8.38756 4.26346 6.35127C4.51935 5.67769 4.91402 5.06544 5.42185 4.55426C5.92969 4.04309 6.53933 3.64441 7.21123 3.38411C10.2153 2.77513 13.2867 2.56646 16.3454 2.76353C19.4107 2.56679 22.4884 2.77546 25.499 3.38411C26.1661 3.64743 26.7718 4.04494 27.2789 4.55201C27.786 5.05906 28.1834 5.66489 28.4468 6.33188C29.2613 8.38756 29.0673 13.2358 29.0673 15.4854C29.0673 17.7351 29.2613 22.6027 28.4468 24.639V24.6584Z" fill="white"/>
</svg>
