<svg width="1917" height="601" viewBox="0 0 1917 601" fill="none" xmlns="http://www.w3.org/2000/svg">
<path d="M0 0H142.083C208.568 0 274.259 14.4375 334.617 42.3145L410.841 77.5194C509.334 123.01 624.438 113.731 714.372 53.0511C765.619 18.474 826.03 0 887.851 0H932.213C967.287 0 1002.24 4.05335 1036.39 12.0794L1307.88 75.8993C1513.46 124.227 1729.56 97.3 1917 0V601H1835.74C1734.64 601 1634.26 583.964 1538.81 550.608L1512.38 541.372C1349.76 484.536 1173.56 479.223 1007.81 526.158L926.266 549.248C807.533 582.869 681.165 577.69 565.581 534.468C427.424 482.805 274.762 485.796 138.734 542.831L0 601V0Z" fill="#5845A6"/>
</svg>
