<svg width="22" height="22" viewBox="0 0 22 22" fill="none" xmlns="http://www.w3.org/2000/svg">
<path d="M7.86849 3.74922C9.26179 1.24974 9.95843 0 11 0C12.0416 0 12.7382 1.24973 14.1315 3.74921L14.492 4.39586C14.888 5.10613 15.0859 5.46128 15.3946 5.6956C15.7033 5.92992 16.0876 6.0169 16.8565 6.19086L17.5566 6.34924C20.2621 6.96143 21.615 7.26751 21.9369 8.30252C22.2588 9.33747 21.3365 10.416 19.4919 12.5729L19.0147 13.1309C18.4906 13.7439 18.2285 14.0503 18.1105 14.4295C17.9927 14.8087 18.0323 15.2175 18.1115 16.0354L18.1837 16.7799C18.4625 19.6577 18.602 21.0966 17.7594 21.7363C16.9167 22.3759 15.6501 21.7927 13.1167 20.6263L12.4614 20.3245C11.7415 19.9931 11.3816 19.8273 11 19.8273C10.6184 19.8273 10.2585 19.9931 9.53866 20.3245L8.88328 20.6263C6.34996 21.7927 5.08331 22.3759 4.24067 21.7363C3.39804 21.0966 3.53747 19.6577 3.81635 16.7799L3.88848 16.0354C3.96774 15.2175 4.00736 14.8087 3.88945 14.4295C3.77156 14.0503 3.50948 13.7439 2.98532 13.1309L2.50812 12.5729C0.663578 10.416 -0.258696 9.33747 0.0631642 8.30252C0.385025 7.26751 1.73785 6.96143 4.4435 6.34924L5.14349 6.19086C5.91234 6.0169 6.29677 5.92992 6.60544 5.6956C6.91412 5.46128 7.11209 5.10614 7.50803 4.39586L7.86849 3.74922Z" fill="white"/>
</svg>
