<svg width="31" height="31" viewBox="0 0 31 31" fill="none" xmlns="http://www.w3.org/2000/svg">
<path d="M0 31L2.18786 23.0471C0.843541 20.714 0.137578 18.068 0.141035 15.3754C0.125473 6.89051 7.01598 0 15.4845 0C19.5946 0 23.4538 1.59349 26.3596 4.50027C27.792 5.92512 28.9272 7.62005 29.6997 9.48684C30.4722 11.3536 30.8665 13.3551 30.8599 15.3754C30.8599 23.844 23.9694 30.7345 15.5 30.7345C12.922 30.7345 10.4063 30.0934 8.15616 28.8598L0 31ZM8.51607 26.0941L8.98496 26.3751C10.9531 27.5398 13.1976 28.1548 15.4845 28.1564C22.5159 28.1564 28.2508 22.4226 28.2508 15.3901C28.2508 11.9842 26.9229 8.76609 24.516 6.36027C23.3326 5.17007 21.9252 4.22586 20.3752 3.58207C18.8251 2.93826 17.1628 2.6076 15.4845 2.60913C8.43732 2.61004 2.70438 8.3439 2.70438 15.3763C2.70438 17.7822 3.37657 20.1423 4.65778 22.1735L4.9545 22.6579L3.65772 27.3761L8.51607 26.0941Z" fill="white"/>
<path fill-rule="evenodd" clip-rule="evenodd" d="M11.6564 8.93832C11.3752 8.29725 11.0629 8.28167 10.7973 8.28167C10.5629 8.26611 10.312 8.26611 10.0464 8.26611C9.79729 8.26611 9.3751 8.35953 9.0161 8.75057C8.65619 9.1407 7.67261 10.0629 7.67261 11.9531C7.67261 13.8443 9.04724 15.6723 9.23498 15.9223C9.4218 16.1723 11.8908 20.1716 15.7976 21.7193C19.0469 23.0005 19.7036 22.7505 20.4068 22.6718C21.1093 22.5939 22.6726 21.7504 23.0005 20.8438C23.3128 19.9537 23.3128 19.1725 23.2193 19.0158C23.1258 18.8601 22.8594 18.7658 22.4849 18.5625C22.0939 18.3756 20.2191 17.4379 19.8601 17.3125C19.5002 17.1879 19.2502 17.1255 19.0002 17.5002C18.7502 17.8912 18.0156 18.7503 17.7822 19.0003C17.5624 19.2503 17.3288 19.2814 16.9534 19.0937C16.5633 18.9068 15.3287 18.5002 13.8598 17.1879C12.7187 16.1714 11.9531 14.9066 11.7186 14.5321C11.5007 14.141 11.6875 13.9377 11.8908 13.75C12.063 13.5787 12.2819 13.2975 12.4696 13.0786C12.6564 12.8589 12.7187 12.6876 12.8597 12.4376C12.9843 12.1876 12.922 11.9531 12.8286 11.7663C12.7343 11.5941 12.0007 9.70392 11.6564 8.93832Z" fill="white"/>
</svg>
