<svg width="87" height="87" viewBox="0 0 87 87" fill="none" xmlns="http://www.w3.org/2000/svg">
<circle cx="43.5" cy="43.5" r="43.5" fill="#8C6AF9" fill-opacity="0.1"/>
<path fill-rule="evenodd" clip-rule="evenodd" d="M28.0566 27.5628C27.8252 27.5628 27.6365 27.3789 27.6365 27.1478C27.6365 26.9167 27.8252 26.7328 28.0566 26.7328H32.3434C32.564 26.7328 32.7581 26.9167 32.7581 27.1478C32.7581 27.3789 32.5639 27.5628 32.3434 27.5628H28.0566ZM28.0566 29.3594C27.8252 29.3594 27.6365 29.1702 27.6365 28.9443C27.6365 28.7132 27.8252 28.5295 28.0566 28.5295H35.0014C35.2328 28.5295 35.4216 28.7133 35.4216 28.9443C35.4216 29.1703 35.2328 29.3594 35.0014 29.3594H28.0566ZM28.0566 31.156C27.8252 31.156 27.6365 30.9668 27.6365 30.7356C27.6365 30.5098 27.8252 30.3208 28.0566 30.3208H37.323C37.5491 30.3208 37.7331 30.5099 37.7331 30.7356C37.7331 30.9668 37.549 31.156 37.323 31.156H28.0566ZM28.0566 32.9473C27.8252 32.9473 27.6365 32.7633 27.6365 32.5323C27.6365 32.3011 27.8252 32.1173 28.0566 32.1173H32.3434C32.564 32.1173 32.7581 32.3012 32.7581 32.5323C32.7581 32.7634 32.5639 32.9473 32.3434 32.9473H28.0566ZM69.2474 23.0818C68.8317 22.6719 68.2703 22.4198 67.6551 22.4198H24.8153C24.2009 22.4198 23.6331 22.6719 23.2238 23.0818C22.8137 23.4914 22.562 24.0535 22.562 24.6734V55.515C22.562 56.1347 22.8137 56.7023 23.2238 57.1067C23.6331 57.5165 24.2009 57.7738 24.8153 57.7738H67.655C68.2702 57.7738 68.8317 57.5164 69.2418 57.1121C69.6513 56.7023 69.9036 56.1349 69.9036 55.5151V24.6734C69.9036 24.0535 69.6513 23.4915 69.2474 23.0818ZM67.1618 49.4791V25.1357H25.199V49.4791H67.1618ZM67.9968 24.7207V49.8941C67.9968 50.1253 67.8126 50.3144 67.5821 50.3144H24.7834C24.5528 50.3144 24.3687 50.1253 24.3687 49.8941V24.7207C24.3687 24.4895 24.5529 24.3056 24.7834 24.3056H67.5821C67.8126 24.3056 67.9968 24.4896 67.9968 24.7207ZM46.6531 54.9846C46.5427 54.8795 46.3952 54.8165 46.2328 54.8165C46.0696 54.8165 45.9174 54.8795 45.8126 54.9846C45.7069 55.0949 45.6439 55.2419 45.6439 55.405C45.6439 55.5678 45.7069 55.7148 45.8126 55.8199C45.9174 55.9302 46.0696 55.9933 46.2328 55.9933C46.3952 55.9933 46.5427 55.9302 46.6531 55.8199C46.7579 55.7148 46.8208 55.5678 46.8208 55.405C46.8208 55.2418 46.7577 55.0947 46.6531 54.9846ZM46.2328 53.981C46.6212 53.981 46.9839 54.1439 47.241 54.4014C47.4936 54.6536 47.6566 55.0108 47.6566 55.4048C47.6566 55.7988 47.4936 56.1507 47.241 56.4081C46.9839 56.6656 46.6212 56.8284 46.2328 56.8284C45.8437 56.8284 45.4864 56.6656 45.2293 56.4081C44.9721 56.1507 44.8145 55.7988 44.8145 55.4048C44.8145 55.0108 44.9721 54.6536 45.2238 54.4014C45.4864 54.1439 45.8391 53.981 46.2328 53.981ZM37.0814 38.752H34.7908V43.711H37.0814V38.752ZM34.3816 37.9167H37.4969C37.7222 37.9167 37.9119 38.1059 37.9119 38.3318V44.1261C37.9119 44.3519 37.7224 44.5411 37.4969 44.5411H34.3816C34.1502 44.5411 33.9613 44.3519 33.9613 44.1261V38.3318C33.9613 38.1059 34.15 37.9167 34.3816 37.9167ZM42.2032 32.9578H39.918V43.711H42.2032V32.9578ZM39.4977 32.1276H42.6186C42.8493 32.1276 43.0333 32.3116 43.0333 32.5427V44.1261C43.0333 44.3519 42.8493 44.5411 42.6186 44.5411H39.4977C39.2671 44.5411 39.083 44.3519 39.083 44.1261V32.5427C39.083 32.3116 39.2672 32.1276 39.4977 32.1276ZM47.3256 35.9679H45.0406V43.711H47.3256V35.9679ZM44.625 35.1327H47.7459C47.9712 35.1327 48.1553 35.3165 48.1553 35.5476V44.1262C48.1553 44.352 47.9712 44.5412 47.7459 44.5412H44.625C44.3943 44.5412 44.2048 44.352 44.2048 44.1262V35.5476C44.2048 35.3164 44.3943 35.1327 44.625 35.1327ZM52.4475 38.0849H50.1623V43.711H52.4475V38.0849ZM49.7421 37.2497H52.8623C53.0937 37.2497 53.2825 37.4388 53.2825 37.6646V44.1261C53.2825 44.3519 53.0937 44.5411 52.8623 44.5411H49.7421C49.5161 44.5411 49.332 44.3519 49.332 44.1261V37.6646C49.332 37.4387 49.5161 37.2497 49.7421 37.2497ZM57.5692 34.2396H55.284V43.711H57.5692V34.2396ZM54.8693 33.4095H57.9895C58.221 33.4095 58.4042 33.5987 58.4042 33.8246V44.1261C58.4042 44.3519 58.221 44.5411 57.9895 44.5411H54.8693C54.6379 44.5411 54.4537 44.3519 54.4537 44.1261V33.8246C54.4537 33.5986 54.6379 33.4095 54.8693 33.4095ZM34.0871 69H31.1719V66.8882C31.1719 66.6571 31.3552 66.4679 31.5867 66.4679H39.0045L41.0736 58.6038H51.3963L53.4663 66.4679H60.8786C61.1048 66.4679 61.2935 66.6571 61.2935 66.8882V69H58.3777V67.3033H34.0871V69ZM19.8303 35.6107C19.8303 35.8418 19.6408 36.0257 19.4147 36.0257C19.184 36.0257 19 35.8418 19 35.6107V22.3935C19 21.4637 19.3782 20.6127 19.9925 19.9981C20.6078 19.3834 21.4583 19 22.3834 19H29.979C30.2105 19 30.3993 19.1892 30.3993 19.4203C30.3993 19.6462 30.2105 19.8352 29.979 19.8352H22.3834C21.6844 19.8352 21.0435 20.1242 20.5813 20.5864C20.1193 21.0487 19.8303 21.6897 19.8303 22.3935V35.6107ZM30.9561 46.4323C30.7299 46.4323 30.5414 46.2484 30.5414 46.0225C30.5414 45.7913 30.7301 45.6022 30.9561 45.6022H61.4038C61.6354 45.6022 61.8241 45.7913 61.8241 46.0225C61.8241 46.2484 61.6354 46.4323 61.4038 46.4323H30.9561Z" fill="#8C6AF9"/>
</svg>
