<svg width="87" height="87" viewBox="0 0 87 87" fill="none" xmlns="http://www.w3.org/2000/svg">
<circle cx="43.5" cy="43.5" r="43.5" fill="#614BB5"/>
<path d="M62.4168 28.2922V28.2243H62.3683C60.0287 25.3428 57.0758 23.0196 53.7245 21.4238C50.3733 19.828 46.7082 19 42.9964 19C39.2845 19 35.6194 19.828 32.2682 21.4238C28.917 23.0196 25.964 25.3428 23.6245 28.2243H23.5783V28.2922C19.9698 32.7321 18 38.2788 18 44C18 49.7211 19.9698 55.2679 23.5783 59.7078V59.7757H23.6269C25.9664 62.6572 28.9194 64.9804 32.2706 66.5762C35.6219 68.1719 39.287 69 42.9988 69C46.7106 69 50.3757 68.1719 53.7269 66.5762C57.0782 64.9804 60.0312 62.6572 62.3707 59.7757H62.4217V59.7078C66.0302 55.2679 68 49.7211 68 44C68 38.2788 66.0302 32.7321 62.4217 28.2922H62.4168ZM44.21 28.2243V21.6033C45.6483 22.2069 46.9418 23.1094 48.0047 24.2509C49.0676 25.3924 49.8756 26.7468 50.3752 28.2243H44.21ZM51.334 30.6513C52.6334 34.5685 53.3314 38.6601 53.4044 42.7865H44.21V30.6513H51.334ZM41.7827 21.6033V28.2243H35.6175C36.1171 26.7468 36.9251 25.3924 37.988 24.2509C39.051 23.1094 40.3445 22.2069 41.7827 21.6033ZM41.7827 30.6513V42.7865H32.5883C32.6613 38.6601 33.3593 34.5685 34.6587 30.6513H41.7827ZM30.1635 42.7865H20.486C20.716 38.4028 22.2285 34.1831 24.8357 30.6513H32.0786C30.8694 34.5855 30.2262 38.6712 30.1635 42.7865ZM30.1635 45.2135C30.2254 49.3287 30.8702 53.4144 32.0786 57.3487H24.8357C22.2285 53.8169 20.716 49.5972 20.486 45.2135H30.1635ZM32.5907 45.2135H41.7827V57.3487H34.6587C33.3593 53.4315 32.6613 49.3399 32.5883 45.2135H32.5907ZM41.7827 59.7757V66.3967C40.3445 65.7931 39.051 64.8906 37.988 63.7491C36.9251 62.6076 36.1171 61.2532 35.6175 59.7757H41.7827ZM44.21 66.3967V59.7757H50.3752C49.8756 61.2532 49.0676 62.6076 48.0047 63.7491C46.9418 64.8906 45.6483 65.7931 44.21 66.3967ZM44.21 57.3487V45.2135H53.4044C53.3314 49.3399 52.6334 53.4315 51.334 57.3487H44.21ZM55.8292 45.2135H65.5067C65.2767 49.5972 63.7642 53.8169 61.1571 57.3487H53.9141C55.1233 53.4145 55.7665 49.3288 55.8292 45.2135ZM55.8292 42.7865C55.7673 38.6713 55.1225 34.5856 53.9141 30.6513H61.1571C63.7642 34.1831 65.2767 38.4028 65.5067 42.7865H55.8292ZM59.1109 28.2243H53.0403C52.203 26.1049 51.0212 24.1384 49.5427 22.4043C53.1701 23.5104 56.4607 25.5119 59.1109 28.2243ZM36.4501 22.4043C34.9724 24.1386 33.7914 26.1051 32.9548 28.2243H26.8794C29.5296 25.5119 32.8202 23.5104 36.4476 22.4043H36.4501ZM26.8818 59.7757H32.9524C33.7898 61.8951 34.9716 63.8616 36.4501 65.5957C32.8226 64.4896 29.5321 62.4881 26.8818 59.7757ZM49.5427 65.5957C51.0203 63.8614 52.2013 61.8949 53.0379 59.7757H59.1109C56.4607 62.4881 53.1701 64.4896 49.5427 65.5957Z" fill="white"/>
</svg>
