<svg width="87" height="87" viewBox="0 0 87 87" fill="none" xmlns="http://www.w3.org/2000/svg">
<circle cx="43.5" cy="43.5" r="43.5" fill="#8C6AF9" fill-opacity="0.1"/>
<path d="M26.5 36.4998V40.6665H28.1667V37.3332H43.1667V40.6665H44.8333V37.3332H59.8333V40.6665H61.5V36.4998C61.5 36.3904 61.4785 36.282 61.4366 36.1809C61.3948 36.0798 61.3334 35.9879 61.256 35.9105C61.1786 35.8331 61.0867 35.7717 60.9856 35.7299C60.8845 35.688 60.7761 35.6665 60.6667 35.6665H44.8333V33.1665H43.1667V35.6665H27.3333C27.2239 35.6665 27.1155 35.688 27.0144 35.7299C26.9133 35.7717 26.8214 35.8331 26.744 35.9105C26.6666 35.9879 26.6052 36.0798 26.5634 36.1809C26.5215 36.282 26.5 36.3904 26.5 36.4998Z" fill="#8C6AF9"/>
<path d="M44.0002 51.4998C46.3013 51.4998 48.1668 49.6344 48.1668 47.3332C48.1668 45.032 46.3013 43.1665 44.0002 43.1665C41.699 43.1665 39.8335 45.032 39.8335 47.3332C39.8335 49.6344 41.699 51.4998 44.0002 51.4998Z" fill="#8C6AF9"/>
<path d="M60.6667 51.4998C62.9679 51.4998 64.8333 49.6344 64.8333 47.3332C64.8333 45.032 62.9679 43.1665 60.6667 43.1665C58.3655 43.1665 56.5 45.032 56.5 47.3332C56.5 49.6344 58.3655 51.4998 60.6667 51.4998Z" fill="#8C6AF9"/>
<path d="M27.3332 51.4998C29.6344 51.4998 31.4998 49.6344 31.4998 47.3332C31.4998 45.032 29.6344 43.1665 27.3332 43.1665C25.032 43.1665 23.1665 45.032 23.1665 47.3332C23.1665 49.6344 25.032 51.4998 27.3332 51.4998Z" fill="#8C6AF9"/>
<path d="M25.6667 62.333H19V68.9997H25.6667V62.333Z" fill="#8C6AF9"/>
<path d="M35.6667 62.333H29V68.9997H35.6667V62.333Z" fill="#8C6AF9"/>
<path d="M59.0002 62.333H52.3335V68.9997H59.0002V62.333Z" fill="#8C6AF9"/>
<path d="M69.0002 62.333H62.3335V68.9997H69.0002V62.333Z" fill="#8C6AF9"/>
<path d="M47.3332 62.333H40.6665V68.9997H47.3332V62.333Z" fill="#8C6AF9"/>
<path d="M44.8332 54H43.1665V60.6667H44.8332V54Z" fill="#8C6AF9"/>
<path d="M23.1667 59H31.5V60.6667H33.1667V58.1667C33.1667 58.0572 33.1452 57.9488 33.1033 57.8477C33.0614 57.7466 33 57.6547 32.9227 57.5773C32.8453 57.5 32.7534 57.4386 32.6523 57.3967C32.5512 57.3548 32.4428 57.3333 32.3333 57.3333H28.1667V54H26.5V57.3333H22.3333C22.2239 57.3333 22.1155 57.3548 22.0144 57.3967C21.9133 57.4386 21.8214 57.5 21.744 57.5773C21.6666 57.6547 21.6052 57.7466 21.5634 57.8477C21.5215 57.9488 21.5 58.0572 21.5 58.1667V60.6667H23.1667V59Z" fill="#8C6AF9"/>
<path d="M66.5002 60.6667V58.1667C66.5002 58.0572 66.4787 57.9488 66.4368 57.8477C66.3949 57.7466 66.3335 57.6547 66.2561 57.5773C66.1788 57.5 66.0869 57.4386 65.9858 57.3967C65.8846 57.3548 65.7763 57.3333 65.6668 57.3333H61.5002V54H59.8335V57.3333H55.6668C55.5574 57.3333 55.449 57.3548 55.3479 57.3967C55.2468 57.4386 55.1549 57.5 55.0775 57.5773C55.0001 57.6547 54.9387 57.7466 54.8969 57.8477C54.855 57.9488 54.8335 58.0572 54.8335 58.1667V60.6667H56.5002V59H64.8335V60.6667H66.5002Z" fill="#8C6AF9"/>
<path d="M45.5743 24.0925L44.0002 19L42.426 24.0925H37.3335L41.4535 27.2408L39.8802 32.3333L44.0002 29.1858L48.1202 32.3333L46.5468 27.2408L50.6668 24.0925H45.5743Z" fill="#8C6AF9"/>
</svg>
