<svg width="87" height="87" viewBox="0 0 87 87" fill="none" xmlns="http://www.w3.org/2000/svg">
<circle cx="43.5" cy="43.5" r="43.5" fill="#8C6AF9" fill-opacity="0.1"/>
<path d="M63.4168 28.2922V28.2243H63.3683C61.0287 25.3428 58.0758 23.0196 54.7245 21.4238C51.3733 19.828 47.7082 19 43.9964 19C40.2845 19 36.6194 19.828 33.2682 21.4238C29.917 23.0196 26.964 25.3428 24.6245 28.2243H24.5783V28.2922C20.9698 32.7321 19 38.2788 19 44C19 49.7211 20.9698 55.2679 24.5783 59.7078V59.7757H24.6269C26.9664 62.6572 29.9194 64.9804 33.2706 66.5762C36.6219 68.1719 40.287 69 43.9988 69C47.7106 69 51.3757 68.1719 54.7269 66.5762C58.0782 64.9804 61.0312 62.6572 63.3707 59.7757H63.4217V59.7078C67.0302 55.2679 69 49.7211 69 44C69 38.2788 67.0302 32.7321 63.4217 28.2922H63.4168ZM45.21 28.2243V21.6033C46.6483 22.2069 47.9418 23.1094 49.0047 24.2509C50.0676 25.3924 50.8756 26.7468 51.3752 28.2243H45.21ZM52.334 30.6513C53.6334 34.5685 54.3314 38.6601 54.4044 42.7865H45.21V30.6513H52.334ZM42.7827 21.6033V28.2243H36.6175C37.1171 26.7468 37.9251 25.3924 38.988 24.2509C40.051 23.1094 41.3445 22.2069 42.7827 21.6033ZM42.7827 30.6513V42.7865H33.5883C33.6613 38.6601 34.3593 34.5685 35.6587 30.6513H42.7827ZM31.1635 42.7865H21.486C21.716 38.4028 23.2285 34.1831 25.8357 30.6513H33.0786C31.8694 34.5855 31.2262 38.6712 31.1635 42.7865ZM31.1635 45.2135C31.2254 49.3287 31.8702 53.4144 33.0786 57.3487H25.8357C23.2285 53.8169 21.716 49.5972 21.486 45.2135H31.1635ZM33.5907 45.2135H42.7827V57.3487H35.6587C34.3593 53.4315 33.6613 49.3399 33.5883 45.2135H33.5907ZM42.7827 59.7757V66.3967C41.3445 65.7931 40.051 64.8906 38.988 63.7491C37.9251 62.6076 37.1171 61.2532 36.6175 59.7757H42.7827ZM45.21 66.3967V59.7757H51.3752C50.8756 61.2532 50.0676 62.6076 49.0047 63.7491C47.9418 64.8906 46.6483 65.7931 45.21 66.3967ZM45.21 57.3487V45.2135H54.4044C54.3314 49.3399 53.6334 53.4315 52.334 57.3487H45.21ZM56.8292 45.2135H66.5067C66.2767 49.5972 64.7642 53.8169 62.1571 57.3487H54.9141C56.1233 53.4145 56.7665 49.3288 56.8292 45.2135ZM56.8292 42.7865C56.7673 38.6713 56.1225 34.5856 54.9141 30.6513H62.1571C64.7642 34.1831 66.2767 38.4028 66.5067 42.7865H56.8292ZM60.1109 28.2243H54.0403C53.203 26.1049 52.0212 24.1384 50.5427 22.4043C54.1701 23.5104 57.4607 25.5119 60.1109 28.2243ZM37.4501 22.4043C35.9724 24.1386 34.7914 26.1051 33.9548 28.2243H27.8794C30.5296 25.5119 33.8202 23.5104 37.4476 22.4043H37.4501ZM27.8818 59.7757H33.9524C34.7898 61.8951 35.9716 63.8616 37.4501 65.5957C33.8226 64.4896 30.5321 62.4881 27.8818 59.7757ZM50.5427 65.5957C52.0203 63.8614 53.2013 61.8949 54.0379 59.7757H60.1109C57.4607 62.4881 54.1701 64.4896 50.5427 65.5957Z" fill="#8C6AF9"/>
</svg>
