<svg width="87" height="87" viewBox="0 0 87 87" fill="none" xmlns="http://www.w3.org/2000/svg">
<circle cx="43.5" cy="43.5" r="43.5" fill="#393198"/>
<path d="M25.5 33.5V37.6666H27.1667V34.3333H42.1667V37.6666H43.8333V34.3333H58.8333V37.6666H60.5V33.5C60.5 33.3905 60.4785 33.2821 60.4366 33.181C60.3948 33.0799 60.3334 32.988 60.256 32.9106C60.1786 32.8333 60.0867 32.7719 59.9856 32.73C59.8845 32.6881 59.7761 32.6666 59.6667 32.6666H43.8333V30.1666H42.1667V32.6666H26.3333C26.2239 32.6666 26.1155 32.6881 26.0144 32.73C25.9133 32.7719 25.8214 32.8333 25.744 32.9106C25.6666 32.988 25.6052 33.0799 25.5634 33.181C25.5215 33.2821 25.5 33.3905 25.5 33.5Z" fill="#F8F6FD"/>
<path d="M43 48.5C45.3012 48.5 47.1666 46.6345 47.1666 44.3333C47.1666 42.0321 45.3012 40.1666 43 40.1666C40.6988 40.1666 38.8333 42.0321 38.8333 44.3333C38.8333 46.6345 40.6988 48.5 43 48.5Z" fill="#F8F6FD"/>
<path d="M59.6667 48.5C61.9679 48.5 63.8333 46.6345 63.8333 44.3333C63.8333 42.0321 61.9679 40.1666 59.6667 40.1666C57.3655 40.1666 55.5 42.0321 55.5 44.3333C55.5 46.6345 57.3655 48.5 59.6667 48.5Z" fill="#F8F6FD"/>
<path d="M26.3334 48.5C28.6345 48.5 30.5 46.6345 30.5 44.3333C30.5 42.0321 28.6345 40.1666 26.3334 40.1666C24.0322 40.1666 22.1667 42.0321 22.1667 44.3333C22.1667 46.6345 24.0322 48.5 26.3334 48.5Z" fill="#F8F6FD"/>
<path d="M24.6667 59.3333H18V65.9999H24.6667V59.3333Z" fill="#F8F6FD"/>
<path d="M34.6667 59.3333H28V65.9999H34.6667V59.3333Z" fill="#F8F6FD"/>
<path d="M58 59.3333H51.3333V65.9999H58V59.3333Z" fill="#F8F6FD"/>
<path d="M68 59.3333H61.3333V65.9999H68V59.3333Z" fill="#F8F6FD"/>
<path d="M46.3334 59.3333H39.6667V65.9999H46.3334V59.3333Z" fill="#F8F6FD"/>
<path d="M43.8334 51H42.1667V57.6667H43.8334V51Z" fill="#F8F6FD"/>
<path d="M22.1667 56H30.5V57.6667H32.1667V55.1667C32.1667 55.0572 32.1452 54.9488 32.1033 54.8477C32.0614 54.7466 32 54.6547 31.9227 54.5773C31.8453 54.5 31.7534 54.4386 31.6523 54.3967C31.5512 54.3548 31.4428 54.3333 31.3333 54.3333H27.1667V51H25.5V54.3333H21.3333C21.2239 54.3333 21.1155 54.3548 21.0144 54.3967C20.9133 54.4386 20.8214 54.5 20.744 54.5773C20.6666 54.6547 20.6052 54.7466 20.5634 54.8477C20.5215 54.9488 20.5 55.0572 20.5 55.1667V57.6667H22.1667V56Z" fill="#F8F6FD"/>
<path d="M65.5 57.6667V55.1667C65.5 55.0572 65.4785 54.9488 65.4366 54.8477C65.3947 54.7466 65.3334 54.6547 65.256 54.5773C65.1786 54.5 65.0867 54.4386 64.9856 54.3967C64.8845 54.3548 64.7761 54.3333 64.6666 54.3333H60.5V51H58.8333V54.3333H54.6666C54.5572 54.3333 54.4488 54.3548 54.3477 54.3967C54.2466 54.4386 54.1547 54.5 54.0773 54.5773C53.9999 54.6547 53.9386 54.7466 53.8967 54.8477C53.8548 54.9488 53.8333 55.0572 53.8333 55.1667V57.6667H55.5V56H63.8333V57.6667H65.5Z" fill="#F8F6FD"/>
<path d="M44.5741 21.0925L43 16L41.4258 21.0925H36.3333L40.4533 24.2408L38.88 29.3333L43 26.1858L47.12 29.3333L45.5466 24.2408L49.6666 21.0925H44.5741Z" fill="#F8F6FD"/>
</svg>
