<svg width="87" height="87" viewBox="0 0 87 87" fill="none" xmlns="http://www.w3.org/2000/svg">
<circle cx="43.5" cy="43.5" r="43.5" fill="#8C6AF9" fill-opacity="0.1"/>
<path d="M69.177 22.752C69.1353 22.2312 68.7604 21.7938 68.2603 21.6688C58.6879 19.1793 53.8028 24.2102 51.7508 27.4184C50.6571 29.137 50.2613 31.0327 50.6155 32.8348C49.7093 32.741 48.7197 32.8764 47.6365 33.2721C46.5489 33.6715 45.3361 34.3474 44 35.2808L52.69 43.9706C53.6232 42.6345 54.2992 41.4217 54.6986 40.3341C55.0319 39.4175 55.1882 38.5636 55.1777 37.7718C55.6568 37.8967 56.1464 37.98 56.6463 37.98C56.9276 37.98 57.2192 37.9592 57.5005 37.9175C62.9585 37.0946 63.823 30.8553 63.8543 30.5845C64.396 26.3661 67.2812 24.5641 68.4999 23.9809C68.9582 23.7519 69.229 23.2728 69.177 22.752Z" fill="#8C6AF9"/>
<path d="M66.6731 55.4281L57.1424 45.9078L52.2614 50.7888L48.913 47.4411C49.7782 46.5002 50.5558 45.6038 51.2335 44.7566L42.1278 35.651C41.2807 36.3286 40.3843 37.1061 39.4437 37.9712L27.9149 26.4423V22.9717C27.9149 22.6071 27.7274 22.2634 27.415 22.0758L22.5298 19.149C22.1235 18.899 21.5923 18.9719 21.259 19.3051L19.3008 21.2531C18.9674 21.5967 18.9049 22.1175 19.1445 22.5342L22.0715 27.4089C22.2694 27.7214 22.6028 27.9194 22.9673 27.9194H26.4461L37.9327 39.406C37.6674 39.6646 37.406 39.9159 37.1331 40.1894C31.4147 45.9078 15.9989 63.6777 19.6028 67.2816C19.9361 67.6253 20.4153 67.8961 21.1965 67.8961C22.7902 67.8961 25.6442 66.7816 31.2376 62.8235C36.2789 59.2508 42.2057 54.2406 46.6951 49.7512C46.9685 49.4785 47.2196 49.2172 47.4782 48.9522L50.7884 52.2617L45.9034 57.1466L55.4341 66.6668C56.934 68.1668 58.9235 69 61.0484 69C63.1733 69 65.1627 68.1668 66.6731 66.6668C69.7666 63.5734 69.7666 58.5322 66.6731 55.4281ZM57.2329 58.7067L55.7602 57.2338L57.2329 55.761L58.7058 57.2338L57.2329 58.7067ZM60.9152 62.3899L59.4423 60.9161L60.9163 59.4432L62.3891 60.917L60.9152 62.3899Z" fill="#8C6AF9"/>
</svg>
