<svg width="87" height="87" viewBox="0 0 87 87" fill="none" xmlns="http://www.w3.org/2000/svg">
<circle cx="43.5" cy="43.5" r="43.5" fill="#5857E7"/>
<path fill-rule="evenodd" clip-rule="evenodd" d="M19.2543 65.7456C22.5087 69 27.7465 69 38.2222 69H49.1366C48.373 67.6867 47.9444 66.1645 47.9444 64.5884C47.9444 62.3217 48.8308 60.1664 50.3252 58.5834H47.9444C46.7938 58.5834 45.861 57.6506 45.861 56.5C45.861 55.3495 46.7938 54.4167 47.9444 54.4167H53.3005C54.7208 50.8337 58.0969 48.1667 62.2963 48.1667C66.6313 48.1667 70.1005 51.0231 71.4305 54.7792L71.4705 54.807C71.5555 52.5353 71.5555 49.8873 71.5555 46.7778V46.0834H15.9999V46.7778C15.9999 57.2534 15.9999 62.4914 19.2543 65.7456ZM27.111 61.3612C25.9605 61.3612 25.0277 60.4284 25.0277 59.2778V53.7223C25.0277 52.5717 25.9605 51.6389 27.111 51.6389C28.2616 51.6389 29.1944 52.5717 29.1944 53.7223V59.2778C29.1944 60.4284 28.2616 61.3612 27.111 61.3612ZM35.4444 61.3612C34.2938 61.3612 33.361 60.4284 33.361 59.2778V53.7223C33.361 52.5717 34.2938 51.6389 35.4444 51.6389C36.595 51.6389 37.5277 52.5717 37.5277 53.7223V59.2778C37.5277 60.4284 36.595 61.3612 35.4444 61.3612Z" fill="white"/>
<path fill-rule="evenodd" clip-rule="evenodd" d="M19.2544 22.2544C16 25.5087 16 30.7466 16 41.2222V41.9167H71.5556V41.2222C71.5556 30.7466 71.5556 25.5087 68.3011 22.2544C65.0469 19 59.8089 19 49.3333 19H38.2222C27.7466 19 22.5087 19 19.2544 22.2544ZM35.4444 36.3611C34.2939 36.3611 33.3611 35.4284 33.3611 34.2778V28.7222C33.3611 27.5716 34.2939 26.6389 35.4444 26.6389C36.595 26.6389 37.5278 27.5716 37.5278 28.7222V34.2778C37.5278 35.4284 36.595 36.3611 35.4444 36.3611ZM25.0278 34.2778C25.0278 35.4284 25.9605 36.3611 27.1111 36.3611C28.2617 36.3611 29.1944 35.4284 29.1944 34.2778V28.7222C29.1944 27.5716 28.2617 26.6389 27.1111 26.6389C25.9605 26.6389 25.0278 27.5716 25.0278 28.7222V34.2778ZM45.8611 31.5C45.8611 30.3494 46.7939 29.4167 47.9444 29.4167H60.4444C61.595 29.4167 62.5278 30.3494 62.5278 31.5C62.5278 32.6506 61.595 33.5833 60.4444 33.5833H47.9444C46.7939 33.5833 45.8611 32.6506 45.8611 31.5Z" fill="white"/>
<path fill-rule="evenodd" clip-rule="evenodd" d="M67.8174 57.5573C67.5082 54.6184 65.1543 52.3334 62.2962 52.3334C59.9487 52.3334 57.9412 53.875 57.1276 56.0542C56.8779 56.7234 56.7407 57.4525 56.7407 58.2156C56.7407 58.9342 56.8624 59.6228 57.0851 60.2592C56.8237 60.205 56.5537 60.1764 56.2776 60.1764C55.0557 60.1764 53.9565 60.7334 53.1946 61.6206C52.5212 62.4042 52.111 63.4456 52.111 64.5884C52.111 67.0248 53.9765 69 56.2776 69H65.9998C69.0682 69 71.5554 66.3664 71.5554 63.1178C71.5554 60.5428 69.9929 58.3545 67.8174 57.5573Z" fill="white"/>
<path d="M67.8174 57.5573C67.5082 54.6184 65.1543 52.3334 62.2962 52.3334C59.9487 52.3334 57.9412 53.875 57.1276 56.0542C56.8779 56.7234 56.7407 57.4525 56.7407 58.2156C56.7407 58.9342 56.8624 59.6228 57.0851 60.2592C56.8237 60.205 56.5537 60.1764 56.2776 60.1764C55.0557 60.1764 53.9565 60.7334 53.1946 61.6206C52.5212 62.4042 52.111 63.4456 52.111 64.5884C52.111 67.0248 53.9765 69 56.2776 69H65.9998C69.0682 69 71.5554 66.3664 71.5554 63.1178C71.5554 60.5428 69.9929 58.3545 67.8174 57.5573Z" fill="white"/>
</svg>
