<svg width="87" height="87" viewBox="0 0 87 87" fill="none" xmlns="http://www.w3.org/2000/svg">
<circle cx="43.5" cy="43.5" r="43.5" fill="#393198"/>
<path d="M33.8701 19.2012H53.9062C55.9238 19.2013 57.5742 20.8535 57.5742 22.8701V65.1299C57.5752 67.1464 55.9238 68.7987 53.9072 68.7988H33.8701C31.8525 68.7988 30.2012 67.1466 30.2012 65.1299V22.8701C30.2012 20.8525 31.8534 19.2012 33.8701 19.2012Z" fill="#F8F6FD" stroke="#8C6AF9" stroke-width="0.403226"/>
<mask id="path-3-inside-1_2034_185" fill="white">
<path d="M47.505 22.976H42.57C42.348 22.976 42.167 22.8075 42.167 22.6009C42.167 22.3943 42.348 22.2258 42.57 22.2258H47.505C47.727 22.2258 47.908 22.3943 47.908 22.6009C47.908 22.8075 47.726 22.976 47.505 22.976Z"/>
</mask>
<path d="M47.505 22.976H42.57C42.348 22.976 42.167 22.8075 42.167 22.6009C42.167 22.3943 42.348 22.2258 42.57 22.2258H47.505C47.727 22.2258 47.908 22.3943 47.908 22.6009C47.908 22.8075 47.726 22.976 47.505 22.976Z" fill="#8C6AF9"/>
<path d="M47.908 22.6009L46.2951 22.6009L47.908 22.6009ZM47.505 22.976V21.3631H42.57V22.976V24.5889H47.505V22.976ZM42.57 22.976V21.3631C43.1278 21.3631 43.7799 21.8097 43.7799 22.6009H42.167H40.5541C40.5541 23.8054 41.5682 24.5889 42.57 24.5889V22.976ZM42.167 22.6009H43.7799C43.7799 23.3921 43.1278 23.8387 42.57 23.8387V22.2258V20.6129C41.5682 20.6129 40.5541 21.3964 40.5541 22.6009H42.167ZM42.57 22.2258V23.8387H47.505V22.2258V20.6129H42.57V22.2258ZM47.505 22.2258V23.8387C46.9472 23.8387 46.2951 23.3921 46.2951 22.6009H47.908H49.5209C49.5209 21.3964 48.5068 20.6129 47.505 20.6129V22.2258ZM47.908 22.6009L46.2951 22.6009C46.2951 21.8072 46.9489 21.3631 47.505 21.3631V22.976V24.5889C48.5031 24.5889 49.5209 23.8079 49.5209 22.6009L47.908 22.6009Z" fill="#8C6AF9" mask="url(#path-3-inside-1_2034_185)"/>
<path d="M40.2723 22.9758C40.4948 22.9757 40.6747 22.8079 40.6747 22.6008C40.6746 22.4197 40.5369 22.2687 40.3534 22.2336L40.2723 22.2258M40.2723 22.9758V22.2258M40.2723 22.9758L40.1913 22.968C40.0074 22.9332 39.869 22.7822 39.869 22.6008C39.8691 22.3937 40.0498 22.2258 40.2723 22.2258M40.2723 22.9758V22.2258" fill="#8C6AF9" stroke="#8C6AF9" stroke-width="1.6129"/>
<mask id="path-6-inside-2_2034_185" fill="white">
<path d="M43.7103 65.7743C42.3758 65.7743 41.2903 64.6888 41.2903 63.3555C41.2903 62.021 42.3758 60.9355 43.7103 60.9355C45.0436 60.9355 46.1291 62.021 46.1291 63.3555C46.1291 64.6888 45.0436 65.7743 43.7103 65.7743ZM43.7103 61.5523C42.7162 61.5523 41.9071 62.3614 41.9071 63.3555C41.9071 64.3497 42.7162 65.1575 43.7103 65.1575C44.7045 65.1575 45.5123 64.3497 45.5123 63.3555C45.5123 62.3614 44.7032 61.5523 43.7103 61.5523Z"/>
</mask>
<path d="M43.7103 65.7743C42.3758 65.7743 41.2903 64.6888 41.2903 63.3555C41.2903 62.021 42.3758 60.9355 43.7103 60.9355C45.0436 60.9355 46.1291 62.021 46.1291 63.3555C46.1291 64.6888 45.0436 65.7743 43.7103 65.7743ZM43.7103 61.5523C42.7162 61.5523 41.9071 62.3614 41.9071 63.3555C41.9071 64.3497 42.7162 65.1575 43.7103 65.1575C44.7045 65.1575 45.5123 64.3497 45.5123 63.3555C45.5123 62.3614 44.7032 61.5523 43.7103 61.5523Z" fill="#8C6AF9"/>
<path d="M46.1291 63.3555L44.5162 63.3555L46.1291 63.3555ZM43.7103 65.7743V64.1614C43.266 64.1614 42.9032 63.7975 42.9032 63.3555H41.2903H39.6774C39.6774 65.5802 41.4855 67.3872 43.7103 67.3872V65.7743ZM41.2903 63.3555H42.9032C42.9032 62.9117 43.2665 62.5484 43.7103 62.5484V60.9355V59.3226C41.485 59.3226 39.6774 61.1302 39.6774 63.3555H41.2903ZM43.7103 60.9355V62.5484C44.1523 62.5484 44.5162 62.9112 44.5162 63.3555H46.1291H47.742C47.742 61.1307 45.935 59.3226 43.7103 59.3226V60.9355ZM46.1291 63.3555L44.5162 63.3555C44.5162 63.7981 44.1529 64.1614 43.7103 64.1614V65.7743V67.3872C45.9344 67.3872 47.742 65.5796 47.742 63.3555L46.1291 63.3555ZM43.7103 61.5523V59.9394C41.8254 59.9394 40.2942 61.4706 40.2942 63.3555H41.9071H43.52C43.52 63.2522 43.607 63.1652 43.7103 63.1652V61.5523ZM41.9071 63.3555H40.2942C40.2942 65.2419 41.8268 66.7704 43.7103 66.7704V65.1575V63.5446C43.6055 63.5446 43.52 63.4574 43.52 63.3555H41.9071ZM43.7103 65.1575V66.7704C45.5952 66.7704 47.1252 65.2404 47.1252 63.3555H45.5123H43.8994C43.8994 63.4589 43.8137 63.5446 43.7103 63.5446V65.1575ZM45.5123 63.3555H47.1252C47.1252 61.4713 45.5947 59.9394 43.7103 59.9394V61.5523V63.1652C43.8117 63.1652 43.8994 63.2514 43.8994 63.3555H45.5123Z" fill="#8C6AF9" mask="url(#path-6-inside-2_2034_185)"/>
</svg>
