<svg width="87" height="87" viewBox="0 0 87 87" fill="none" xmlns="http://www.w3.org/2000/svg">
<circle cx="43.5" cy="43.5" r="43.5" fill="#8C6AF9" fill-opacity="0.1"/>
<path fill-rule="evenodd" clip-rule="evenodd" d="M19.2544 65.7457C22.5087 69.0002 27.7466 69.0002 38.2222 69.0002H49.1367C48.3731 67.6868 47.9444 66.1646 47.9444 64.5885C47.9444 62.3218 48.8308 60.1666 50.3253 58.5835H47.9444C46.7939 58.5835 45.8611 57.6507 45.8611 56.5002C45.8611 55.3496 46.7939 54.4168 47.9444 54.4168H53.3006C54.7208 50.8338 58.0969 48.1668 62.2964 48.1668C66.6314 48.1668 70.1006 51.0232 71.4306 54.7793L71.4706 54.8071C71.5556 52.5354 71.5556 49.8874 71.5556 46.7779V46.0835H16V46.7779C16 57.2535 16 62.4916 19.2544 65.7457ZM27.1111 61.3613C25.9605 61.3613 25.0278 60.4285 25.0278 59.2779V53.7224C25.0278 52.5718 25.9605 51.6391 27.1111 51.6391C28.2617 51.6391 29.1944 52.5718 29.1944 53.7224V59.2779C29.1944 60.4285 28.2617 61.3613 27.1111 61.3613ZM35.4444 61.3613C34.2939 61.3613 33.3611 60.4285 33.3611 59.2779V53.7224C33.3611 52.5718 34.2939 51.6391 35.4444 51.6391C36.595 51.6391 37.5278 52.5718 37.5278 53.7224V59.2779C37.5278 60.4285 36.595 61.3613 35.4444 61.3613Z" fill="#8C6AF9"/>
<path fill-rule="evenodd" clip-rule="evenodd" d="M19.2544 22.2544C16 25.5087 16 30.7466 16 41.2222V41.9167H71.5556V41.2222C71.5556 30.7466 71.5556 25.5087 68.3011 22.2544C65.0469 19 59.8089 19 49.3333 19H38.2222C27.7466 19 22.5087 19 19.2544 22.2544ZM35.4444 36.3611C34.2939 36.3611 33.3611 35.4284 33.3611 34.2778V28.7222C33.3611 27.5716 34.2939 26.6389 35.4444 26.6389C36.595 26.6389 37.5278 27.5716 37.5278 28.7222V34.2778C37.5278 35.4284 36.595 36.3611 35.4444 36.3611ZM25.0278 34.2778C25.0278 35.4284 25.9605 36.3611 27.1111 36.3611C28.2617 36.3611 29.1944 35.4284 29.1944 34.2778V28.7222C29.1944 27.5716 28.2617 26.6389 27.1111 26.6389C25.9605 26.6389 25.0278 27.5716 25.0278 28.7222V34.2778ZM45.8611 31.5C45.8611 30.3494 46.7939 29.4167 47.9444 29.4167H60.4444C61.595 29.4167 62.5278 30.3494 62.5278 31.5C62.5278 32.6506 61.595 33.5833 60.4444 33.5833H47.9444C46.7939 33.5833 45.8611 32.6506 45.8611 31.5Z" fill="#8C6AF9"/>
<path d="M67.8172 57.5574C67.5081 54.6185 65.1542 52.3335 62.2961 52.3335C59.9486 52.3335 57.9411 53.8752 57.1275 56.0543C56.8778 56.7235 56.7406 57.4527 56.7406 58.2157C56.7406 58.9343 56.8622 59.6229 57.085 60.2593C56.8236 60.2052 56.5536 60.1766 56.2775 60.1766C55.0556 60.1766 53.9564 60.7335 53.1944 61.6207C52.5211 62.4043 52.1108 63.4457 52.1108 64.5885C52.1108 67.0249 53.9764 69.0002 56.2775 69.0002H65.9997C69.0681 69.0002 71.5553 66.3666 71.5553 63.1179C71.5553 60.5429 69.9928 58.3546 67.8172 57.5574Z" fill="#8C6AF9"/>
</svg>
