<svg width="87" height="87" viewBox="0 0 87 87" fill="none" xmlns="http://www.w3.org/2000/svg">
<circle cx="43.5" cy="43.5" r="43.5" fill="#5857E7"/>
<path d="M67.9855 21.8573C67.9438 21.3365 67.5689 20.899 67.0688 20.774C57.4965 18.2845 52.6113 23.3154 50.5593 26.5236C49.4657 28.2422 49.0698 30.1379 49.424 31.94C48.5178 31.8462 47.5283 31.9816 46.445 32.3774C45.3574 32.7767 44.1446 33.4526 42.8085 34.3861L51.4985 43.0758C52.4318 41.7397 53.1078 40.527 53.5071 39.4394C53.8404 38.5227 53.9967 37.6688 53.9862 36.8771C54.4653 37.0019 54.9549 37.0853 55.4549 37.0853C55.7362 37.0853 56.0277 37.0644 56.309 37.0227C61.767 36.1998 62.6315 29.9605 62.6629 29.6897C63.2045 25.4713 66.0898 23.6693 67.3084 23.0861C67.7667 22.8572 68.0375 22.3781 67.9855 21.8573Z" fill="#F8F6FD"/>
<path d="M65.6731 55.4281L56.1424 45.9078L51.2614 50.7888L47.913 47.4411C48.7782 46.5002 49.5558 45.6038 50.2335 44.7566L41.1278 35.651C40.2807 36.3286 39.3843 37.1061 38.4437 37.9712L26.9149 26.4423V22.9717C26.9149 22.6071 26.7274 22.2634 26.415 22.0758L21.5298 19.149C21.1235 18.899 20.5923 18.9719 20.259 19.3051L18.3008 21.2531C17.9674 21.5967 17.9049 22.1175 18.1445 22.5342L21.0715 27.4089C21.2694 27.7214 21.6028 27.9194 21.9673 27.9194H25.4461L36.9327 39.406C36.6674 39.6646 36.406 39.9159 36.1331 40.1894C30.4147 45.9078 14.9989 63.6777 18.6028 67.2816C18.9361 67.6253 19.4153 67.8961 20.1965 67.8961C21.7902 67.8961 24.6442 66.7816 30.2376 62.8235C35.2789 59.2508 41.2057 54.2406 45.6951 49.7512C45.9685 49.4785 46.2196 49.2172 46.4782 48.9522L49.7884 52.2617L44.9034 57.1466L54.4341 66.6668C55.934 68.1668 57.9235 69 60.0484 69C62.1733 69 64.1627 68.1668 65.6731 66.6668C68.7666 63.5734 68.7666 58.5322 65.6731 55.4281ZM56.2329 58.7067L54.7602 57.2338L56.2329 55.761L57.7058 57.2338L56.2329 58.7067ZM59.9152 62.3899L58.4423 60.9161L59.9163 59.4432L61.3891 60.917L59.9152 62.3899Z" fill="#F8F6FD"/>
</svg>
