<svg width="87" height="87" viewBox="0 0 87 87" fill="none" xmlns="http://www.w3.org/2000/svg">
<circle cx="43.5" cy="43.5" r="43.5" fill="#8C6AF9" fill-opacity="0.1"/>
<path d="M33.8701 19.2012H53.9062C55.9238 19.2013 57.5742 20.8535 57.5742 22.8701V65.1299C57.5752 67.1464 55.9238 68.7987 53.9072 68.7988H33.8701C31.8525 68.7988 30.2012 67.1466 30.2012 65.1299V22.8701C30.2012 20.8525 31.8534 19.2012 33.8701 19.2012Z" fill="#8C6AF9" stroke="#8C6AF9" stroke-width="0.403226"/>
<mask id="path-3-inside-1_2086_383" fill="white">
<path d="M47.505 22.9758H42.57C42.348 22.9758 42.167 22.8073 42.167 22.6007C42.167 22.3941 42.348 22.2256 42.57 22.2256H47.505C47.727 22.2256 47.908 22.3941 47.908 22.6007C47.908 22.8073 47.726 22.9758 47.505 22.9758Z"/>
</mask>
<path d="M47.505 22.9758H42.57C42.348 22.9758 42.167 22.8073 42.167 22.6007C42.167 22.3941 42.348 22.2256 42.57 22.2256H47.505C47.727 22.2256 47.908 22.3941 47.908 22.6007C47.908 22.8073 47.726 22.9758 47.505 22.9758Z" fill="#8C6AF9"/>
<path d="M47.908 22.6007L46.2951 22.6007L47.908 22.6007ZM47.505 22.9758V21.3629H42.57V22.9758V24.5887H47.505V22.9758ZM42.57 22.9758V21.3629C43.1278 21.3629 43.7799 21.8094 43.7799 22.6007H42.167H40.5541C40.5541 23.8052 41.5682 24.5887 42.57 24.5887V22.9758ZM42.167 22.6007H43.7799C43.7799 23.3919 43.1278 23.8385 42.57 23.8385V22.2256V20.6127C41.5682 20.6127 40.5541 21.3962 40.5541 22.6007H42.167ZM42.57 22.2256V23.8385H47.505V22.2256V20.6127H42.57V22.2256ZM47.505 22.2256V23.8385C46.9472 23.8385 46.2951 23.3919 46.2951 22.6007H47.908H49.5209C49.5209 21.3962 48.5068 20.6127 47.505 20.6127V22.2256ZM47.908 22.6007L46.2951 22.6007C46.2951 21.8069 46.9489 21.3629 47.505 21.3629V22.9758V24.5887C48.5031 24.5887 49.5209 23.8077 49.5209 22.6007L47.908 22.6007Z" fill="#8C6AF9" mask="url(#path-3-inside-1_2086_383)"/>
<path d="M40.2725 22.9756C40.4949 22.9754 40.6748 22.8076 40.6748 22.6006C40.6748 22.4194 40.537 22.2684 40.3535 22.2334L40.2725 22.2256M40.2725 22.9756V22.2256M40.2725 22.9756L40.1914 22.9678C40.0076 22.9329 39.8691 22.782 39.8691 22.6006C39.8692 22.3935 40.0499 22.2256 40.2725 22.2256M40.2725 22.9756V22.2256" fill="#8C6AF9" stroke="#8C6AF9" stroke-width="1.6129"/>
<mask id="path-6-inside-2_2086_383" fill="white">
<path d="M43.7105 65.7743C42.3759 65.7743 41.2905 64.6888 41.2905 63.3555C41.2905 62.021 42.3759 60.9355 43.7105 60.9355C45.0438 60.9355 46.1292 62.021 46.1292 63.3555C46.1292 64.6888 45.0438 65.7743 43.7105 65.7743ZM43.7105 61.5523C42.7164 61.5523 41.9072 62.3614 41.9072 63.3555C41.9072 64.3497 42.7164 65.1575 43.7105 65.1575C44.7046 65.1575 45.5125 64.3497 45.5125 63.3555C45.5125 62.3614 44.7034 61.5523 43.7105 61.5523Z"/>
</mask>
<path d="M43.7105 65.7743C42.3759 65.7743 41.2905 64.6888 41.2905 63.3555C41.2905 62.021 42.3759 60.9355 43.7105 60.9355C45.0438 60.9355 46.1292 62.021 46.1292 63.3555C46.1292 64.6888 45.0438 65.7743 43.7105 65.7743ZM43.7105 61.5523C42.7164 61.5523 41.9072 62.3614 41.9072 63.3555C41.9072 64.3497 42.7164 65.1575 43.7105 65.1575C44.7046 65.1575 45.5125 64.3497 45.5125 63.3555C45.5125 62.3614 44.7034 61.5523 43.7105 61.5523Z" fill="#8C6AF9"/>
<path d="M46.1292 63.3555L44.5163 63.3555L46.1292 63.3555ZM43.7105 65.7743V64.1614C43.2662 64.1614 42.9034 63.7975 42.9034 63.3555H41.2905H39.6776C39.6776 65.5802 41.4857 67.3872 43.7105 67.3872V65.7743ZM41.2905 63.3555H42.9034C42.9034 62.9117 43.2667 62.5484 43.7105 62.5484V60.9355V59.3226C41.4852 59.3226 39.6776 61.1302 39.6776 63.3555H41.2905ZM43.7105 60.9355V62.5484C44.1525 62.5484 44.5163 62.9112 44.5163 63.3555H46.1292H47.7421C47.7421 61.1307 45.9351 59.3226 43.7105 59.3226V60.9355ZM46.1292 63.3555L44.5163 63.3555C44.5163 63.7981 44.153 64.1614 43.7105 64.1614V65.7743V67.3872C45.9346 67.3872 47.7421 65.5796 47.7421 63.3555L46.1292 63.3555ZM43.7105 61.5523V59.9394C41.8256 59.9394 40.2943 61.4706 40.2943 63.3555H41.9072H43.5201C43.5201 63.2522 43.6071 63.1652 43.7105 63.1652V61.5523ZM41.9072 63.3555H40.2943C40.2943 65.2419 41.827 66.7704 43.7105 66.7704V65.1575V63.5446C43.6057 63.5446 43.5201 63.4574 43.5201 63.3555H41.9072ZM43.7105 65.1575V66.7704C45.5954 66.7704 47.1254 65.2404 47.1254 63.3555H45.5125H43.8996C43.8996 63.4589 43.8139 63.5446 43.7105 63.5446V65.1575ZM45.5125 63.3555H47.1254C47.1254 61.4713 45.5949 59.9394 43.7105 59.9394V61.5523V63.1652C43.8119 63.1652 43.8996 63.2514 43.8996 63.3555H45.5125Z" fill="white" mask="url(#path-6-inside-2_2086_383)"/>
</svg>
