<svg width="87" height="87" viewBox="0 0 87 87" fill="none" xmlns="http://www.w3.org/2000/svg">
<circle cx="43.5" cy="43.5" r="43.5" fill="#5857E7"/>
<path fill-rule="evenodd" clip-rule="evenodd" d="M27.0566 27.5628C26.8252 27.5628 26.6365 27.3789 26.6365 27.1478C26.6365 26.9167 26.8252 26.7328 27.0566 26.7328H31.3434C31.564 26.7328 31.7581 26.9167 31.7581 27.1478C31.7581 27.3789 31.5639 27.5628 31.3434 27.5628H27.0566ZM27.0566 29.3594C26.8252 29.3594 26.6365 29.1702 26.6365 28.9443C26.6365 28.7132 26.8252 28.5295 27.0566 28.5295H34.0014C34.2328 28.5295 34.4216 28.7133 34.4216 28.9443C34.4216 29.1703 34.2328 29.3594 34.0014 29.3594H27.0566ZM27.0566 31.156C26.8252 31.156 26.6365 30.9668 26.6365 30.7356C26.6365 30.5098 26.8252 30.3208 27.0566 30.3208H36.323C36.5491 30.3208 36.7331 30.5099 36.7331 30.7356C36.7331 30.9668 36.549 31.156 36.323 31.156H27.0566ZM27.0566 32.9473C26.8252 32.9473 26.6365 32.7633 26.6365 32.5323C26.6365 32.3011 26.8252 32.1173 27.0566 32.1173H31.3434C31.564 32.1173 31.7581 32.3012 31.7581 32.5323C31.7581 32.7634 31.5639 32.9473 31.3434 32.9473H27.0566ZM68.2474 23.0818C67.8317 22.6719 67.2703 22.4198 66.6551 22.4198H23.8153C23.2009 22.4198 22.6331 22.6719 22.2238 23.0818C21.8137 23.4914 21.562 24.0535 21.562 24.6734V55.515C21.562 56.1347 21.8137 56.7023 22.2238 57.1067C22.6331 57.5165 23.2009 57.7738 23.8153 57.7738H66.655C67.2702 57.7738 67.8317 57.5164 68.2418 57.1121C68.6513 56.7023 68.9036 56.1349 68.9036 55.5151V24.6734C68.9036 24.0535 68.6513 23.4915 68.2474 23.0818ZM66.1618 49.4791V25.1357H24.199V49.4791H66.1618ZM66.9968 24.7207V49.8941C66.9968 50.1253 66.8126 50.3144 66.5821 50.3144H23.7834C23.5528 50.3144 23.3687 50.1253 23.3687 49.8941V24.7207C23.3687 24.4895 23.5529 24.3056 23.7834 24.3056H66.5821C66.8126 24.3056 66.9968 24.4896 66.9968 24.7207ZM45.6531 54.9846C45.5427 54.8795 45.3952 54.8165 45.2328 54.8165C45.0696 54.8165 44.9174 54.8795 44.8126 54.9846C44.7069 55.0949 44.6439 55.2419 44.6439 55.405C44.6439 55.5678 44.7069 55.7148 44.8126 55.8199C44.9174 55.9302 45.0696 55.9933 45.2328 55.9933C45.3952 55.9933 45.5427 55.9302 45.6531 55.8199C45.7579 55.7148 45.8208 55.5678 45.8208 55.405C45.8208 55.2418 45.7577 55.0947 45.6531 54.9846ZM45.2328 53.981C45.6212 53.981 45.9839 54.1439 46.241 54.4014C46.4936 54.6536 46.6566 55.0108 46.6566 55.4048C46.6566 55.7988 46.4936 56.1507 46.241 56.4081C45.9839 56.6656 45.6212 56.8284 45.2328 56.8284C44.8437 56.8284 44.4864 56.6656 44.2293 56.4081C43.9721 56.1507 43.8145 55.7988 43.8145 55.4048C43.8145 55.0108 43.9721 54.6536 44.2238 54.4014C44.4864 54.1439 44.8391 53.981 45.2328 53.981ZM36.0814 38.752H33.7908V43.711H36.0814V38.752ZM33.3816 37.9167H36.4969C36.7222 37.9167 36.9119 38.1059 36.9119 38.3318V44.1261C36.9119 44.3519 36.7224 44.5411 36.4969 44.5411H33.3816C33.1502 44.5411 32.9613 44.3519 32.9613 44.1261V38.3318C32.9613 38.1059 33.15 37.9167 33.3816 37.9167ZM41.2032 32.9578H38.918V43.711H41.2032V32.9578ZM38.4977 32.1276H41.6186C41.8493 32.1276 42.0333 32.3116 42.0333 32.5427V44.1261C42.0333 44.3519 41.8493 44.5411 41.6186 44.5411H38.4977C38.2671 44.5411 38.083 44.3519 38.083 44.1261V32.5427C38.083 32.3116 38.2672 32.1276 38.4977 32.1276ZM46.3256 35.9679H44.0406V43.711H46.3256V35.9679ZM43.625 35.1327H46.7459C46.9712 35.1327 47.1553 35.3165 47.1553 35.5476V44.1262C47.1553 44.352 46.9712 44.5412 46.7459 44.5412H43.625C43.3943 44.5412 43.2048 44.352 43.2048 44.1262V35.5476C43.2048 35.3164 43.3943 35.1327 43.625 35.1327ZM51.4475 38.0849H49.1623V43.711H51.4475V38.0849ZM48.7421 37.2497H51.8623C52.0937 37.2497 52.2825 37.4388 52.2825 37.6646V44.1261C52.2825 44.3519 52.0937 44.5411 51.8623 44.5411H48.7421C48.5161 44.5411 48.332 44.3519 48.332 44.1261V37.6646C48.332 37.4387 48.5161 37.2497 48.7421 37.2497ZM56.5692 34.2396H54.284V43.711H56.5692V34.2396ZM53.8693 33.4095H56.9895C57.221 33.4095 57.4042 33.5987 57.4042 33.8246V44.1261C57.4042 44.3519 57.221 44.5411 56.9895 44.5411H53.8693C53.6379 44.5411 53.4537 44.3519 53.4537 44.1261V33.8246C53.4537 33.5986 53.6379 33.4095 53.8693 33.4095ZM33.0871 69H30.1719V66.8882C30.1719 66.6571 30.3552 66.4679 30.5867 66.4679H38.0045L40.0736 58.6038H50.3963L52.4663 66.4679H59.8786C60.1048 66.4679 60.2935 66.6571 60.2935 66.8882V69H57.3777V67.3033H33.0871V69ZM18.8303 35.6107C18.8303 35.8418 18.6408 36.0257 18.4147 36.0257C18.184 36.0257 18 35.8418 18 35.6107V22.3935C18 21.4637 18.3782 20.6127 18.9925 19.9981C19.6078 19.3834 20.4583 19 21.3834 19H28.979C29.2105 19 29.3993 19.1892 29.3993 19.4203C29.3993 19.6462 29.2105 19.8352 28.979 19.8352H21.3834C20.6844 19.8352 20.0435 20.1242 19.5813 20.5864C19.1193 21.0487 18.8303 21.6897 18.8303 22.3935V35.6107ZM29.9561 46.4323C29.7299 46.4323 29.5414 46.2484 29.5414 46.0225C29.5414 45.7913 29.7301 45.6022 29.9561 45.6022H60.4038C60.6354 45.6022 60.8241 45.7913 60.8241 46.0225C60.8241 46.2484 60.6354 46.4323 60.4038 46.4323H29.9561Z" fill="white"/>
</svg>
