<svg width="87" height="87" viewBox="0 0 87 87" fill="none" xmlns="http://www.w3.org/2000/svg">
<circle cx="43.5" cy="43.5" r="43.5" fill="#8C6AF9" fill-opacity="0.1"/>
<path d="M29.935 19.185C30.5845 19.4972 30.9976 20.154 30.9976 20.8746C30.9976 22.9487 31.7776 24.1428 32.7549 25.5971L32.826 25.7027C33.6572 26.9375 34.7466 28.5562 34.7466 30.8721C34.7466 33.2353 33.554 35.32 31.7377 36.557C32.2156 36.9576 32.6389 37.4517 33.0027 38.0404C34.1918 39.9649 34.7466 42.9054 34.7466 47.1304C34.7466 51.4096 34.1718 56.5483 33.2355 60.6508C32.77 62.6908 32.1933 64.5726 31.5042 65.987C31.1625 66.6883 30.7463 67.3734 30.2282 67.9093C29.7157 68.4389 28.9239 69 27.8733 69C26.8227 69 26.0309 68.4389 25.5185 67.9093C25.0003 67.3734 24.5842 66.6883 24.2424 65.987C23.5533 64.5726 22.9767 62.6908 22.5111 60.6508C21.5748 56.5483 21 51.4096 21 47.1304C21 42.9054 21.5548 39.9649 22.7439 38.0404C23.1077 37.4517 23.5311 36.9576 24.0089 36.557C22.1927 35.32 21 33.2353 21 30.8721C21 29.9518 21.0008 28.3699 21.9583 26.3274C22.8953 24.3285 24.6757 22.0318 27.952 19.4108C28.5147 18.9606 29.2856 18.8729 29.935 19.185Z" fill="#8C6AF9"/>
<path d="M40.9952 51.2847C39.6497 51.059 38.365 50.6541 37.1664 50.0955C37.2188 49.08 37.2461 48.0855 37.2461 47.1305C37.2461 46.1162 37.2161 45.1462 37.15 44.2227C38.2576 45.1332 39.5644 45.8101 40.9952 46.1785V40.2449C40.9952 38.1744 42.6737 36.4958 44.7442 36.4958H53.492C53.492 30.9743 49.0161 26.4983 43.4945 26.4983C41.0318 26.4983 38.7771 27.3887 37.0348 28.8652C36.6007 26.8316 35.5956 25.3401 34.9537 24.3877L34.853 24.2381C37.2956 22.513 40.2767 21.4995 43.4945 21.4995C51.7767 21.4995 58.4908 28.2136 58.4908 36.4958H67.2386C69.3094 36.4958 70.9877 38.1744 70.9877 40.2449V62.7394C70.9877 64.8099 69.3094 66.4885 67.2386 66.4885H44.7442C42.6737 66.4885 40.9952 64.8099 40.9952 62.7394V51.2847ZM45.9938 51.2847V61.4897H65.989V41.4946H57.6375C55.8474 46.5596 51.4135 50.3757 45.9938 51.2847ZM52.1546 41.4946H45.9938V46.1785C48.6205 45.5024 50.8292 43.7861 52.1546 41.4946Z" fill="#8C6AF9"/>
</svg>
