<svg width="87" height="87" viewBox="0 0 87 87" fill="none" xmlns="http://www.w3.org/2000/svg">
<circle cx="43.5" cy="43.5" r="43.5" fill="#614BB5"/>
<path d="M27.935 19.185C28.5845 19.4972 28.9976 20.154 28.9976 20.8746C28.9976 22.9487 29.7776 24.1428 30.7549 25.5971L30.826 25.7027C31.6572 26.9375 32.7466 28.5562 32.7466 30.8721C32.7466 33.2353 31.554 35.32 29.7377 36.557C30.2156 36.9576 30.6389 37.4517 31.0027 38.0404C32.1918 39.9649 32.7466 42.9054 32.7466 47.1304C32.7466 51.4096 32.1718 56.5483 31.2355 60.6508C30.77 62.6908 30.1933 64.5726 29.5042 65.987C29.1625 66.6883 28.7463 67.3734 28.2282 67.9093C27.7157 68.4389 26.9239 69 25.8733 69C24.8227 69 24.0309 68.4389 23.5185 67.9093C23.0003 67.3734 22.5842 66.6883 22.2424 65.987C21.5533 64.5726 20.9767 62.6908 20.5111 60.6508C19.5748 56.5483 19 51.4096 19 47.1304C19 42.9054 19.5548 39.9649 20.7439 38.0404C21.1077 37.4517 21.5311 36.9576 22.0089 36.557C20.1927 35.32 19 33.2353 19 30.8721C19 29.9518 19.0008 28.3699 19.9583 26.3274C20.8953 24.3285 22.6757 22.0318 25.952 19.4108C26.5147 18.9606 27.2856 18.8729 27.935 19.185Z" fill="#F8F6FD"/>
<path d="M38.995 51.2846C37.6495 51.0589 36.3648 50.654 35.1662 50.0954C35.2187 49.0799 35.2459 48.0854 35.2459 47.1304C35.2459 46.1161 35.2159 45.1461 35.1499 44.2226C36.2574 45.1331 37.5642 45.8099 38.995 46.1783V40.2448C38.995 38.1742 40.6735 36.4957 42.744 36.4957H51.4918C51.4918 30.9742 47.0159 26.4982 41.4943 26.4982C39.0316 26.4982 36.777 27.3886 35.0346 28.8651C34.6005 26.8315 33.5954 25.34 32.9535 24.3875L32.8528 24.238C35.2954 22.5129 38.2766 21.4994 41.4943 21.4994C49.7765 21.4994 56.4906 28.2135 56.4906 36.4957H65.2385C67.3092 36.4957 68.9875 38.1742 68.9875 40.2448V62.7393C68.9875 64.8098 67.3092 66.4884 65.2385 66.4884H42.744C40.6735 66.4884 38.995 64.8098 38.995 62.7393V51.2846ZM43.9937 51.2846V61.4896H63.9888V41.4945H55.6373C53.8473 46.5595 49.4133 50.3756 43.9937 51.2846ZM50.1544 41.4945H43.9937V46.1783C46.6203 45.5023 48.829 43.7859 50.1544 41.4945Z" fill="#F8F6FD"/>
</svg>
